<svg width="164" height="55" viewBox="0 0 164 55" fill="none" xmlns="http://www.w3.org/2000/svg">
<path d="M21.8463 1.39129C22.2351 0.791358 22.9672 0.939369 23.5139 0.730181C23.7369 0.645322 23.9046 0.307859 24.2085 0.408506C24.471 0.355222 24.7335 0.538755 24.9959 0.408506C25.0611 0.408506 25.1282 0.408506 25.1933 0.408506C25.6827 0.844642 25.6294 1.29854 25.2387 1.7623C25.0729 1.95965 24.9091 2.17279 24.6979 2.3129C24.0072 2.7668 23.8494 3.38647 24.0605 4.14428C23.8434 4.42649 23.4408 4.30808 23.1942 4.52911C23.7309 5.46256 24.0408 5.49413 24.6387 4.68896C25.3097 4.84091 25.138 5.28297 24.9959 5.71713C24.5914 6.31115 24.0487 6.20063 23.5218 5.9579C22.8429 5.64609 23.3284 6.15919 23.2751 6.28747C24.1118 8.107 22.7521 9.57329 21.6391 10.8521C20.7293 11.9533 20.3267 12.0342 19.0301 11.4145C18.1302 10.9843 18.0355 11.0139 17.7671 11.8191C17.2461 12.123 16.9166 12.6184 16.5337 13.0604C14.2761 13.2755 12.1309 13.8755 10.1298 14.9569C9.56935 15.2608 9.25162 15.8193 8.8214 16.2614C8.37342 16.7212 8.87271 17.1021 8.90034 17.5204C8.84114 17.5974 8.76022 17.6487 8.67339 17.6941C8.38724 17.8441 7.884 17.7513 7.9215 18.2664C7.94321 18.5506 8.25304 18.6335 8.4938 18.7243C8.94376 18.894 9.14308 18.6197 9.29306 18.2605C9.31674 18.2013 9.36016 18.152 9.40357 18.1026C9.48646 18.0572 9.57527 18.0454 9.66802 18.0651C10.2857 19.0262 9.80024 19.6123 8.22936 19.7228C8.75233 20.6247 8.18397 21.3352 7.84848 22.093C7.72415 22.3495 7.62548 22.6238 7.3709 22.7876C6.6269 23.2001 5.87699 23.5672 4.99879 23.6362C2.73917 23.8119 2.69378 27.4983 0.39272 27.9601C0.106567 27.7529 0.224975 27.445 0.1934 27.1727C0.059204 26.7168 0.217081 26.2826 0.280232 25.8406C0.446004 25.5939 0.765706 25.4873 0.888061 25.2091C1.54917 23.7231 2.86942 23.1744 4.314 22.8567C5.65596 22.5607 6.13946 21.4378 6.69006 20.4313C6.992 19.8807 6.44535 19.6715 5.9579 19.5492C5.1251 19.342 5.03629 19.0874 5.44677 18.3197C5.72108 17.8066 6.20458 17.5165 6.6269 17.1573C7.17948 16.6876 7.15777 16.3048 6.57757 15.9239C5.88685 15.4687 5.87633 14.999 6.54599 14.5149C6.59928 14.4774 6.64467 14.43 6.69006 14.3826C7.70047 14.0807 8.63392 13.6011 9.59105 13.1729C10.4574 12.7861 11.3691 12.494 12.2 12.0184C13.2617 12.1645 14.3037 11.3731 15.3753 11.9474C16.1745 12.1783 16.0443 11.3909 16.3344 11.0672C16.2633 10.1377 16.7626 9.61473 17.5777 9.31674C18.6197 8.13858 19.2374 6.68413 20.1471 5.41914C20.6188 5.05405 20.7135 4.32189 21.3805 4.14625C21.797 4.0831 22.464 3.9864 22.5548 3.51474C22.6002 3.18123 22.1285 3.2128 21.9509 3.00164C21.5108 2.49249 20.9523 1.98925 21.8443 1.39327L21.8463 1.39129Z" fill="#ECEEED"/>
<path d="M31.0979 0.605852C31.4452 0.690711 31.8103 0.730181 32.0807 1.00252C32.1399 1.08935 32.1399 1.17224 32.0708 1.25315C31.9879 1.30446 31.9011 1.33801 31.8064 1.35774C31.1236 1.41695 31.0604 2.0307 30.8631 2.47867C30.5315 3.23451 30.2316 4.01206 29.5665 4.53503C27.6226 6.06644 26.4188 8.15239 25.4597 10.337C24.1592 13.2992 21.7299 15.0023 19.119 16.5455C18.369 16.9896 17.4316 17.0744 16.5534 17.1672C14.724 17.3606 13.242 18.1381 11.8961 19.415C9.32266 21.8542 7.53273 24.7828 6.09999 27.9719C5.93619 28.337 5.90067 28.7317 5.85133 29.1185C5.81384 29.4086 6.03881 29.4086 6.248 29.3928C6.39009 29.3751 6.5302 29.381 6.66835 29.4126C6.8578 29.4678 7.03146 29.5546 7.1854 29.6809C7.33735 29.823 7.43208 29.9967 7.45971 30.2059C7.45181 30.4624 7.44787 30.721 7.10448 30.7624C6.56573 29.975 5.80002 30.3026 5.08957 30.3598C4.16204 30.0539 4.00417 29.7599 4.42254 28.9606C4.75606 28.3193 5.03826 27.6581 5.30665 26.9891C6.83609 23.056 9.41739 19.8827 12.569 17.1632C13.8024 16.0995 15.4424 15.7463 16.9916 15.3871C19.4248 14.8207 21.1773 13.3406 22.7324 11.5231C23.9421 10.1081 24.5144 8.3379 25.3729 6.72952C26.0379 5.48032 27.0365 4.54884 28.0489 3.63315C28.5462 3.1832 28.9784 2.75299 29.2251 2.11556C29.452 1.52944 29.8882 1.07356 30.3894 0.688738C30.6164 0.590065 30.8591 0.619667 31.0979 0.609799V0.605852Z" fill="#E3E5E4"/>
<path d="M33.5036 37.788C33.6851 37.7939 33.8667 37.7998 34.0482 37.8057C34.1134 38.0544 33.9259 38.1096 33.7621 38.1846C33.6812 38.2142 33.5983 38.2419 33.5213 38.2734C33.9219 40.3515 32.353 41.4803 31.2242 42.7197C30.3105 43.7222 29.3178 44.701 28.191 45.5042C27.1036 46.2798 26.7622 46.1634 26.5076 44.8826C26.3951 44.3162 26.1287 43.8208 25.7656 43.4064C24.4098 41.8612 23.5198 40.1167 23.3047 38.0544C23.2869 37.8926 23.204 37.7426 23.1508 37.5886C23.0994 37.4564 23.0738 37.3202 23.0797 37.1801C23.0876 37.0913 23.1093 37.0025 23.1409 36.9177C23.3284 36.5289 23.5237 36.1421 23.6441 35.7217C23.6717 35.6349 23.7092 35.554 23.7487 35.4711C23.9757 35.1494 24.0053 34.6363 24.5598 34.6265C24.8164 34.8435 24.6762 35.1001 24.6407 35.3547C24.3427 37.5077 24.8775 39.3648 26.5392 40.8567C28.1989 42.3447 30.3539 42.173 31.7117 40.4265C32.1774 39.8285 32.2484 39.3292 31.5617 38.8576C30.6657 38.2419 30.5177 37.4387 30.9163 36.446C31.317 35.4415 31.5025 34.366 31.8755 33.3477C32.1912 32.4793 31.9011 32.1142 30.9854 32.0925C28.937 32.0452 26.9872 32.3234 25.3906 33.7798C25.213 33.9417 25.0058 34.0364 24.765 33.8904C24.5026 33.2983 24.9052 32.8346 25.0729 32.3274C25.1953 31.9583 25.3078 31.5854 25.3985 31.2064C25.5031 30.9302 25.6334 30.6736 25.9235 30.5453C28.0371 30.3579 30.1526 30.423 32.2682 30.5039C33.247 31.1078 33.5983 31.9978 33.2668 33.0615C32.88 34.3758 32.1695 35.5658 31.7906 36.8782C31.4867 38.23 32.7833 37.4446 33.5036 37.788Z" fill="#FDEC07"/>
<path d="M42.9111 9.05624C45.5022 10.7514 48.3204 12.0816 50.7832 13.982C50.8721 14.0471 50.8582 14.1912 50.7911 14.2228C50.7004 14.2583 50.6076 14.2642 50.5149 14.2425C49.2795 13.536 49.1768 13.613 49.0407 15.0872C48.9716 15.845 48.869 16.5988 48.8275 17.3586C48.2098 17.3705 47.8783 16.9166 47.4974 16.5416C47.2093 16.0482 47.0869 15.5233 47.1679 14.949C47.3257 13.8537 46.6804 13.2518 45.8101 12.8137C44.2136 12.0125 42.473 11.823 40.7304 11.6533C40.5725 11.6375 40.4127 11.7244 40.2509 11.7461C40.0436 11.7619 39.8621 11.6908 39.6983 11.5724C38.0741 9.99561 36.3414 8.5313 34.7429 6.92292C33.8608 6.2401 33.5411 5.37178 33.7601 4.26269C33.8844 3.63118 33.695 2.96415 33.8943 2.33066C34.0048 2.10569 34.1627 2.08793 34.3541 2.22804C34.5554 2.38987 34.7666 2.53985 35.0369 2.56945C35.8382 2.98388 36.5999 3.45357 37.2058 4.14033C36.965 4.68501 36.7361 4.05942 36.5526 4.11665C35.9763 5.24153 36.0158 6.25392 36.9492 7.15579C37.7327 7.9136 38.3326 8.82337 39.6134 8.97138C40.6712 9.09374 41.7132 9.38778 42.7947 9.3641C43.0986 9.35818 42.7335 9.10558 42.9111 9.05624Z" fill="#DCDDDC"/>
<path d="M30.5098 0.801226C29.9454 1.43274 29.4224 2.07214 29.1343 2.90494C28.8659 3.67854 28.0134 3.96864 27.447 4.48174C25.9037 5.87501 25.14 7.70442 24.3013 9.49632C23.2534 11.7342 21.5404 13.3051 19.5432 14.6727C18.4105 15.4483 17.106 15.5786 15.8687 15.9219C13.2538 16.6501 11.4007 18.2644 9.74696 20.3563C8.10898 22.4225 6.48481 24.5105 5.5119 26.9773C5.01853 26.8727 5.281 26.5155 5.33034 26.3004C5.48821 25.6156 5.62241 24.919 5.88093 24.2598C6.05855 23.7645 6.73544 23.7132 6.85385 23.1646C6.92884 22.9356 7.0887 22.7758 7.28407 22.6455C7.41432 22.4482 7.54654 22.2528 7.67679 22.0555C8.29646 20.4116 9.70354 19.3124 10.5975 17.8401C11.4382 16.4567 12.9499 15.8035 14.4754 15.3595C15.7542 14.9865 16.96 14.353 18.3177 14.2405C18.5723 14.2188 18.8131 14.0432 18.9729 13.834C19.4781 13.1729 20.1807 12.7565 20.8319 12.2789C21.9706 11.154 22.8409 9.84957 23.4527 8.37145C23.4803 7.22881 24.0783 6.39601 24.9052 5.68753C25.1361 4.00022 26.2274 2.84376 27.3582 1.71099C27.4963 1.57285 27.6542 1.42682 27.7055 1.24328C27.9739 0.294045 28.6725 0.124326 29.5211 0.211159C29.6513 0.211159 29.7816 0.211159 29.9118 0.211159C30.0066 0.351275 30.1427 0.408506 30.3105 0.402585C30.4407 0.402585 30.571 0.406532 30.7012 0.408506C30.8275 0.631507 30.6124 0.686765 30.5098 0.797279V0.801226Z" fill="#E5E7E7"/>
<path d="M34.4449 2.37803C34.3147 2.3129 34.1824 2.2458 34.0522 2.18068C33.8154 2.31685 33.5983 2.18265 33.3753 2.13726C32.876 2.0603 32.9194 2.45894 32.9451 2.71154C33.0635 3.87589 32.5287 4.68106 31.6959 5.43493C30.6578 6.3743 30.3618 7.83269 29.4935 8.90231C28.6232 9.97588 28.3311 11.3178 27.8259 12.5434C27.145 14.1991 25.8524 15.2944 24.5184 16.1943C22.0298 17.8737 19.19 18.7973 16.1509 18.9788C14.9589 19.0499 13.9347 19.5531 13.0446 20.3129C10.8758 22.168 9.24767 24.4651 7.85243 26.924C7.37485 27.7687 7.34722 28.7968 7.08278 29.7323C6.92095 29.7283 6.77294 29.6948 6.69006 29.5349C6.05855 29.1363 6.39798 28.6271 6.54797 28.1555C7.14987 26.257 8.08924 24.5282 9.2378 22.908C9.28517 22.8212 9.34042 22.7403 9.4016 22.6633C10.6034 21.3746 11.7224 20.0228 13.1433 18.9275C14.355 17.9941 15.7325 17.848 17.11 17.706C21.4378 17.256 25.6136 13.984 27.1075 9.90878C27.8101 7.9886 29.1047 6.38022 30.4111 4.83894C31.2045 3.90549 31.8754 3.00954 31.8893 1.74454C31.8912 1.5472 31.98 1.36366 32.0846 1.19395C32.0846 1.12882 32.0846 1.06567 32.0846 1.00055C32.9391 1.25907 33.7246 1.65376 34.4469 2.17871C34.5475 2.23791 34.5199 2.35237 34.4469 2.37605L34.4449 2.37803Z" fill="#E0E1E1"/>
<path d="M6.69203 14.3846C6.6644 14.4774 6.6644 14.6175 6.60125 14.655C5.89475 15.0812 5.28495 15.3595 6.71571 15.6753C7.56233 15.8627 7.55049 16.7449 6.81241 17.3211C6.24405 17.7513 5.35599 18.294 5.42901 19.0894C5.49611 19.4919 5.9875 19.2453 6.28155 19.3262C7.08278 19.5432 7.33933 20.0958 6.85385 20.7984C6.09209 21.9015 5.43296 23.0777 3.8305 23.277C2.59511 23.431 1.56693 24.1197 1.08738 25.3887C0.965026 25.7103 0.726236 25.8347 0.39272 25.7991C0.0414428 25.0354 0.223002 24.2283 0.1934 23.4369C0.487447 22.3949 0.793334 21.3549 1.07357 20.309C1.3538 19.261 2.1274 18.4203 2.79048 17.7573C3.98838 16.5633 5.00866 14.9944 6.69006 14.3866L6.69203 14.3846Z" fill="#EDEFEF"/>
<path d="M17.7138 9.46278C17.6586 9.54171 17.6112 9.68183 17.5441 9.6917C16.7686 9.81997 16.4627 10.2285 16.6955 11.006C16.7113 11.0593 16.589 11.156 16.5317 11.233C16.3916 11.1106 16.3679 10.9606 16.4133 10.8324C15.9535 11.1797 15.7108 11.7402 15.3516 12.2158C14.8681 11.8783 14.3353 11.7698 13.836 12.1052C13.242 12.5039 12.7466 11.9928 12.202 12.0184C13.2814 11.527 14.282 10.8837 14.9589 9.91667C15.7364 8.80166 16.441 7.63337 17.1238 6.44732C18.2842 4.42649 19.488 2.33856 21.8483 1.39129C21.1457 2.01293 21.9746 2.44118 22.0456 2.96612C22.0417 3.50882 21.5167 3.82655 21.4555 4.3436C20.7925 4.46793 20.899 5.36191 20.2754 5.52373C20.0662 5.20206 19.8353 5.16062 19.5906 5.48229C18.8012 6.52626 18.1934 7.68073 17.5658 8.82337C17.4376 9.05821 17.6191 9.25753 17.7178 9.4608L17.7138 9.46278Z" fill="#EDEFEF"/>
<path d="M42.9111 9.05624C43.0591 9.2674 43.2091 9.47856 43.4064 9.75682C42.1493 9.41541 40.9001 9.39962 39.6845 9.2378C38.2221 9.04243 37.5827 8.07543 36.7065 7.26039C35.5757 6.2105 35.7849 5.02839 36.4519 3.81076C36.7558 3.71998 36.7914 4.39688 37.2058 4.14033C38.1906 4.56858 38.7589 5.49216 39.5641 6.13748C40.7186 7.06107 41.8 8.0774 42.9111 9.05624Z" fill="#D8D9D8"/>
<path d="M55.0874 18.9117C56.1688 20.9563 56.605 23.1409 56.4727 25.4419C56.4589 25.6946 56.3504 25.9432 56.2872 26.1938C56.1807 26.257 56.0859 26.2392 56.007 26.1445C55.9162 26.0064 55.8708 25.8544 55.8511 25.6926C55.8097 25.1716 55.8274 24.6486 55.8235 24.1276C55.8886 23.3363 55.788 22.5646 55.5709 21.7989C55.4288 21.2996 55.1703 21.2207 54.6453 21.2029C52.4962 21.1358 50.7892 22.3495 48.9361 23.0975C47.4422 23.6994 45.8318 24.2066 44.7977 25.6077C44.7168 25.6728 44.626 25.7103 44.5234 25.7261C44.1978 25.7202 43.9393 25.6038 43.8011 25.288C43.9807 24.0388 45.0562 23.6125 45.9147 22.985C45.9956 22.9356 46.0805 22.8981 46.1693 22.8646C47.5033 22.2745 48.9677 21.9489 50.0866 20.9247C50.3491 20.68 50.6293 20.4491 50.9786 20.3563C52.1765 20.0366 53.1889 19.4623 53.8461 18.3651C53.9329 18.2191 54.1006 18.1776 54.2704 18.1737C54.7282 18.2151 54.7637 18.7243 55.0893 18.9117H55.0874Z" fill="#C9C9C9"/>
<path d="M31.8972 44.4977C29.8112 47.2626 27.7312 50.0314 25.6294 52.7843C25.3176 53.1929 24.9742 53.6073 24.4394 53.7652C24.1158 53.8934 23.7823 53.8323 23.4507 53.8145C23.1172 53.6823 22.8745 53.402 22.8962 53.0823C22.9593 52.1686 22.7482 51.1898 23.4191 50.3945C24.1947 50.5918 23.6224 51.2746 23.9046 51.7167C25.2426 51.2036 25.9649 50.0156 26.8846 49.0348C28.1574 47.679 29.0731 46.0311 30.4506 44.7661C30.9223 44.6221 31.2578 43.7281 31.8972 44.4997V44.4977Z" fill="#F9E30A"/>
<path d="M29.5231 0.213132C27.8042 0.436134 27.5753 2.25765 26.4247 3.11216C25.588 3.7338 25.3847 4.80144 24.9959 5.72305C24.9308 5.81383 24.8657 5.81383 24.7986 5.72305C24.8144 5.37967 25.1854 4.96327 24.6013 4.73829C24.2855 4.65936 24.0901 4.46398 24.0112 4.14823C22.5113 2.3504 26.1169 2.23396 25.1913 0.408506C26.2313 -0.183535 27.372 0.0552549 28.4791 0.0138121C28.8422 -2.18488e-06 29.1975 0.0157856 29.5211 0.213132H29.5231Z" fill="#E9EBEA"/>
<path d="M55.0874 18.9117C54.6789 18.9117 54.667 18.4026 54.3236 18.3197C53.9368 17.8619 53.6685 17.8697 53.1455 18.296C51.0141 20.0327 48.8196 21.6983 46.1791 22.6258C45.5812 22.835 45.0424 23.129 44.5629 23.5375C43.9985 23.7744 43.5919 24.246 43.0611 24.5342C42.7433 24.5894 42.4809 24.4907 42.2756 24.2421C42.3921 23.3895 43.0453 22.9633 43.7044 22.6337C45.4312 21.7733 47.1146 20.8398 48.796 19.8945C50.0432 19.1939 51.1819 18.4184 51.9693 17.2007C52.2298 16.7982 52.589 16.5298 53.0764 16.4587C53.3073 16.4291 53.4198 16.6028 53.556 16.737C54.2684 17.3211 54.6611 18.1283 55.0893 18.9117H55.0874Z" fill="#CFCFCF"/>
<path d="M7.2821 22.6475C7.21697 22.8449 7.14987 23.0402 7.08475 23.2376C6.78676 23.6935 6.30918 23.7882 5.82568 23.8947C4.61199 24.1631 4.25282 24.6249 4.29427 25.8702C4.31005 26.3517 4.20941 26.78 3.87392 27.1312C2.94836 28.1002 2.14319 29.1935 0.988707 29.9276C0.475606 29.3672 0.769652 28.564 0.394694 27.9621C1.63403 27.1529 2.34251 25.9254 3.04901 24.6782C3.46344 23.9441 4.11271 23.3915 5.00866 23.3955C5.86909 23.3994 6.51244 22.8547 7.2821 22.6495V22.6475Z" fill="#EBECEB"/>
<path d="M6.10196 24.2223C5.96185 25.1518 5.48624 26.0123 5.5119 26.9773C5.36586 27.7548 5.02248 28.4554 4.61397 29.1146C4.20546 29.7757 4.40478 30.0599 5.1172 30.125C4.9909 30.7269 4.22717 30.646 4.01601 31.1551C3.30161 31.4492 2.85955 32.0018 2.55564 32.6865C2.14713 32.3886 1.8965 31.9879 1.77415 31.5025C1.43471 30.8828 1.48207 30.4624 2.14319 29.9809C3.04309 29.3238 3.61737 28.337 4.05942 27.301C4.37912 26.5491 4.61397 25.7597 5.04024 25.0591C5.28297 24.6585 5.47045 24.1434 6.10394 24.2204L6.10196 24.2223Z" fill="#E6E7E6"/>
<path d="M6.10196 24.2223C5.00471 24.917 4.83302 26.1623 4.35347 27.2141C3.77919 28.4752 3.16347 29.7145 1.91624 30.4269C1.27683 30.792 2.08201 31.1887 1.77217 31.5044C1.37748 31.0446 1.12882 30.5138 0.988707 29.9276C1.19 29.681 1.21566 29.3948 1.56101 29.1402C2.45894 28.4752 3.17136 27.5457 3.91141 26.6833C4.07521 26.4918 4.16599 26.1741 4.0614 25.8465C3.67854 24.6506 4.79158 23.7132 5.69345 23.656C6.20853 23.6224 6.64861 23.4724 7.08475 23.2396C7.08475 23.8967 6.36049 23.8276 6.09999 24.2243L6.10196 24.2223Z" fill="#E8E9E8"/>
<path d="M31.8972 44.4977C31.2558 43.9945 31.0328 44.9753 30.5078 44.8865C30.3894 44.0024 31.1591 43.5781 31.5636 42.994C32.5484 41.433 34.8278 40.089 33.6575 37.9991C33.8173 37.9952 33.9654 37.9616 34.0502 37.8037C34.6876 37.7564 35.3448 37.7643 35.7119 38.3741C36.077 38.9819 35.6546 39.5108 35.333 39.9884C34.2791 41.5593 33.1385 43.065 31.8972 44.4938L31.8972 44.4977Z" fill="#FAE60A"/>
<path d="M33.5036 37.788C31.2084 37.8452 31.1275 37.7248 31.9998 35.5895C32.282 34.8949 32.5149 34.1765 32.8464 33.5075C33.3555 32.4734 33.1582 31.5696 32.4754 30.7131C32.8484 30.3657 33.2845 30.4605 33.7187 30.5256C33.9259 30.5828 34.1074 30.6815 34.2594 30.8335C34.6403 31.6761 34.4508 32.5484 34.3877 33.4148C34.1824 33.9752 33.9752 34.5357 33.6299 35.031C33.4799 35.2422 33.322 35.4494 33.1996 35.6783C33.0339 35.9763 32.8444 36.2585 32.6589 36.5427C32.4971 36.7953 32.2267 36.9492 32.0688 37.2058C31.461 37.9952 33.1622 37.4801 33.5036 37.788Z" fill="#FAE70A"/>
<path d="M9.44896 37.3972C8.8589 37.1999 8.26883 37.0045 7.67876 36.8071C7.56627 36.5407 7.18342 36.5052 7.13606 36.1796C7.43603 35.0547 8.35171 34.2002 8.51749 33.0161C8.97533 31.8991 9.45488 30.794 9.74104 29.6119C9.87918 29.0396 10.0193 28.3587 10.8462 28.3272C11.2626 29.4145 10.4081 30.2276 10.2186 31.1847C9.85352 33.022 9.27727 34.8218 9.27332 36.7183C9.27332 36.7736 9.3424 36.8249 9.38976 36.8742C9.51211 37.038 9.61473 37.2038 9.44896 37.3992V37.3972Z" fill="#D7D4D0"/>
<path d="M21.2681 38.2044C20.6129 37.6932 19.9379 38.228 19.2729 38.1669C18.9038 37.9241 18.373 38.3504 18.0631 37.8708C18.1204 37.6932 18.371 37.6695 18.4657 37.7702C18.3 37.5867 18.0671 37.7702 17.8638 37.7327C16.5574 37.5531 15.3121 37.261 14.6451 35.9368C14.4557 35.5599 14.2642 35.181 14.4537 34.7429C15.1977 34.435 15.322 35.3744 15.8765 35.4474C16.7449 36.1421 17.6645 36.7243 18.821 36.7894C19.7702 36.9867 20.7372 37.0519 21.6924 37.1959C21.8779 37.6695 21.8739 38.0642 21.2681 38.2044Z" fill="#E8DCC4"/>
<path d="M23.6165 50.3945C23.1567 51.4858 22.8429 52.583 23.427 53.7336C22.3397 54.0375 22.2469 52.5535 22.4304 51.8489C23.0047 49.4137 23.3126 46.937 23.5987 44.4583C23.6481 44.0281 23.6382 43.6788 23.0264 43.7399C22.6396 43.7774 22.243 43.7123 21.8522 43.6926C21.7891 43.5821 21.8108 43.4873 21.9134 43.4123C22.1581 43.2604 22.4364 43.2584 22.7107 43.2387C23.2534 43.2446 23.8 43.1933 24.3388 43.3058C24.7887 43.5268 25.1045 43.7676 24.4453 44.1327C24.027 44.2747 24.1434 44.5274 24.3052 44.7977C24.6841 45.4253 24.7374 46.1989 24.5697 46.9034C24.2421 47.7481 24.2283 48.6637 23.9678 49.5222C23.875 49.8241 23.8849 50.1656 23.6185 50.3964L23.6165 50.3945Z" fill="#FCE62B"/>
<path d="M7.2821 36.2269C7.39853 36.4302 7.70442 36.5052 7.67679 36.8071C7.15185 36.5447 6.6269 36.2802 6.10196 36.0178C5.08365 34.9146 5.04616 34.8199 6.07039 33.6358C6.94463 32.6254 7.45971 31.4492 7.91558 30.2276C8.11095 29.9829 8.30041 29.7224 8.67734 29.8921C8.91218 30.2237 8.70102 30.571 8.71681 30.9104C8.42079 32.2169 8.08727 33.5036 7.23868 34.5949C6.82425 35.1297 6.64861 35.702 7.28012 36.2309L7.2821 36.2269Z" fill="#DBDAD7"/>
<path d="M8.06951 30.3243C7.73007 31.8222 6.99002 33.1049 5.89672 34.1686C5.13891 34.9047 5.80989 35.4297 6.10196 36.0197C5.70924 35.7592 5.31652 35.4968 4.9238 35.2363C4.77777 34.956 4.46004 34.7843 4.4107 34.439C5.1843 33.1898 6.14538 32.0886 7.10646 30.9854C7.2071 30.8828 7.32551 30.7979 7.41235 30.6795C7.55641 30.3046 7.38274 29.9138 7.45774 29.5468C7.56233 29.0455 7.52089 28.416 8.26291 28.3252C8.51157 28.6113 8.33001 28.937 8.35172 29.2448C8.32803 29.6237 8.21555 29.9789 8.06754 30.3243H8.06951Z" fill="#DCDDDB"/>
<path d="M4.52713 34.4567C4.63568 34.7271 4.94551 34.8968 4.9238 35.2343C4.03377 34.4784 3.11611 33.7483 2.55367 32.6885C2.40566 31.911 2.92863 31.315 3.93509 31.1117C4.85868 31.9406 5.6974 31.7866 6.49468 30.9124C6.63677 30.7565 6.82622 30.5927 7.08475 30.717C7.31564 30.5749 7.2742 30.3421 7.2821 30.127C7.38274 30.0599 7.47155 30.0737 7.54654 30.1664C7.5643 30.419 7.64127 30.6776 7.47747 30.9144C7.41234 30.9795 7.34525 31.0446 7.28012 31.1117C6.33088 32.2741 4.64752 32.4063 3.83839 33.6674C4.14428 33.7759 4.38505 34.068 4.52516 34.4587L4.52713 34.4567Z" fill="#E4E4E2"/>
<path d="M21.2681 38.2044C21.5522 37.936 21.645 37.5867 21.6825 37.2137C21.6253 36.8348 21.8522 36.4559 21.9489 36.0947C22.2607 35.254 22.5094 34.3916 22.8843 33.5766C23.2731 32.7852 23.5079 31.9287 23.9303 31.1532C24.2717 30.5276 24.7335 30.1171 25.515 30.4072C25.6077 30.4644 25.6571 30.5493 25.659 30.6578C25.6215 30.7526 25.5643 30.8315 25.4873 30.8986C24.6289 31.6386 24.325 32.6925 23.9461 33.693C23.4507 35.0014 22.6021 36.1697 22.4028 37.5926C22.1699 38.1728 22.1088 38.8102 21.8127 39.3707C21.6095 39.6292 21.4812 39.9765 21.0826 40.016C20.8576 39.8621 20.7964 39.6489 20.8674 39.3924C20.9997 38.9977 21.1319 38.601 21.2641 38.2063L21.2681 38.2044Z" fill="#FBE55B"/>
<path d="M23.5987 44.4583C23.7823 46.9784 23.21 49.4058 22.7265 51.8489C22.5863 52.5554 22.2686 53.4553 23.427 53.7356C23.7645 53.7454 24.102 53.7573 24.4394 53.7671C23.5691 54.0592 22.7186 54.2151 22.0239 53.3862C21.7299 52.068 22.1818 50.8326 22.4561 49.5794C22.6416 48.7328 22.8587 47.8921 23.0106 47.0356L23.0047 47.0435C23.21 46.4614 23.2751 45.8476 23.4034 45.2477C23.4172 44.9714 23.3836 44.6833 23.5987 44.4563V44.4583Z" fill="#FADF48"/>
<path d="M32.0688 37.2058C32.0866 36.8723 32.3313 36.6651 32.5129 36.4243C33.1326 35.9842 33.8371 35.927 34.5633 35.9546C36.3138 35.9546 37.9241 35.4119 39.4891 34.6896C39.9213 34.66 40.2291 34.8396 40.4107 35.2343C40.4344 35.477 40.316 35.6507 40.1364 35.7948C38.7036 36.3927 37.1604 36.444 35.6527 36.6651C35.329 36.7124 35.0073 36.7341 34.7212 36.9078C34.0384 36.9729 33.3437 36.7953 32.6708 37.0144C32.4695 37.0775 32.2701 37.1407 32.0688 37.2058Z" fill="#EBE1C8"/>
<path d="M9.44896 37.3972C9.44304 37.2374 9.40752 37.0953 9.25162 37.0124C9.03848 36.2191 9.61276 35.996 10.1634 35.7573C11.1935 36.3947 12.1092 37.2137 13.24 37.6932C13.2538 37.8728 13.092 37.9064 12.9933 37.9912C12.3223 38.0761 11.679 37.8926 11.0277 37.788C10.8659 37.6103 10.6528 37.5965 10.4337 37.6044C10.1061 37.5354 9.77853 37.4643 9.45094 37.3952L9.44896 37.3972Z" fill="#D5D1CC"/>
<path d="M51.0122 34.2752C50.5149 34.7922 49.8754 35.0448 49.2064 35.2461C47.7382 35.5678 47.6967 35.5441 47.2428 34.0798C47.1994 33.7483 47.0988 33.4207 47.1836 33.0812C47.302 32.9095 47.4698 32.8148 47.6691 32.7675C48.1566 32.7319 48.3204 33.1286 48.5572 33.4286C48.9203 34.2732 49.4946 34.6067 50.3925 34.212C50.5958 34.1232 50.8267 34.0719 51.0122 34.2772V34.2752Z" fill="#C3C0BA"/>
<path d="M46.8422 36.0257C46.2127 36.2901 45.5634 36.4519 44.8747 36.4203C44.4859 36.3059 44.2787 36.1263 44.6241 35.7415C45.2536 35.258 45.5476 34.5396 45.9108 33.8706C45.9917 33.6989 46.0824 33.5351 46.2462 33.4246C46.5225 33.3733 46.7021 33.5292 46.8679 33.7127C46.9231 33.7897 46.9646 33.8746 46.9922 33.9654C47.0948 34.662 46.4732 35.3073 46.8422 36.0237V36.0257Z" fill="#CFCAC1"/>
<path d="M51.0122 34.2752C49.6288 34.6462 48.9775 35.2067 48.419 33.472C48.2197 33.1345 47.9395 32.8188 48.1151 32.3767C48.4052 32.0708 48.5591 32.3787 48.7151 32.5326C49.0052 32.8188 49.2814 33.1187 49.6347 33.3319C50.3037 33.9831 50.9727 33.8529 51.6417 33.3319C51.9377 33.1266 52.1528 32.7911 52.5594 32.7694C52.6541 32.7852 52.733 32.8286 52.7942 32.9017C52.3147 33.5095 51.7404 33.991 51.0122 34.2772V34.2752Z" fill="#BDBBB6"/>
<path d="M34.8396 36.815C34.658 36.3789 34.962 36.4381 35.2244 36.4203C36.89 36.3079 38.53 36.0257 40.1522 35.6369C40.2923 35.5303 40.4324 35.5125 40.5745 35.6329C40.2509 36.4874 39.4378 36.3552 38.7747 36.523C38.5063 36.523 38.2379 36.5131 37.9695 36.523C37.8393 36.5368 38.0504 36.7065 37.9794 36.596C37.9537 36.5565 37.9814 36.521 38.0524 36.5387C38.305 36.598 38.6918 36.3236 38.7747 36.819C37.5255 36.8742 36.2763 36.9295 35.0271 36.9867C34.9422 36.9552 34.881 36.8979 34.8416 36.819L34.8396 36.815Z" fill="#E6DDCA"/>
<path d="M46.8422 36.0257C46.4258 35.8184 46.2068 35.5836 46.5087 35.0784C46.7199 34.7251 46.862 34.3068 46.8442 33.8667C47.1323 33.6555 47.2882 33.8469 47.4343 34.064C47.5882 35.1139 48.2355 35.4218 49.2064 35.2461C48.4703 35.6665 47.679 35.9132 46.8422 36.0257Z" fill="#C8C6C1"/>
<path d="M12.9913 37.9932C13.0565 37.9281 13.1216 37.8649 13.1867 37.7998C13.5775 37.4169 14.13 37.6143 14.5701 37.413C14.7339 37.3696 14.9017 37.3518 15.0694 37.336C16.0976 37.3854 17.106 37.5728 18.1066 37.7998C18.4046 38.2083 18.9631 37.7939 19.2729 38.1649C17.179 38.1313 15.0753 38.4017 12.9913 37.9912V37.9932Z" fill="#DAD4CB"/>
<path d="M38.7727 36.817C38.5241 36.4795 38.1096 36.7085 37.8037 36.4243H38.7727C39.8364 36.2565 40.8843 36.0138 41.9165 35.7119C42.0132 35.6961 42.1118 35.7 42.2066 35.7237C42.2954 35.7573 42.3644 35.8165 42.4177 35.8934C42.5065 36.3828 43.2999 36.0237 43.2999 36.6197C41.804 36.9986 40.2824 36.7578 38.7727 36.817Z" fill="#DDD7CC"/>
<path d="M43.2999 36.6197C43.1183 36.3631 42.842 36.4204 42.5953 36.4302C42.2717 36.4421 42.1888 36.3197 42.3171 36.0335C43.142 35.8283 43.7676 35.0093 44.7365 35.2442C44.8569 35.4553 44.8332 35.6527 44.6793 35.8362C44.4603 36.1263 44.7543 36.2467 44.8747 36.4243C44.3774 36.7144 43.8307 36.6039 43.2999 36.6216L43.2999 36.6197Z" fill="#D6D1C7"/>
<path d="M20.8714 39.3904C20.9345 39.5818 20.9977 39.7752 21.0608 39.9667C21.2069 40.1246 21.2779 40.3337 21.1753 40.5035C20.6681 41.3363 20.5063 42.3111 20.0524 43.1657C19.6834 42.7986 19.6518 42.3723 19.8077 41.9007C20.0958 41.0343 20.378 40.168 20.8714 39.3904Z" fill="#FBE05D"/>
<path d="M20.0504 43.1657C20.0248 42.2855 20.3228 41.4981 20.7826 40.7738C20.9464 40.5153 21.0885 40.2785 21.0589 39.9667C21.2562 39.7693 21.4516 39.572 21.6489 39.3746C22.018 39.8384 21.6312 40.2291 21.5246 40.6455C21.2562 41.5553 20.605 42.3467 20.6662 43.361C20.5181 43.4163 20.3761 43.4123 20.2379 43.3295C20.1748 43.2742 20.1116 43.2209 20.0485 43.1657H20.0504Z" fill="#FBE23F"/>
<path d="M23.0126 47.0356C23.0422 48.2631 22.6159 49.4058 22.3416 50.5741C22.1226 51.5016 22.0101 52.4331 22.0259 53.3843C21.6687 52.9896 21.7831 52.5041 21.8443 52.0719C22.087 50.3609 22.4462 48.6716 23.0146 47.0356H23.0126Z" fill="#FCE662"/>
<path d="M56.0938 26.1899C56.157 26.1899 56.2221 26.1899 56.2853 26.1899C56.1412 27.7667 55.6163 29.2093 54.7361 30.5236C54.6631 30.5947 54.5841 30.5986 54.5013 30.5473C54.3868 30.3125 54.5013 30.1052 54.5822 29.8941C54.6552 29.7283 54.7341 29.5665 54.8091 29.4007C55.0795 28.9626 55.0301 28.412 55.3124 27.9778C55.7169 27.443 55.4091 26.5984 56.0958 26.1879L56.0938 26.1899Z" fill="#C2C2C1"/>
<path d="M53.556 16.735C53.4178 16.6719 53.2817 16.6087 53.1435 16.5456C52.6403 16.4074 52.3956 15.9476 52.0226 15.6496C51.6614 15.1168 50.9312 14.8977 50.7832 14.1853C50.7832 14.1162 50.7832 14.0491 50.7852 13.98C51.916 14.6905 52.8692 15.5786 53.5579 16.735H53.556Z" fill="#D8D8D8"/>
<path d="M0.195373 23.4349C0.481526 24.2046 0.376932 25.0058 0.394694 25.7972C0.453898 26.2747 0.311808 26.7227 0.1934 27.1747C-0.0355224 27.0306 0.0059204 26.7997 0 26.5826C0.161824 25.7301 0.161824 24.8795 0 24.027C0.0059204 23.8099 -0.0355224 23.577 0.195373 23.4349Z" fill="#F9FAFA"/>
<path d="M52.7942 32.8997C52.7133 32.8938 52.6324 32.8878 52.5534 32.8819C52.4114 32.58 52.664 32.4103 52.7784 32.1912C52.8554 32.0846 52.9422 31.9879 53.033 31.8912C53.3113 31.6011 53.5086 31.2282 53.8954 31.0486C53.9901 31.0288 54.0789 31.0446 54.1638 31.09C54.2112 31.1788 54.2052 31.2637 54.148 31.3466C53.8836 32.0254 53.3113 32.4399 52.7942 32.8997Z" fill="#B5B5B4"/>
<path d="M0 24.027C0.319702 24.8795 0.321675 25.732 0 26.5826C0 25.7301 0 24.8775 0 24.027Z" fill="#F2F3F3"/>
<path d="M34.8396 36.815C34.9028 36.8723 34.9639 36.9275 35.0251 36.9848C34.2397 36.9946 33.4562 37.0045 32.6708 37.0144C33.3595 36.592 34.1193 36.9236 34.8376 36.815L34.8396 36.815Z" fill="#DFD8CD"/>
<path d="M23.4053 45.2477C23.4586 45.8871 23.3876 46.5008 23.0067 47.0435C23.0027 46.414 23.1468 45.818 23.4053 45.2477Z" fill="#FCE662"/>
<path d="M54.146 31.3485C54.1381 31.2696 54.1322 31.1907 54.1243 31.1117C53.9368 30.8552 53.9388 30.6282 54.2289 30.4486C54.3394 30.421 54.4361 30.4447 54.519 30.5217C54.5901 30.5217 54.6611 30.5256 54.7341 30.5276C54.6651 30.8927 54.4342 31.1413 54.1441 31.3485H54.146Z" fill="#BBBBBA"/>
<path d="M20.2399 43.3295C20.382 43.3216 20.5241 43.3156 20.6662 43.3077C20.9385 43.1578 21.2128 43.2781 21.4851 43.3038C21.6253 43.3373 21.7516 43.3946 21.8364 43.5189C21.8423 43.5761 21.8483 43.6334 21.8522 43.6906C21.276 43.738 20.7076 43.7538 20.2399 43.3295Z" fill="#FBE05D"/>
<path d="M24.9959 0.408506C24.7335 0.684791 24.471 0.686765 24.2085 0.408506C24.471 0.0493345 24.7335 0.307859 24.9959 0.408506Z" fill="#F4F5F4"/>
<path d="M10.4298 37.6084C10.7455 37.2867 10.935 37.3814 11.0238 37.7919C10.8047 37.7998 10.5778 37.8314 10.4298 37.6084Z" fill="#DEDCD8"/>
<path d="M34.4449 2.37803C34.4449 2.3129 34.4449 2.24778 34.4449 2.18068C34.6422 2.31093 34.8396 2.4392 35.0369 2.56945C34.7547 2.7668 34.6087 2.54775 34.4449 2.37605V2.37803Z" fill="#DEDFDE"/>
<path d="M30.5098 0.801226C30.573 0.670977 30.6381 0.542701 30.7012 0.412453C30.865 0.412453 31.0111 0.446001 31.0979 0.605852C30.9558 0.836748 30.7249 0.795305 30.5098 0.801226Z" fill="#EEF0EF"/>
<path d="M30.3105 0.406532C30.2158 0.566383 30.0697 0.649269 29.9079 0.556516C29.7579 0.469683 29.8921 0.33154 29.9138 0.215106C30.0776 0.215106 30.2237 0.248655 30.3125 0.406532H30.3105Z" fill="#F0F1F1"/>
<path d="M23.6185 8.47802C23.1152 10.0173 22.1265 11.2409 21.0589 12.4151C20.1017 12.3993 19.3558 12.5315 19.1505 13.7551C19.0538 14.3274 18.2625 14.4892 17.6369 14.3511C16.6541 14.134 15.77 14.4201 14.8563 14.726C13.2676 15.2569 11.6553 15.7009 10.5462 17.1021C10.266 17.4573 10.0765 17.8994 9.64434 18.1224C9.57921 18.1224 9.51211 18.1224 9.44699 18.1224C9.00691 18.1697 8.80956 17.9724 8.85692 17.5323C8.06754 17.0192 8.24712 16.5811 8.77601 15.8923C9.94036 14.3708 11.6494 13.9722 13.2972 13.4216C13.9702 13.1966 14.7023 13.1393 15.3536 12.871C15.8272 12.6776 16.1607 12.796 16.5337 13.0052C17.0685 12.8887 17.3073 13.4077 17.7178 13.5617C17.9408 13.6446 18.1559 13.7235 18.3513 13.5281C18.5506 13.3288 18.4776 13.1157 18.3592 12.9045C18.1559 12.5374 17.8027 12.2612 17.7158 11.825C17.1968 11.154 17.5362 10.9074 18.2092 10.8501C18.3651 10.8363 18.5348 10.8837 18.6848 10.9409C19.3696 11.2053 20.0386 12.0835 20.7885 11.3593C21.9726 10.2147 23.2356 9.05032 23.3422 7.23078C23.3599 6.93279 23.1389 6.62098 23.0304 6.31509C23.5178 6.27365 23.7724 6.56178 23.7369 6.9841C23.6935 7.48141 23.8355 7.99846 23.6204 8.47999L23.6185 8.47802Z" fill="#EAEBEB"/>
<path d="M9.64434 18.1224C10.4416 16.4863 11.6612 15.3694 13.4748 14.953C13.8853 14.8582 14.278 14.6806 14.6727 14.5287C15.6851 14.1399 16.6679 13.8103 17.8066 14.1419C18.7302 14.4103 19.261 13.8182 19.1367 12.8631C19.0459 12.1585 19.4288 11.827 20.0445 12.1506C20.382 12.3283 20.6918 12.4348 21.0608 12.4151C20.2419 12.9361 19.5294 13.5755 18.8565 14.2741C18.5486 14.5918 18.0474 14.4833 17.6606 14.6116C15.7266 15.2529 13.6899 15.6358 11.9691 16.8396C11.2803 17.3211 10.6942 17.8599 10.3725 18.6453C10.1259 19.2453 9.64236 19.6617 9.1707 20.0504C8.49775 20.605 8.4346 21.5878 7.67679 22.0594C7.82283 21.6983 7.95505 21.3332 8.11885 20.9799C8.26488 20.6662 8.33395 20.3721 8.11885 20.0583C7.98465 19.859 7.61167 19.7071 7.81493 19.4248C7.98662 19.1841 8.28659 19.3755 8.5392 19.4248C9.4312 19.6005 9.90681 19.0321 9.64434 18.1243V18.1224Z" fill="#E7E8E8"/>
<path d="M17.7138 9.46278C17.3547 9.45883 16.9521 9.38384 17.2205 8.92797C17.9842 7.62548 18.6078 6.23221 19.6301 5.09352C19.7722 4.93564 19.9261 4.6929 20.1945 4.83105C20.5399 5.00866 20.23 5.29481 20.2715 5.52571C19.4702 6.87161 18.8111 8.31027 17.7119 9.46278L17.7138 9.46278Z" fill="#F0F1F2"/>
<path d="M17.7138 11.823C18.2092 12.0243 18.3197 12.569 18.6769 12.8966C19.0144 13.2064 18.7677 13.5005 18.5841 13.7551C18.3848 14.0333 18.0671 14.0669 17.7987 13.9011C17.3586 13.6307 16.9541 13.3051 16.5337 13.0032C16.6817 12.3638 16.9067 11.8013 17.7138 11.823Z" fill="#EFF0EF"/>
<path d="M8.85692 17.5303C8.9852 17.7948 9.18254 17.9921 9.44699 18.1204C9.43515 18.5328 9.52593 19.0519 8.92007 19.0755C8.39118 19.0972 7.88006 18.8545 7.58404 18.4243C7.31762 18.0375 7.67087 17.7415 8.00241 17.6073C8.25699 17.5047 8.57077 17.55 8.8589 17.5283L8.85692 17.5303Z" fill="#EFF0EF"/>
<path d="M24.0132 4.14823C24.2776 4.2765 24.4749 4.47385 24.6032 4.73829C24.5361 5.06589 24.7848 5.64017 24.1513 5.5632C23.579 5.49413 23.0422 5.18825 22.7738 4.63765C22.683 4.45017 22.8784 4.19954 23.1429 4.17191C23.431 4.14231 23.7231 4.15415 24.0132 4.14823Z" fill="#EFF0EF"/>
<path d="M23.6185 8.47802C23.4941 7.73599 23.9914 6.82622 23.0284 6.31312C22.9948 6.19077 22.9692 6.06446 22.9218 5.94606C22.8488 5.76252 22.5212 5.60267 22.8232 5.39151C22.9988 5.26718 23.1922 5.40927 23.3363 5.54742C23.7803 5.97566 24.2598 6.09209 24.7986 5.72305H24.9959C24.321 6.53415 23.7388 7.39064 23.6185 8.47802Z" fill="#E8EAEA"/>
<path d="M21.4536 4.34557C21.0273 3.61934 21.7476 3.3845 22.0436 2.96809C22.3949 2.94046 22.7501 3.01743 22.8666 3.35884C22.9988 3.74564 22.5587 3.87391 22.3653 4.11073C22.1265 4.4028 21.7772 4.34163 21.4536 4.34755V4.34557Z" fill="#F1F2F2"/>
<path d="M15.3516 12.2177C15.3417 11.6474 15.5805 11.1994 16.0522 10.8916C16.4666 10.6212 16.5594 10.856 16.5317 11.233C16.1509 11.5764 16.4193 12.6973 15.3516 12.2177Z" fill="#F2F3F2"/>
<path d="M6.29734 29.5369C5.70135 29.8862 5.48821 29.7599 5.55926 29.0376C5.64609 28.1555 6.16314 27.4707 6.48876 26.6971C7.87611 23.4093 10.043 20.7372 12.7229 18.3927C13.9129 17.3527 15.2569 17.1159 16.66 16.956C18.7065 16.7232 20.2458 15.5391 21.8739 14.4675C23.9914 13.0742 24.8736 10.8047 26.0241 8.73654C26.8372 7.2742 27.6246 5.81186 28.9922 4.78368C30.05 3.98838 30.4447 2.79838 30.9578 1.67153C31.1354 1.27881 31.3071 0.830828 31.8833 1.19789C31.9761 2.62471 31.2262 3.74169 30.3519 4.68698C28.7751 6.39206 27.5042 8.27672 26.5925 10.3903C25.4913 12.94 23.4803 14.5721 21.3194 16.1647C19.6932 17.3645 17.8895 17.7533 16.0127 17.8599C14.4359 17.9507 13.2814 18.7026 12.2296 19.6913C11.2093 20.6523 10.2502 21.6845 9.44699 22.8449C8.03399 24.5184 7.23868 26.5333 6.32694 28.485C6.15722 28.8482 6.23221 29.1836 6.29734 29.5369Z" fill="#E1E3E3"/>
<path d="M7.47944 30.127C7.41432 30.127 7.34919 30.127 7.2821 30.127C7.21697 29.9967 7.14987 29.8645 7.08475 29.7342C6.8874 28.1791 7.53865 26.8964 8.3379 25.6353C9.83182 23.2751 11.4816 21.0628 13.832 19.4643C14.5622 18.967 15.3832 18.7598 16.2298 18.7262C17.4849 18.6769 18.671 18.4125 19.8472 17.9743C20.7806 17.627 21.7437 17.4119 22.6791 16.9935C24.1927 16.3166 25.2979 15.1858 26.5017 14.1734C28.0311 12.8335 28.0134 10.5127 29.1935 8.94178C30.2394 7.4676 30.7525 5.63425 32.2859 4.4778C32.9214 3.99824 32.6214 3.19899 32.6727 2.53196C32.73 1.75441 32.8286 1.68534 33.4601 1.98531C33.6101 3.39634 33.2628 4.56068 32.4399 5.81975C31.2163 7.69257 29.7402 9.45685 29.0297 11.6454C27.0977 17.9151 21.3667 18.9275 15.622 19.6064C14.8306 19.6853 14.1063 19.9557 13.4946 20.5102C11.2705 22.5212 9.27135 24.7019 8.04188 27.4904C7.94715 27.7055 7.94123 27.9364 7.88203 28.1555C7.58996 28.781 7.54654 29.456 7.47747 30.127H7.47944Z" fill="#DEE0DF"/>
<path d="M9.44699 22.8449C10.1574 21.2148 11.529 20.1392 12.7427 18.9354C13.8103 17.8757 15.2016 17.5816 16.6028 17.5599C19.0913 17.5204 20.899 16.1745 22.7699 14.7813C24.7157 13.3347 25.8899 11.4027 26.8727 9.27332C27.67 7.54457 28.7613 6.00921 30.0993 4.63567C31.0269 3.68249 31.5123 2.45894 31.8853 1.19592C31.9504 1.19592 32.0175 1.19592 32.0827 1.19592C32.2208 2.52209 31.8676 3.6292 30.9302 4.64949C29.3474 6.37035 27.9364 8.25107 27.1589 10.491C26.4168 12.6302 24.921 14.0748 23.1823 15.4148C21.0983 17.0212 18.7973 17.9862 16.1864 18.0908C14.4024 18.1618 13.1986 19.2018 11.9454 20.2399C11.01 21.0135 10.4673 22.1601 9.44502 22.8468L9.44699 22.8449Z" fill="#E1E2E2"/>
<path d="M7.08475 30.717C5.82765 31.7393 5.19811 32.803 3.93509 31.1117C3.96075 30.3401 4.71461 30.4467 5.1172 30.127C5.8237 30.0184 7.17158 29.5053 7.08475 30.717Z" fill="#EBEBE9"/>
<path d="M6.29734 29.5369C5.84936 29.308 5.79607 28.9291 6.01908 28.5482C6.96239 26.924 7.53865 25.1005 8.68129 23.5829C8.89837 23.2948 9.12137 23.0166 9.44699 22.8449C9.40357 23.2553 9.16873 23.5573 8.92205 23.873C7.77349 25.3374 7.21895 27.0898 6.5677 28.7949C6.45719 29.083 6.58349 29.302 6.69006 29.5369L6.29734 29.5369Z" fill="#E1E2E2"/>
<path d="M24.2184 43.9175C24.3644 43.8899 24.5914 43.9077 24.6387 43.8248C24.7256 43.6649 24.5401 43.5801 24.4078 43.511C22.7561 42.6447 22.0752 41.208 21.9943 39.4141C22.0219 38.8536 22.2272 38.3622 22.5883 37.934C22.7896 37.7445 22.9337 37.486 23.2257 37.4071C23.4724 37.6005 23.5869 37.8689 23.6106 38.1708C23.7605 40.1048 24.6249 41.6954 25.8761 43.1361C26.3754 43.7103 26.8313 44.3537 26.7859 45.224C26.7523 45.8555 27.149 45.9443 27.6167 45.6305C28.0469 45.3424 28.4752 45.0306 28.8422 44.6675C30.2019 43.3216 31.6821 42.0881 32.8069 40.5173C33.2569 39.8897 33.6338 39.2602 33.1128 38.4767C32.8444 38.0721 33.0832 37.9695 33.4601 37.9991C34.2022 39.1516 34.2337 39.8127 33.3181 40.9356C31.1966 43.5327 29.1185 46.1712 26.8214 48.6203C26.4168 49.0505 25.9235 49.3801 25.4617 49.7413C25.0808 50.0392 24.6762 50.0314 24.2776 49.7728C23.879 49.5163 23.8671 49.165 24.0033 48.7427C24.2006 48.1289 24.1789 47.4639 24.4078 46.8521C24.4078 46.5896 24.4098 46.3252 24.4118 46.0627C24.8341 45.3128 23.8375 44.6793 24.2223 43.9156L24.2184 43.9175Z" fill="#FCE906"/>
<path d="M24.8006 33.8667C25.8978 33.0556 26.9931 32.2149 28.3824 31.9978C29.3099 31.8537 30.2612 31.7886 31.2005 31.7926C32.1715 31.7965 32.6037 32.503 32.1813 33.397C31.6189 34.587 31.4551 35.8954 30.9756 37.1071C30.3401 38.9523 33.4996 38.4491 32.0452 40.4581C30.4605 42.7887 27.7272 42.3743 26.2767 40.9593C24.5322 39.2562 23.875 37.2709 24.542 34.8889C24.5598 34.8278 24.4552 34.733 24.4079 34.6521C24.2204 34.2298 24.2835 33.9338 24.8006 33.8647V33.8667Z" fill="#FDEE0A"/>
<path d="M24.4059 46.8541C24.5006 47.454 24.2559 48.0145 24.1631 48.5887C24.0921 49.0328 23.9441 49.3762 24.471 49.6544C24.9841 49.9248 25.2347 49.6248 25.5702 49.3426C27.6009 47.6356 29.235 45.5654 30.8828 43.511C32.1794 41.8572 34.4883 40.3712 33.4601 37.9991C33.5253 37.9991 33.5904 37.9991 33.6555 37.9991C34.435 38.8497 34.514 39.5226 33.8134 40.4877C32.9431 41.6836 32.0175 42.84 31.09 43.9925C30.8631 44.2747 30.6598 44.5589 30.5078 44.8845C28.9172 46.8363 27.3266 48.79 25.732 50.7398C25.2683 51.3062 24.5993 51.6062 24.027 52.0305C23.8869 52.1351 23.7231 52.1844 23.575 52.0838C23.4191 51.9792 23.4251 51.7996 23.4961 51.6456C23.6836 51.2391 23.6007 50.8128 23.6185 50.3925C23.7684 49.1867 23.8809 47.973 24.4078 46.8521L24.4059 46.8541Z" fill="#FBE607"/>
<path d="M22.8251 37.9971C22.4758 38.3899 22.241 38.8319 22.239 39.3727C21.9864 39.793 22.1068 40.4265 21.5088 40.6515C21.4121 40.6574 21.3273 40.6238 21.2562 40.5587C21.424 40.1759 21.7022 39.8305 21.6489 39.3746C21.8581 38.7885 21.8246 38.1215 22.239 37.6044C23.0679 35.627 23.8632 33.6358 24.7473 31.6821C24.9091 31.3249 25.0611 30.9637 25.3887 30.719C25.4518 30.717 25.5169 30.7151 25.5801 30.7111C25.6492 30.644 25.7163 30.646 25.7834 30.717C25.7163 30.9124 25.6492 31.1078 25.5821 31.3012C25.0453 32.7675 24.4019 34.1903 23.8099 35.6349C23.6106 36.0928 23.4034 36.5486 23.2178 37.0124C23.0402 37.3222 22.9929 37.6834 22.8192 37.9952L22.8251 37.9971Z" fill="#FCE73A"/>
<path d="M25.7853 30.719C25.7182 30.719 25.6511 30.7151 25.5821 30.7131C25.586 30.6539 25.588 30.5947 25.588 30.5355C25.9215 30.1684 26.3695 30.2513 26.7839 30.2493C28.8442 30.2394 30.9025 30.2394 32.9628 30.2473C33.3082 30.3046 33.772 30.1546 33.8213 30.7348C31.1433 30.6933 28.4633 30.7269 25.7853 30.721V30.719Z" fill="#FCE94A"/>
<path d="M23.8138 35.6369C24.2125 34.1134 24.8677 32.6964 25.586 31.3031C25.5663 32.2326 24.9308 32.9707 24.8006 33.8667C24.544 34.066 24.4394 34.3423 24.4078 34.6541C24.2085 34.9797 24.1355 35.3823 23.8158 35.6369H23.8138Z" fill="#FCEB0B"/>
<path d="M23.2218 37.0144C23.2277 36.4717 23.4547 36.0257 23.8138 35.6369C23.8138 36.1816 23.5849 36.6276 23.2218 37.0144Z" fill="#FDEE0A"/>
<path d="M22.8251 37.9971C22.8212 37.6143 22.912 37.2689 23.2238 37.0124C23.2238 37.1446 23.2238 37.2768 23.2238 37.4071C23.0896 37.6044 22.9574 37.7998 22.8232 37.9971H22.8251Z" fill="#FDEE0A"/>
<path d="M40.1522 11.6277C40.5271 11.3691 40.8745 11.0554 41.3501 11.4954C41.6066 11.7323 41.9757 11.6336 42.2954 11.6237C43.9866 11.5665 45.3937 12.3125 46.7751 13.1591C47.2488 13.4492 47.4343 13.8577 47.4303 14.3767C47.4244 15.1069 47.3691 15.841 47.6316 16.5475C47.4974 16.6146 47.377 16.5633 47.2547 16.5081C46.6547 16.3127 46.2995 16.4567 46.3489 17.1632C46.337 17.2106 46.3252 17.256 46.3133 17.3034C46.2522 17.3882 46.1712 17.4376 46.0686 17.4573C45.4194 17.327 44.8056 17.4139 44.1524 17.5639C41.4783 18.1776 40.9297 17.7809 40.1541 15.3674C39.8147 14.3116 39.5739 13.2834 38.7194 12.5197C38.7925 12.271 39.0194 12.2414 39.1832 12.3144C39.9233 12.648 40.1147 12.2572 40.1502 11.6277H40.1522Z" fill="#DEDFDF"/>
<path d="M7.67481 28.1594C7.62153 27.2832 8.14647 26.5787 8.54709 25.9215C9.89299 23.7132 11.5843 21.7831 13.5972 20.1294C14.7694 19.1663 16.1805 19.3716 17.4948 19.117C20.8576 18.4618 24.2302 17.9053 26.7977 15.2746C27.7134 14.3372 28.0943 13.1413 28.5581 12.0362C29.2863 10.2995 30.3026 8.77404 31.2538 7.18145C31.8123 6.248 32.5188 5.41914 33.0181 4.45017C33.4266 3.65881 33.0122 2.75101 33.4582 1.98728C33.6555 2.0524 33.8529 2.1195 34.0502 2.18463C33.991 3.15163 34.1213 4.11863 33.9377 5.08957C33.7719 5.95592 34.6719 6.29536 35.035 6.90714C34.6166 7.24657 34.3462 6.65058 33.92 6.7532C33.6535 7.21697 34.5041 7.65508 34.0127 8.13858C33.9792 8.13858 33.9397 8.15239 33.914 8.13858C32.7043 7.50115 32.7319 7.5268 31.688 8.52143C30.8571 9.31279 30.3085 10.2561 29.9276 11.3159C29.7402 11.8408 29.5093 12.348 29.3376 12.8769C27.9818 17.0448 24.7927 18.6493 20.7431 19.1979C18.9374 19.4426 17.1494 19.8255 15.3358 20.0741C13.7906 20.2853 12.7308 21.5029 11.7796 22.6929C10.4969 24.2993 9.06808 25.8031 8.2412 27.7331C8.14647 27.9542 8.02412 28.2344 7.67481 28.1634V28.1594Z" fill="#DEDFDE"/>
<path d="M34.0502 8.08332C34.0246 7.74389 33.8608 7.46365 33.6595 7.20513C33.4522 6.93871 33.3851 6.67229 33.6752 6.43745C34.2239 6.01513 34.4883 6.95055 35.035 6.90121C36.5644 8.45828 38.3267 9.77064 39.7594 11.4283C39.9015 11.6967 40.2252 11.9296 39.9627 12.2848C39.7022 12.6381 39.4023 12.3697 39.0983 12.3539C38.2142 12.3085 37.6794 11.6474 36.9907 11.2646C35.8776 10.3272 34.6501 9.49435 34.0502 8.08135V8.08332Z" fill="#E6E7E7"/>
<path d="M48.8118 17.3349C48.3006 16.1982 48.8552 15.1148 49.013 14.0195C49.0999 13.4137 49.4334 13.1019 50.0175 13.682C50.1952 13.8577 50.4833 13.9149 50.5839 14.1873C50.8721 14.5938 50.9273 15.0536 50.7221 15.4858C50.2445 16.4942 49.8676 17.5224 49.8005 18.6473C49.7886 18.8446 49.6663 19.0104 49.5163 19.1446C49.2795 19.3104 49.0229 19.3321 48.7545 19.2453C48.6637 19.2038 48.6026 19.1308 48.571 19.0361C48.796 18.669 49.3742 18.3947 48.8848 17.8401C48.8078 17.6803 48.7052 17.5224 48.8118 17.3349Z" fill="#D8D8D8"/>
<path d="M49.4038 19.1051C49.7195 18.2072 49.54 17.2007 49.9998 16.3344C50.357 15.6614 50.7655 15.0043 50.5839 14.1853C50.6491 14.1853 50.7162 14.1853 50.7813 14.1853C51.2667 14.6175 51.8134 14.9905 52.1588 15.5628C51.6101 16.8495 50.5484 17.8046 49.909 19.0341C49.8182 19.2097 49.5972 19.2551 49.4038 19.1051Z" fill="#D4D5D4"/>
<path d="M48.8118 17.3349C48.8769 17.4652 48.942 17.5974 49.0091 17.7277C49.3426 18.521 48.9716 18.7558 48.2375 18.7045C47.4224 18.3789 46.6252 18.0276 46.2541 17.1356C46.1831 16.1745 46.7554 16.1844 47.4343 16.3502C47.4994 16.4153 47.5665 16.4804 47.6316 16.5456C48.0243 16.808 48.419 17.0705 48.8118 17.333V17.3349Z" fill="#E6E6E6"/>
<path d="M37.0025 11.0356C37.7386 11.2271 38.1234 12.0164 38.8832 12.1546C39.1793 12.2079 39.4694 12.5276 39.7851 12.2414C40.0792 11.975 39.7141 11.7027 39.7594 11.4283C39.8897 11.4935 40.0219 11.5606 40.1522 11.6257C40.3179 11.975 40.5232 12.3717 40.2114 12.6874C39.945 12.9578 39.6253 12.5966 39.3213 12.5651C39.1358 12.5453 38.9562 12.4644 38.7747 12.4111C38.0781 12.6776 37.7722 12.0579 37.3183 11.7717C37.1466 11.5547 36.8742 11.379 37.0045 11.0317L37.0025 11.0356Z" fill="#E2E3E3"/>
<path d="M5.10339 18.9335C5.10339 18.965 5.11325 19.0104 5.09549 19.0282C4.12455 20.0919 4.20743 21.8562 2.73325 22.5883C2.59314 22.6574 2.47473 22.8409 2.30698 22.7363C2.10964 22.612 2.15897 22.391 2.20831 22.2055C2.57538 20.8655 3.33911 19.7327 4.13639 18.6236C4.27058 18.4361 4.45806 18.294 4.72448 18.4243C4.93762 18.5309 5.1251 18.6512 5.10339 18.9315V18.9335Z" fill="#F1F2F2"/>
<path d="M56.0938 24.025C56.0938 24.6151 56.0938 25.2051 56.0938 25.7972C55.8136 25.9353 55.5689 25.8031 55.3656 25.6511C54.7223 25.1617 54.0868 24.7552 53.2303 25.1775C53.031 25.2762 52.7488 25.1736 52.5988 24.9959C51.8608 24.1256 50.9372 24.3704 50.061 24.6052C48.9341 24.9071 47.7619 25.1282 46.8383 25.9412C46.6686 26.0892 46.4357 26.1563 46.2048 26.1958C45.9364 26.2313 45.6779 26.2155 45.4509 26.0478C45.3483 25.9077 45.3306 25.7538 45.372 25.59C45.889 24.7572 46.7791 24.4138 47.5921 24.0408C49.2854 23.2652 51.0181 22.5745 52.8731 22.2528C53.8027 22.091 54.6059 22.3574 55.3992 22.8074C55.9004 23.0915 55.9419 23.577 56.0978 24.027L56.0938 24.025Z" fill="#C2C2C1"/>
<path d="M56.0938 24.025C55.2808 22.5449 54.002 22.1009 51.8608 22.7265C49.6031 23.3856 47.3869 24.173 45.4648 25.5998C45.2023 25.7952 44.9398 25.8386 44.6773 25.5998C44.8688 24.8756 45.4312 24.4789 46.0272 24.1473C48.1013 22.9948 50.3826 22.2903 52.4863 21.1812C53.2678 20.7688 54.3256 21.1911 55.2314 20.8556C55.4643 20.7688 55.6419 21.0312 55.7209 21.3371C55.9518 22.2212 56.1767 23.1014 56.0938 24.027L56.0938 24.025Z" fill="#C5C5C5"/>
<path d="M46.2541 25.9945C47.7382 24.9387 49.3939 24.4 51.1957 24.1454C51.843 24.0546 52.1943 24.2618 52.5436 24.6466C52.7607 24.8854 53.0488 25.1538 53.2817 24.9663C54.2112 24.2125 54.7618 24.992 55.413 25.4084C55.634 25.5485 55.8669 25.6689 56.0938 25.7991C56.0938 25.9294 56.0938 26.0616 56.0938 26.1919C55.7682 26.8076 55.9419 27.5753 55.5018 28.1574C54.5269 26.3497 51.9654 25.144 49.907 25.5604C49.019 25.7399 48.0974 25.8564 47.3672 26.4859C46.8738 26.6339 46.6528 27.3898 45.968 27.1194C45.745 26.6635 45.9068 26.3063 46.2522 25.9945H46.2541Z" fill="#BEBDBD"/>
<path d="M44.482 23.4349C44.8056 22.833 45.4075 22.6337 45.9936 22.4502C47.2152 22.0693 48.3223 21.497 49.3426 20.7194C50.6984 19.6873 52.2929 19.0144 53.4612 17.6763C53.9783 17.0843 54.1263 17.9546 54.3236 18.3177C53.5777 19.19 52.8455 20.1017 51.6733 20.4017C51.1266 20.5418 50.6352 20.7411 50.1912 21.0727C48.9124 21.9371 47.4303 22.3732 46.0588 23.0402C45.5437 23.21 45.1233 23.7586 44.4839 23.433L44.482 23.4349Z" fill="#CDCDCC"/>
<path d="M43.8919 25.2071C44.0892 25.3393 44.2846 25.4696 44.482 25.6018C44.4484 26.2886 44.3853 26.9714 44.1366 27.6226C43.7735 27.9246 43.4104 27.9088 43.0433 27.6305C42.7552 27.2694 42.544 26.8767 42.542 26.3971C42.619 25.9432 42.7374 25.511 43.1814 25.2643C43.4123 25.1736 43.6432 25.0709 43.8939 25.2071H43.8919Z" fill="#CECAC2"/>
<path d="M43.8919 25.2071C43.6945 25.2722 43.4972 25.3393 43.3018 25.4044C42.8539 25.1538 42.8341 24.8164 43.1045 24.4197C43.4242 23.8967 43.8544 23.5277 44.482 23.4349C45.0069 23.3047 45.5319 23.1725 46.0568 23.0422C45.3483 23.7763 44.3044 24.175 43.8919 25.2071Z" fill="#CCCDCB"/>
<path d="M44.0892 27.5674C44.0952 26.8865 44.0281 26.1919 44.482 25.5998C44.8096 25.5998 45.1391 25.5998 45.4667 25.5998V25.9945C45.518 26.6201 44.9201 27.0207 44.9003 27.6207C44.8392 27.8062 44.7563 27.9739 44.557 28.0489C44.3418 28.0864 44.18 27.9976 44.0517 27.8318C44.0083 27.7371 44.0221 27.6483 44.0892 27.5693V27.5674Z" fill="#C9C5BF"/>
<path d="M46.0568 23.0422C46.193 22.6219 46.6232 22.5863 46.9271 22.4896C48.0658 22.1285 49.017 21.345 50.1892 21.0747C50.0906 21.2029 50.0195 21.3805 49.8893 21.4536C48.6736 22.1305 47.4481 22.7896 46.0568 23.0422Z" fill="#CCCDCB"/>
<path d="M49.4038 19.1051C50.132 18.671 50.3155 17.8263 50.8089 17.2106C51.2529 16.6561 51.6516 16.066 52.1588 15.5628C52.5633 15.8154 52.8909 16.143 53.1435 16.5475C52.5988 16.7962 52.214 17.1968 51.8904 17.704C51.3042 18.6236 50.4418 19.2413 49.4985 19.7722C47.5606 20.8635 45.6641 22.0259 43.6215 22.9258C43.0709 23.1685 42.6683 23.7033 42.319 24.2223C42.2519 24.3033 42.1671 24.3565 42.0645 24.3861C41.6836 24.4473 41.356 24.3486 41.1014 24.0467C41.5158 22.76 42.546 22.0555 43.6748 21.5503C45.2812 20.8299 46.8541 20.0642 48.3361 19.113C48.421 19.0597 48.5217 19.0657 48.6164 19.1032H49.4038V19.1051Z" fill="#D2D2D2"/>
<path d="M42.1197 24.2223C42.1848 24.2223 42.2519 24.2223 42.3171 24.2223C42.5795 24.2875 42.842 24.3526 43.1045 24.4197C43.0828 24.765 43.1144 25.1005 43.3018 25.4044C42.846 25.5761 42.9367 26.0774 42.7118 26.3892C42.3467 26.5274 42.0506 26.4267 41.8059 26.1327C41.577 25.4419 41.5336 24.7808 42.1217 24.2243L42.1197 24.2223Z" fill="#D2CFC9"/>
<path d="M33.8233 30.7328C33.6437 30.4348 33.324 30.5611 33.0714 30.4842C32.9924 30.4269 32.9056 30.3815 32.8128 30.35C32.1241 30.2592 31.4216 30.4111 30.7348 30.2552C30.3046 29.6612 29.7658 29.1442 29.454 28.4633C29.5882 28.1851 29.8507 28.114 30.1131 28.116C32.5425 28.1397 34.739 28.7041 36.1796 30.8788C37.0519 32.1952 36.8683 33.399 35.6842 34.4666C35.3192 34.7962 34.9481 35.1415 34.4903 35.3211C34.0995 35.4731 33.6042 35.7059 33.4325 35.0034C33.7029 34.4765 33.9732 33.9496 34.2436 33.4226C34.5574 32.5958 34.81 31.7669 34.2397 30.942L33.8233 30.7328Z" fill="#F8F1C9"/>
<path d="M33.4345 35.0014C33.6733 35.3369 34.0127 35.2955 34.3166 35.1771C36.7243 34.2397 37.1703 31.6149 35.1475 29.9711C33.6259 28.7357 31.8123 28.264 29.8566 28.3725C29.7441 28.3785 29.6356 28.489 29.5251 28.5502C29.4145 28.6666 29.2803 28.7001 29.1264 28.6745C28.9764 28.6212 28.8817 28.5245 28.8718 28.3587C29.0475 27.9147 29.1442 27.4253 29.5862 27.1352C32.0649 27.4115 34.4745 27.9068 36.5861 29.3494C36.9019 29.8447 37.2216 30.3381 37.4623 30.8749C38.8773 33.8193 36.371 35.8776 33.5549 35.9803C33.32 35.998 32.9885 36.0355 33.0536 35.6033C33.1069 35.3547 33.2411 35.1554 33.4384 34.9975L33.4345 35.0014Z" fill="#F6EEC9"/>
<path d="M33.0497 35.6073C34.5752 35.9309 35.8283 35.3428 36.896 34.3482C37.7584 33.547 37.7268 32.5188 37.4209 31.4413C37.2018 30.6736 36.5407 30.1368 36.4125 29.3395C36.519 29.0238 36.7736 28.9113 37.0716 28.8541C37.3321 28.862 37.559 28.9587 37.7663 29.1126C38.7175 30.1822 39.1141 31.4867 39.1872 32.8681C39.2641 34.3008 38.086 35.4474 36.2289 35.8737C35.7 35.9941 35.1692 36.1085 34.6403 36.2269C33.914 36.1145 33.2253 36.4065 32.5129 36.4223C32.6925 36.15 32.8701 35.8776 33.0497 35.6073Z" fill="#F3EAC8"/>
<path d="M34.2397 30.942C35.0981 31.6465 35.0981 32.2405 34.2436 33.4226C34.2436 32.5958 34.2416 31.7689 34.2397 30.942Z" fill="#F7E30E"/>
<path d="M10.2344 35.8342C9.81603 36.152 9.34437 36.4243 9.25162 37.0144C9.03059 36.9808 8.73851 36.9828 8.79574 36.6572C9.07598 35.035 9.56934 33.4621 9.70157 31.8005C9.76472 31.0071 10.2423 30.2394 10.5719 29.4777C10.7297 29.1126 10.8639 28.7593 10.8245 28.3568C10.637 27.8831 10.9093 27.5555 11.1876 27.2319C12.2237 26.0241 13.3031 24.8657 14.8089 24.2204C15.6693 24.2204 16.5633 23.9816 17.3409 24.5716C17.3665 25.3906 16.6857 25.4005 16.1686 25.6018C14.3274 25.9412 13.0012 26.9023 12.0263 28.5561C10.9942 30.3085 10.9133 32.3017 10.2699 34.143C10.0765 34.6955 10.7199 35.2797 10.2344 35.8342Z" fill="#D7D2CD"/>
<path d="M14.7615 24.4197C13.4275 25.215 12.3164 26.2609 11.2942 27.4213C11.0396 27.7095 11.0297 28.0706 10.8245 28.3548C10.114 28.7475 10.0114 29.4718 9.84563 30.1585C9.595 31.1907 9.20425 32.1655 8.65958 33.0793C8.26883 32.8069 8.27672 32.4418 8.45828 32.0669C8.67339 31.6209 8.70299 31.1532 8.69115 30.6736C9.91865 27.3523 12.3144 23.6185 16.0285 22.8863C16.2594 22.8429 16.4824 22.833 16.6896 22.9672C16.8988 23.4428 16.4528 23.4941 16.218 23.6461C15.7562 23.9441 15.2352 24.1395 14.7615 24.4177V24.4197Z" fill="#D7D5D3"/>
<path d="M8.85692 30.717C8.97928 31.1966 8.99507 31.7077 8.70497 32.0906C8.42473 32.4596 8.63787 32.7517 8.65958 33.0793C8.6655 34.3324 7.71231 35.1652 7.2821 36.2289C6.32496 36.0928 6.34272 35.5283 6.77294 34.9087C7.61758 33.6891 8.21949 32.3826 8.46223 30.9144C8.57274 30.8058 8.63195 30.5986 8.85495 30.717H8.85692Z" fill="#D9D8D4"/>
<path d="M14.5642 34.6541C14.6708 36.2112 15.6397 37.1939 17.2896 37.4051C17.5126 37.4347 17.7533 37.3834 17.9092 37.6064C14.8622 37.9202 12.9874 36.5565 12.7131 33.9673C12.8808 33.47 13.0505 32.9747 13.7117 32.9747C14.2563 33.2924 14.3688 33.8923 14.6392 34.3916C14.655 34.4903 14.6293 34.5791 14.5642 34.6541Z" fill="#E4D7C2"/>
<path d="M12.794 33.8667C13.9485 36.594 14.874 37.6735 17.9112 37.6064C18.1145 37.6182 18.3158 37.6281 18.5486 37.6419C18.4184 37.861 18.2487 37.7781 18.1085 37.8037C17.0468 37.9281 16.0147 37.5946 14.9589 37.6064C12.8216 37.1407 10.9942 35.4001 12.0066 33.0753C12.4881 33.0378 12.4684 33.5529 12.7407 33.7443C12.7585 33.7838 12.7762 33.8252 12.794 33.8667Z" fill="#DFD4C4"/>
<path d="M21.868 36.8229C21.8048 36.9532 21.7437 37.0834 21.6825 37.2137C20.6583 37.6044 19.6893 37.1268 18.6986 37.0144C18.2269 36.6927 17.6527 36.5111 17.3132 36.0099C17.0962 35.6882 16.8731 35.3665 17.0883 34.9521C17.3705 34.6383 17.7079 34.5929 18.0868 34.7449C19.0598 35.9585 20.4096 36.4894 21.866 36.8249L21.868 36.8229Z" fill="#F1E5C1"/>
<path d="M17.1238 35.0468C17.185 36.075 18.2447 36.3019 18.6986 37.0144C17.5204 36.9709 16.6107 36.3532 15.7463 35.6369C15.3773 35.0192 15.5134 34.4765 15.993 33.9831C16.1449 33.9081 16.3028 33.8943 16.4666 33.9318C16.9166 34.1666 17.2382 34.4784 17.1238 35.0468Z" fill="#EDE1BF"/>
<path d="M16.139 34.0621C15.7562 34.5238 15.7285 35.0744 15.7463 35.6369C15.172 35.5264 14.9964 34.9363 14.5662 34.6541C14.5662 34.589 14.5662 34.5219 14.5662 34.4567C14.284 33.914 14.4359 33.4463 14.8109 33.0141C15.1247 32.7339 15.4542 32.4892 15.916 32.5918C16.3739 33.022 16.3462 33.5292 16.141 34.0621H16.139Z" fill="#EBDDBC"/>
<path d="M21.4595 40.5607C21.72 40.164 21.9785 39.7693 22.239 39.3727C22.3278 40.6613 22.5942 41.8632 23.6974 42.7177C23.9737 42.9308 24.171 43.2446 24.4059 43.511C23.8158 43.511 23.2257 43.511 22.6337 43.511C22.5311 43.4202 22.4028 43.4044 22.2745 43.3788C21.0451 43.1301 20.9701 43.0315 21.051 41.7724C21.1635 41.3619 21.2562 40.9435 21.4555 40.5607H21.4595Z" fill="#FBE307"/>
<path d="M21.2542 41.7369C20.8655 42.988 21.9923 43.0611 22.6337 43.511C22.3673 43.515 22.1009 43.5169 21.8344 43.5209C21.7081 43.515 21.5818 43.509 21.4575 43.5031C20.4846 42.8578 20.4313 42.398 21.2542 41.7388V41.7369Z" fill="#FADA10"/>
<path d="M24.2184 43.9175C24.3309 44.63 24.844 45.3049 24.4078 46.0647C24.4453 45.5891 24.2934 45.1806 24.025 44.7878C23.802 44.4622 23.5593 44.0735 24.2184 43.9175Z" fill="#FADA10"/>
<path d="M8.06951 30.3243V29.1442C8.37342 28.787 8.54117 28.3449 8.68523 27.9246C9.36608 25.9373 10.8284 24.5144 12.1862 23.0225C13.686 21.3746 15.4838 20.4451 17.8224 20.6109C19.3755 20.7214 20.9464 20.8398 22.5133 20.6721C22.7778 20.6444 23.0363 20.6642 23.2672 20.8221C23.4507 21.0451 23.5869 21.276 23.4014 21.5641C22.6376 22.0989 21.7417 22.0574 20.8753 22.1324C20.3918 22.1739 19.9004 22.1186 19.4189 22.2193C19.1643 22.2785 18.8999 22.3258 18.6434 22.2844C14.7122 21.6529 12.425 23.9322 10.5383 26.8806C9.96009 27.7825 9.58908 28.8107 8.96349 29.6908C8.88653 29.7994 8.77996 29.8763 8.65958 29.9296C8.35369 29.898 8.27278 30.2039 8.06951 30.3223V30.3243Z" fill="#DADAD9"/>
<path d="M8.65958 29.9296C9.97588 27.4055 11.085 24.7137 13.6248 23.1014C15.0378 22.2035 16.5534 21.5542 18.3138 22.016C18.6216 22.0969 18.9631 22.0476 19.2887 22.0594C20.0721 22.5666 20.0899 22.5982 19.936 23.1567C18.8683 23.0817 17.7928 23.2297 16.7291 23.0442C12.6282 23.4231 10.3745 27.3286 8.85692 30.719C8.72667 30.7841 8.59445 30.8492 8.4642 30.9163C8.52933 30.5888 8.59445 30.2612 8.66155 29.9316L8.65958 29.9296Z" fill="#D8D8D6"/>
<path d="M37.0025 11.0356C37.1328 11.233 37.265 11.4283 37.3952 11.6257C37.3222 11.6888 37.2374 11.7244 37.1407 11.7283C36.2447 11.3613 35.775 10.4988 35.0567 9.92654C34.8001 9.67394 34.5554 9.40752 34.291 9.16281C33.9298 8.82732 33.5332 8.30435 33.3496 9.29503C33.3161 9.48054 33.1444 9.58118 32.9786 9.54369C32.0689 9.34042 31.7491 10.041 31.4235 10.6153C30.496 12.2533 29.9928 14.0531 29.5566 15.8726C29.4126 16.4745 29.4126 17.1139 29.079 17.6665C27.8259 18.7874 26.3418 19.4623 24.7394 19.9123C21.8246 19.9853 18.9295 20.3326 16.0285 20.5833C14.5405 20.7115 13.2637 21.4832 12.3618 22.6594C11.1165 24.2835 9.51014 25.661 8.80759 27.6779C8.71681 27.9384 8.55893 28.2186 8.26488 28.3528C7.70837 28.7337 7.72021 29.3277 7.67087 29.904C7.64127 30.2454 7.79915 30.6262 7.47747 30.9104C7.47747 30.648 7.47747 30.3855 7.47747 30.123C7.27026 29.4402 7.43208 28.7929 7.67482 28.1555C8.5017 26.9102 9.01085 25.4597 10.0667 24.3664C11.2606 23.129 12.1329 21.6114 13.5676 20.5754C14.6175 19.8176 15.7858 19.5788 16.9758 19.6064C17.6586 19.6222 18.2526 19.4979 18.8565 19.2946C20.1629 18.8565 21.5621 18.9532 22.8745 18.5269C25.3946 17.7079 27.6226 16.5969 28.6192 13.8794C28.9784 12.9006 29.4678 11.9691 29.7638 10.9646C30.2217 9.41344 31.5025 8.46223 32.4576 7.27617C32.7181 6.9545 33.1326 7.02752 33.3832 7.38471C33.5726 7.65508 33.7345 7.93728 34.0482 8.08332C34.9659 9.13321 35.925 10.1436 37.0005 11.0356H37.0025Z" fill="#DDDEDD"/>
<path d="M8.26686 28.3548C8.88455 26.3024 10.4179 24.84 11.5941 23.1409C12.3223 22.089 13.2755 21.3431 14.3964 20.7865C14.801 20.5852 15.2371 20.3346 15.6693 20.3188C18.7203 20.1965 21.7397 19.638 24.8025 19.6952C24.5065 20.3938 23.8829 20.6563 23.2277 20.8753C18.594 21.5384 15.4582 19.2729 12.0066 23.6362C11.904 23.7625 11.827 23.9165 11.7086 24.023C10.5482 25.0611 9.61671 26.2313 9.09966 27.747C8.92599 28.2561 8.5905 28.8067 8.07148 29.1422L8.26883 28.3548H8.26686Z" fill="#DBDCDB"/>
<path d="M4.52713 34.4567C3.54435 33.6753 3.50883 33.1306 4.6712 32.5129C5.5415 32.0511 6.42364 31.5992 7.2821 31.1097C6.36443 32.2248 5.4448 33.3398 4.52714 34.4548L4.52713 34.4567Z" fill="#E0E0DE"/>
<path d="M33.0655 30.3243C33.0655 30.3776 33.0674 30.4309 33.0694 30.4842C30.5749 30.5019 28.0824 30.5177 25.588 30.5355C23.7586 30.1822 23.9322 32.6944 23.0462 33.697C22.5054 33.9279 21.9213 34.0048 21.3569 34.1568C20.897 34.2811 20.5398 34.0581 20.2419 33.7226C20.1156 33.0852 20.5398 32.6767 20.9148 32.2997C22.0061 31.1946 23.2277 30.2296 24.398 29.2093C24.844 29.0475 25.2742 28.7988 25.7794 28.8995C25.9925 29.2803 26.0813 29.6908 26.0577 30.123C27.5891 30.046 29.1185 29.9257 30.6401 30.1842C31.4452 30.3204 32.2682 30.0895 33.0655 30.3223V30.3243Z" fill="#F9F2BC"/>
<path d="M20.2734 33.6693C20.8596 33.9989 21.4259 33.989 22.0574 33.7246C22.3258 33.6121 22.7146 33.4917 23.0481 33.697C22.7521 34.5534 22.535 35.4395 22.0851 36.2388C21.5069 36.892 21.0115 36.2921 20.526 36.0967C19.934 35.8599 19.5038 35.4139 19.3617 34.7528C19.3538 34.3837 19.5709 34.1114 19.7682 33.8312C19.9103 33.695 20.0544 33.5628 20.2734 33.6693Z" fill="#F7EFC0"/>
<path d="M19.486 34.6541C20.0938 35.779 21.1122 36.3986 22.0851 36.2388C22.0496 36.448 22.0673 36.6749 21.868 36.8229C20.234 36.892 18.9216 36.3454 18.1066 34.8514C18.0474 34.7646 18.0454 34.6797 18.1125 34.5949C18.5782 34.3877 19.0361 34.4232 19.484 34.6541H19.486Z" fill="#F5EBC0"/>
<path d="M25.3906 30.721C24.473 32.8444 23.5514 34.9679 22.6475 37.0972C22.5528 37.3183 22.466 37.5077 22.241 37.6064C22.1068 36.4125 22.9435 35.552 23.3126 34.5337C23.7053 33.4444 24.2125 32.3945 24.7177 31.3505C24.844 31.09 24.9841 30.7289 25.3926 30.721H25.3906Z" fill="#FCE94A"/>
<path d="M34.6403 36.2269C35.3428 35.8086 36.1697 35.7632 36.9117 35.4158C39.3036 34.2949 39.1575 33.0418 38.6563 31.3268C38.4313 30.5552 38.1195 29.7855 37.5926 29.1422C37.5867 28.7909 37.7209 28.5048 38.007 28.2975C38.378 28.2541 38.6504 28.4554 38.9188 28.6705C39.8798 30.0618 41.9204 33.9121 39.5601 34.8514C38.0524 35.7829 36.3809 36.1283 34.6403 36.2289V36.2269Z" fill="#F0E6C6"/>
<path d="M39.5621 34.8495C41.1784 33.3812 40.1897 31.8518 39.641 30.3559C39.4338 29.7915 39.0687 29.2823 38.7767 28.7495C38.9266 28.491 39.1457 28.335 39.4417 28.2936C40.0634 28.5659 40.1699 29.2547 40.5804 29.6967C41.3284 30.9696 42.1395 32.2425 41.7211 33.8173C41.5395 34.5041 41.2494 35.1968 40.3495 35.2422C40.0772 35.1317 39.9055 34.8199 39.5621 34.8495Z" fill="#ECE1C4"/>
<path d="M40.3495 35.2442C41.6757 34.1884 41.9086 33.4305 41.3402 31.8498C41.0758 31.1157 40.8488 30.3598 40.3495 29.7342C40.2982 29.4185 40.2824 29.1146 40.5844 28.8995C40.8843 28.8955 41.0679 29.0889 41.2119 29.308C42.0467 30.5828 42.5598 31.98 42.7295 33.4957C42.767 33.8272 42.6644 34.141 42.4986 34.4311C41.9796 35.0448 41.4961 35.7198 40.5469 35.6389H40.1522C40.2173 35.5086 40.2844 35.3764 40.3495 35.2461V35.2442Z" fill="#E8DDC3"/>
<path d="M10.2344 35.8342C9.83576 32.953 10.7396 30.3342 12.1033 27.9088C12.9262 26.4464 14.3412 25.509 16.139 25.4025C16.214 25.7794 15.9417 26.0103 15.772 26.2846C13.1374 27.9522 11.7638 30.3914 11.3435 33.4365C11.1383 34.9304 11.7046 36.0572 13.1295 36.7775C13.6228 37.0282 14.1359 37.2413 14.5642 37.6044C14.1498 37.9814 13.6446 37.7248 13.1867 37.7998C12.0441 37.3814 10.9784 36.8486 10.2344 35.8323L10.2344 35.8342Z" fill="#D8D1C9"/>
<path d="M44.482 27.9621C44.6398 27.8772 44.6754 27.7292 44.6793 27.5674C45.0661 27.4667 45.2358 27.7312 45.4095 27.9956C45.6897 29.3099 46.3212 30.4743 46.9567 31.6406C47.1955 32.0787 47.5428 32.5227 47.2389 33.0793C47.4264 33.3832 47.456 33.7187 47.4362 34.064C47.2389 33.9989 47.0435 33.9338 46.8462 33.8667C46.1436 32.2563 45.2437 30.7407 44.6339 29.0909C44.5017 28.7357 44.2984 28.3686 44.4839 27.964L44.482 27.9621Z" fill="#CAC3B7"/>
<path d="M48.2217 32.2919C48.1526 32.7083 48.3539 33.0793 48.419 33.472C48.0737 33.3871 48.0559 32.8622 47.6316 32.8819C46.9468 31.8557 46.5778 30.6677 45.9305 29.6139C45.5812 29.0455 45.4628 28.3173 45.7509 27.6207C45.8121 27.5318 45.8969 27.4786 46.0015 27.4588C46.3548 27.4569 46.5699 27.6542 46.7179 27.9482C46.7376 28.9547 47.1086 29.8428 47.6198 30.6933C47.9158 31.1867 48.2927 31.6564 48.2197 32.2919H48.2217Z" fill="#C2BCB3"/>
<path d="M45.8594 27.5693C45.8713 28.4988 46.0568 29.3001 46.5423 30.1862C46.9784 30.9815 47.7342 31.8103 47.6296 32.8839C47.5448 33.0418 47.3987 33.0773 47.2369 33.0812C47.0455 32.0353 46.4021 31.1966 45.9344 30.2789C45.5595 29.5428 45.2911 28.7949 45.2694 27.964C45.3621 27.6779 45.5101 27.4746 45.8594 27.5713V27.5693Z" fill="#C6BFB5"/>
<path d="M44.0892 27.5674C44.0892 27.6325 44.0892 27.6996 44.0892 27.7647C44.5925 29.4737 45.4805 31.0091 46.2778 32.5859C46.4337 32.8918 46.5363 33.1839 46.2541 33.472C46.2502 33.6338 46.2166 33.7818 46.0568 33.8667C45.6779 33.6457 45.5318 33.2273 45.2516 32.9234C44.4918 31.2637 43.3906 29.7638 42.919 27.968C42.9308 27.8121 42.9821 27.6739 43.1065 27.5693C43.434 27.6621 43.7616 27.6621 44.0892 27.5693V27.5674Z" fill="#D3CABA"/>
<path d="M46.2541 33.472C45.9956 32.2544 45.3187 31.2242 44.7681 30.1368C44.3912 29.3928 43.9373 28.6646 44.0873 27.7667C44.2195 27.8318 44.3497 27.8969 44.482 27.964C44.9655 29.6533 45.8693 31.1571 46.5857 32.7438C46.7514 33.1089 46.8817 33.4641 46.8442 33.8667C46.6469 33.7364 46.4515 33.6042 46.2541 33.474L46.2541 33.472Z" fill="#CFC6B7"/>
<path d="M45.4667 32.8819C45.7233 33.174 46.0134 33.4463 46.0568 33.8667C45.7608 34.6363 45.6068 35.5066 44.6793 35.8342C44.6793 35.6369 44.6793 35.4415 44.6793 35.2442C44.3636 34.6817 44.8175 34.2081 44.8609 33.6871C44.9813 33.3595 45.0819 33.0122 45.4667 32.8819Z" fill="#D5CDBF"/>
<path d="M53.9289 31.1117C53.6665 31.4393 53.404 31.7669 53.1415 32.0945C52.8889 31.8755 52.9442 31.5597 52.8771 31.2814C52.7054 30.573 51.7246 30.0164 51.0378 30.2256C50.7655 30.3085 50.5701 30.4782 50.5247 30.7585C50.4221 31.4077 50.9095 31.7531 51.2825 32.1517C51.6022 32.4951 51.9318 32.5346 52.3048 32.2169C52.5238 32.0294 52.7685 31.9564 52.9442 32.2938C52.8139 32.4912 52.6817 32.6885 52.5515 32.8839L51.764 33.474C50.6747 33.92 50.0906 33.0891 49.5853 32.4497C49.0328 31.7531 48.5473 30.9519 48.3717 30.0283C48.1447 27.0661 54.2546 28.935 53.9289 31.1137V31.1117Z" fill="#B1B1AF"/>
<path d="M48.6144 30.127C49.1157 31.3446 49.7235 32.4734 50.7971 33.322C51.1523 33.6022 51.5055 33.0872 51.7641 33.472C50.7339 34.2673 50.282 34.2673 49.5992 33.472C48.2138 32.2662 47.529 30.6756 47.1185 28.9389C47.0258 28.5482 47.1501 28.1634 47.304 27.7963C47.4185 27.6049 47.5862 27.4943 47.8112 27.4746C48.1388 27.5082 48.423 27.6147 48.5651 27.9443C48.7012 28.6686 48.2533 29.4047 48.6144 30.125V30.127Z" fill="#B7B5B1"/>
<path d="M47.4343 27.7647C47.1126 30.0618 48.4526 31.7314 49.5992 33.472C48.8927 33.3654 48.6637 32.7043 48.2217 32.2919C47.6415 31.1966 46.9626 30.1546 46.5541 28.9725C46.4239 28.5955 46.4732 28.2857 46.6469 27.9621C46.5877 27.524 46.862 27.4411 47.2093 27.4391C47.3652 27.4924 47.4856 27.5713 47.4343 27.7667V27.7647Z" fill="#BCB8B2"/>
<path d="M40.5449 35.6369C41.2336 35.3902 41.7605 34.9008 42.3171 34.4567C42.4927 34.3008 42.6841 34.2791 42.8933 34.3896C43.2308 35.1889 42.6703 35.5106 42.1217 35.8342C41.0738 36.4085 39.9311 36.45 38.7747 36.4243C39.3075 36.0316 40.0792 36.1776 40.5469 35.6369H40.5449Z" fill="#E3D9C6"/>
<path d="M14.5642 37.6064C13.5794 37.2847 12.6499 36.8328 11.8329 36.2072C10.9843 35.5579 10.9508 34.4962 11.0731 33.62C11.3435 31.6623 11.823 29.7046 13.2025 28.187C13.9208 27.3957 14.6372 26.5234 15.7463 26.1919C16.1252 26.0932 16.2831 26.33 16.4035 26.6241C16.1982 27.3661 15.4424 27.5417 14.951 27.9779C13.4985 29.2626 12.6835 30.8552 12.3519 32.7319C12.3283 32.8622 12.2986 32.9845 12.2039 33.0812C11.6218 34.293 12.0046 36.0454 13.6051 36.8387C14.0689 37.0676 14.5859 37.2157 14.9589 37.6084H14.5642V37.6064Z" fill="#DBD1C5"/>
<path d="M42.1197 35.8342C42.3921 35.3803 42.8835 35.0527 42.9071 34.4568C43.4202 32.7043 42.4335 31.3249 41.7369 29.8882C41.427 29.2488 41.0422 28.6469 40.7857 27.9779C40.762 27.7035 40.8528 27.4786 41.0758 27.3128C41.2218 27.2378 41.3738 27.2299 41.5316 27.2753C41.7783 27.3878 41.952 27.5772 42.0822 27.8121C42.617 29.4461 43.3709 30.9913 44.0557 32.5622C44.2432 32.9905 44.3557 33.4128 44.3458 33.8746C44.1642 35.1336 43.4696 35.8027 42.3171 35.8382C42.2519 35.8382 42.1848 35.8382 42.1197 35.8382V35.8342Z" fill="#E0D6C1"/>
<path d="M42.3171 35.8342C43.1874 35.4316 44.109 35.0725 44.0873 33.8667C44.3122 33.5924 44.1583 33.0556 44.6892 32.9905C45.1056 33.0536 44.9516 33.4384 45.072 33.6693C44.9418 34.1943 44.8096 34.7192 44.6793 35.2442C43.8682 35.4356 43.2505 36.2033 42.3171 36.0316C42.3171 35.9664 42.3171 35.8994 42.3171 35.8342Z" fill="#DAD1C1"/>
<path d="M21.2542 41.7369C20.6563 42.4019 20.9385 42.9663 21.4575 43.5011C21.1674 43.5406 20.9109 43.4439 20.6642 43.3077C20.3504 42.7769 20.4155 42.2579 20.7609 41.7823C21.0332 41.4093 21.1556 40.9909 21.2542 40.5567C21.3213 40.5567 21.3884 40.5567 21.4555 40.5587C21.3884 40.9514 21.3194 41.3422 21.2523 41.7349L21.2542 41.7369Z" fill="#FADD38"/>
<path d="M47.2369 26.3872C48.496 25.1499 51.4562 24.8006 52.9462 25.7301C53.2797 25.9373 53.6033 26.1149 53.9961 26.2076C55.0341 26.4563 55.4821 27.072 55.5018 28.1555C55.1288 28.5403 55.4426 29.2172 54.9137 29.5369C54.7243 28.2423 53.8421 27.6799 52.7449 27.0918C51.1779 26.253 49.6801 26.1859 48.0638 26.6931C47.7619 26.6596 47.456 26.6398 47.2369 26.3853V26.3872Z" fill="#BBBBBA"/>
<path d="M48.0243 26.5846C49.4235 25.882 50.8168 25.8051 52.212 26.6043C52.5515 26.7997 52.9087 26.9734 53.2698 27.1253C54.3631 27.5845 54.9111 28.3883 54.9137 29.5369C54.9098 29.6987 54.8742 29.8448 54.7164 29.9296C52.8692 27.8318 50.6727 26.7504 47.827 27.5674C47.6967 27.6325 47.5645 27.6976 47.4343 27.7647C47.3691 27.6996 47.304 27.6345 47.2369 27.5674C47.0317 26.8648 47.4145 26.6339 48.0243 26.5826V26.5846Z" fill="#B8B8B7"/>
<path d="M47.829 27.5674C49.8518 25.9906 52.1015 27.7351 54.0118 28.6054C54.5427 28.8659 54.5901 29.4323 54.7203 29.9316C54.6552 30.127 54.5901 30.3243 54.5249 30.5197C54.4598 30.5197 54.3927 30.5197 54.3276 30.5197C53.4869 29.0415 51.8509 28.8363 50.5149 28.1515C50.1596 27.97 49.7492 28.0134 49.3564 28.0568C49.0387 28.0923 48.7091 28.2245 48.423 27.9601C48.2256 27.8298 48.0303 27.6976 47.8329 27.5674H47.829Z" fill="#B5B5B4"/>
<path d="M52.9462 32.2919C52.8238 32.2682 52.6561 32.1813 52.585 32.2307C52.2673 32.4497 52.0561 33.0793 51.5864 32.7359C51.0003 32.3057 50.3254 31.8281 50.2287 31.0288C50.1577 30.4427 50.4004 29.9612 51.1424 29.9257C52.4627 29.8605 53.1415 30.5789 53.1415 32.0965C53.0764 32.1616 53.0093 32.2287 52.9442 32.2938L52.9462 32.2919Z" fill="#AFAEAD"/>
<path d="M48.419 27.9621C50.4754 27.4075 52.0976 28.4436 53.7158 29.4382C54.0789 29.6612 54.2763 30.0717 54.3236 30.5197C54.0928 30.6618 54.1322 30.8946 54.1263 31.1097C54.0612 31.1097 53.9961 31.1097 53.9309 31.1097C53.2086 29.3514 51.7068 28.8442 50.0077 28.7653C48.8867 28.712 48.642 29.0218 48.6164 30.125C48.127 29.4422 48.269 28.7021 48.419 27.9601V27.9621Z" fill="#B3B3B2"/>
<path d="M29.0001 32.8819C29.5349 32.805 30.0914 33.0418 30.6914 32.9194C31.2104 32.8128 31.2578 33.2825 31.3012 33.7068C31.4294 34.9541 30.7368 36.0257 30.569 37.2117C30.5177 37.5689 30.4447 37.8866 30.5434 38.2438C30.9203 39.6114 29.8882 40.7324 28.4396 40.5429C24.1908 39.9173 24.4 32.8326 29.0021 32.8819H29.0001Z" fill="#FDF00C"/>
<path d="M37.1999 11.6277C37.265 11.6277 37.3321 11.6277 37.3972 11.6277C37.8689 11.8684 38.2182 12.3243 38.7747 12.4151C39.7752 12.9913 40.0278 13.9149 40.3239 14.9964C41.0935 17.8027 41.6757 18.0316 44.5865 17.1317C45.2792 16.9166 45.7016 17.2836 46.2541 17.3349C46.5383 17.6685 47.2231 17.7415 46.9685 18.4282C45.4312 18.9512 43.9195 19.5373 42.4453 20.2201C41.8809 20.4806 41.3323 20.7668 40.685 20.751C38.0406 20.8517 36.5999 20.5497 35.8145 17.7099C36.4973 16.0423 36.1677 14.1794 36.8269 12.5059C36.9433 12.2098 36.9433 11.8645 37.1999 11.6277Z" fill="#DBDCDC"/>
<path d="M47.0415 18.3177C46.7791 17.9901 46.5166 17.6625 46.2541 17.3349C46.2541 17.2698 46.2541 17.2027 46.2541 17.1376C46.8442 17.5974 47.4362 18.0553 48.0263 18.5151C47.9908 18.5466 47.9553 18.5802 47.9217 18.6118C47.5547 18.7341 47.2665 18.6256 47.0435 18.3177H47.0415Z" fill="#E1E1E1"/>
<path d="M47.4343 16.3502C46.8422 16.3147 46.3528 16.4331 46.2541 17.1356C45.9877 16.8988 45.968 16.5988 46.2285 16.4015C46.5896 16.1311 47.0159 15.9713 47.4343 16.3482V16.3502Z" fill="#E1E1E1"/>
<path d="M48.6164 19.1051C47.5922 19.8097 46.6252 20.5852 45.4233 21.0174C43.734 21.6253 42.1927 22.4916 41.1369 24.025C41.0481 24.2381 40.8903 24.323 40.6633 24.2855C40.243 24.1375 39.9726 23.875 39.9923 23.3955C40.2469 22.3436 40.8449 21.6233 41.8908 21.2246C42.8914 20.8418 43.8327 20.3149 44.8786 20.0346C45.3483 19.9103 45.7983 19.7031 46.1653 19.3597C46.8403 18.7302 47.6257 18.5526 48.5118 18.8012C48.5473 18.8367 48.5828 18.8723 48.6164 18.9078C48.6164 18.9729 48.6164 19.04 48.6164 19.1051Z" fill="#D5D6D5"/>
<path d="M48.0263 18.5151C48.5927 18.5506 49.1374 18.5605 49.0091 17.7296C49.5775 18.6019 49.5439 18.7026 48.6164 18.9098C48.5019 18.6552 47.9671 19.0321 48.0243 18.517L48.0263 18.5151Z" fill="#E1E1E1"/>
<path d="M45.8594 27.5693C45.6621 27.6996 45.4667 27.8318 45.2694 27.9621C45.072 27.8298 44.8767 27.6996 44.6793 27.5674C44.7405 26.9418 45.0878 26.4603 45.4667 25.9925C45.7292 25.9925 45.9917 25.9925 46.2541 25.9925C46.189 26.3853 45.9877 26.7563 46.0568 27.1727C46.1772 27.3049 46.1772 27.4351 46.0568 27.5674C45.9917 27.5674 45.9246 27.5674 45.8595 27.5674L45.8594 27.5693Z" fill="#C4C1BB"/>
<path d="M46.0568 27.5674C46.0568 27.4351 46.0568 27.3049 46.0568 27.1727C46.5067 26.9951 46.6765 26.3971 47.2369 26.3853C47.5093 26.4129 47.8171 26.2945 48.0243 26.5826C47.6592 26.8273 47.2843 27.0681 47.2369 27.5674C46.9527 27.5674 46.7574 27.6996 46.6469 27.9601C46.4495 27.8298 46.2541 27.6976 46.0568 27.5674Z" fill="#BCBBB8"/>
<path d="M41.9243 27.7647C41.7369 27.6897 41.6046 27.5595 41.5297 27.37C41.3363 27.1668 41.3106 26.928 41.3836 26.6675C41.4823 26.4168 41.65 26.2412 41.9243 26.1879C42.2105 26.1583 42.467 26.2511 42.7118 26.3853C42.844 26.778 42.9742 27.1727 43.1065 27.5654C43.1065 27.6976 43.1065 27.8279 43.1065 27.9601C42.915 28.1416 42.9644 28.4831 42.6822 28.6054C42.1375 28.5877 42.1848 28.039 41.9263 27.7627L41.9243 27.7647Z" fill="#D7D0C3"/>
<path d="M41.9243 26.1899C41.8494 26.3774 41.7191 26.5096 41.5316 26.5826C41.06 26.2471 40.7245 25.7912 40.3989 25.3235C40.3002 24.8894 40.3456 24.4986 40.7442 24.2204C40.8764 24.1552 41.0067 24.0881 41.1389 24.023C41.4665 24.0881 41.7941 24.1552 42.1237 24.2204C41.8888 24.8598 41.9184 25.5248 41.9263 26.1879L41.9243 26.1899Z" fill="#D7D3CB"/>
<path d="M29.1304 28.5521C29.2606 28.5521 29.3928 28.5521 29.5231 28.5521C30.1645 28.8916 30.5848 29.3948 30.7032 30.127C29.6612 30.3421 28.6054 30.1645 27.5595 30.2237C27.2121 29.752 27.2339 29.5329 27.7529 29.2527C28.2048 29.008 28.6982 28.8422 29.1284 28.5541L29.1304 28.5521Z" fill="#FAF3C4"/>
<path d="M27.3582 30.127C28.4732 30.127 29.5882 30.127 30.7052 30.127C31.4887 30.2276 32.3076 29.9138 33.0674 30.3243H25.3926C25.5367 29.9967 25.7952 30.1881 25.9807 30.127C26.4405 29.7816 26.8984 29.7816 27.3582 30.127Z" fill="#FBF7CB"/>
<path d="M37.0025 28.9468C36.8052 29.0771 36.6098 29.2093 36.4125 29.3395C34.6797 28.4554 32.8089 27.9857 30.9479 27.4766C30.4743 27.3463 29.9 27.7213 29.5231 27.1746C29.5093 27.1253 29.4954 27.076 29.4816 27.0286C29.5329 26.7582 29.7027 26.5787 29.9257 26.4366C31.2676 26.178 32.5701 26.5412 33.8844 26.701C35.0863 26.8372 35.9211 27.6187 36.7795 28.3548C36.9492 28.5008 37.0992 28.6843 37.0005 28.9448L37.0025 28.9468Z" fill="#F3EBCC"/>
<path d="M27.3582 30.127C26.8984 30.127 26.4405 30.127 25.9807 30.127C25.7913 29.754 25.5367 29.3928 25.7834 28.9468C26.2254 28.5502 26.7504 28.3094 27.3069 28.1259C27.8634 28.0943 28.4396 27.9384 28.933 28.3568C28.9981 28.4219 29.0633 28.489 29.1304 28.5541C29.0041 29.7086 27.4825 28.9152 27.3582 30.1289L27.3582 30.127Z" fill="#F9F1C0"/>
<path d="M28.933 28.3548H27.1608C26.8411 28.264 26.4425 28.341 26.2629 27.9404C26.1484 27.6068 26.2412 27.3246 26.4721 27.076C26.6754 26.8845 26.9142 26.7938 27.1924 26.8036C27.7095 26.8806 28.2285 26.9378 28.7554 26.9023C29.0416 26.8826 29.3593 26.8253 29.5211 27.1746C29.381 27.597 29.4106 28.1041 28.931 28.3548H28.933Z" fill="#F4EBC4"/>
<path d="M37.0025 28.9468C36.0947 28.0647 35.2363 27.1016 33.8529 26.9793C33.8765 26.4642 34.2811 26.5806 34.5673 26.5905C34.8889 26.6023 35.2086 26.6221 35.5283 26.5747C35.627 26.5688 35.7257 26.5747 35.8224 26.5905C36.4006 26.703 36.8979 27.0109 37.4229 27.2536C37.7702 27.5397 38.1353 27.818 37.9873 28.3568C37.9557 28.6686 37.8491 28.9449 37.5946 29.1442C37.3972 29.079 37.2018 29.0139 37.0045 28.9468L37.0025 28.9468Z" fill="#EFE7CC"/>
<path d="M16.7291 23.0422C17.8441 22.6929 18.9591 22.7797 20.0741 23.0422C20.2083 22.9179 20.3504 22.9317 20.4945 23.0244C20.5813 23.6125 20.2971 24.023 19.8511 24.3526C19.2176 24.5657 18.5486 24.6289 17.9013 24.7828C17.6842 24.8104 17.483 24.7789 17.3192 24.617C16.4765 24.4217 15.618 24.4177 14.7596 24.4197C15.174 23.6165 16.1666 23.6362 16.7271 23.0422H16.7291Z" fill="#D9D6D1"/>
<path d="M17.3192 24.617L17.9092 24.617C18.6118 24.6032 19.2097 24.7414 19.338 25.5801C18.8012 26.0458 18.15 26.3221 17.5422 26.6694C17.1336 26.7346 16.7291 26.7306 16.3344 26.5846C16.137 26.4524 15.9417 26.3221 15.7443 26.1899C15.6634 25.8209 15.9259 25.6255 16.137 25.4025C16.5613 25.1854 17.1119 25.1578 17.3172 24.6151L17.3192 24.617Z" fill="#DDD4C9"/>
<path d="M14.9589 33.0793C14.7339 33.5115 14.4892 33.9377 14.5642 34.4567C14.1379 34.0917 13.984 33.5707 13.7768 33.0793C13.4709 32.7319 13.5715 32.3688 13.7097 31.984C14.2701 30.4131 15.1029 29.0554 16.6166 28.2245C16.8396 28.0824 17.0665 27.9719 17.333 28.114C17.6152 28.7376 16.9975 29.1047 16.9047 29.6237C15.7345 30.4822 15.4266 31.8261 14.9589 33.0793Z" fill="#E6D7BB"/>
<path d="M16.7291 28.3548C16.3245 28.8738 15.6279 29.081 15.2529 29.5803C14.4793 30.6085 13.9031 31.759 13.7768 33.0793C13.2064 33.0378 13.2203 33.7285 12.792 33.8667C12.7486 33.8154 12.6894 33.7581 12.6953 33.7009C12.942 31.1413 13.8932 28.9745 16.1627 27.5555C16.2772 27.4845 16.4133 27.4924 16.5456 27.524C16.8001 27.7588 16.9501 28.0173 16.7291 28.3568V28.3548Z" fill="#E2D4BE"/>
<path d="M16.5337 27.5674C14.1853 28.935 13.2282 31.313 12.794 33.8647C12.2848 33.8371 12.1842 33.5016 12.2039 33.0773C11.9868 31.7136 12.7269 30.642 13.3012 29.5251C13.98 28.2048 15.2687 27.5062 16.3383 26.5826C16.7311 26.259 17.1258 26.5175 17.5185 26.5826C17.5323 26.63 17.5461 26.6754 17.5619 26.7227C17.3705 27.1865 17.1455 27.6108 16.5357 27.5674H16.5337Z" fill="#DFD2C1"/>
<path d="M18.1085 34.6541C18.1085 34.7192 18.1085 34.7863 18.1085 34.8514C17.7632 34.8297 17.4277 34.8613 17.1238 35.0488C16.9264 34.7212 16.7311 34.3936 16.5337 34.064C16.3699 33.5568 16.583 33.1641 16.9146 32.805C17.2422 32.6471 17.5224 32.7359 17.773 32.9727C18 33.2589 18.15 33.5845 18.2684 33.9279C18.3335 34.1943 18.3059 34.4429 18.1105 34.6521L18.1085 34.6541Z" fill="#F1E5BB"/>
<path d="M16.9264 32.8819L16.5317 34.0621H16.137C15.9002 33.6279 16.0897 33.1325 15.9397 32.6846C15.5529 32.1359 16.0226 31.759 16.2377 31.3604C16.9166 30.1033 17.8875 29.1106 19.1071 28.3627C19.4189 28.2956 19.7248 28.2995 20.0248 28.4199C20.2162 28.5245 20.3307 28.6804 20.3366 28.9054C20.0761 29.4797 19.4564 29.6454 19.0321 30.0382C18.3158 30.7012 17.554 31.315 17.3132 32.3333C17.2599 32.5622 17.0863 32.7221 16.9225 32.8819H16.9264Z" fill="#EEE0B8"/>
<path d="M19.0913 28.5521C17.7691 29.7224 16.3798 30.8414 15.9417 32.6846C15.6141 32.8148 15.2865 32.947 14.9569 33.0773C14.9648 31.6051 15.4976 30.3953 16.7291 29.5349C17.3034 28.7357 17.9368 28.0469 19.0676 28.2877C19.1525 28.3686 19.1604 28.4554 19.0913 28.5502V28.5521Z" fill="#EADBB9"/>
<path d="M23.2257 20.8773C23.652 20.3524 24.2875 20.1077 24.8006 19.6972C26.2846 19.1782 27.7075 18.5407 28.935 17.5323C29.1955 17.4316 29.4224 17.5204 29.6435 17.6546C29.752 17.7277 29.8724 17.7967 29.9395 17.9053C30.9854 19.6064 32.6017 20.2478 34.4942 20.5063C35.5125 20.6444 36.5447 20.9227 37.2906 21.7555C37.6044 22.389 38.2478 22.8725 38.1669 23.6856C37.2985 23.8592 36.6433 23.3264 35.9309 22.9968C35.556 22.8231 35.2461 22.5133 34.8021 22.4956C34.2752 22.3771 33.766 22.2015 33.2569 22.0239C32.13 21.4733 30.9519 21.0707 29.7323 20.7786C28.118 21.0904 26.7405 21.9903 25.2328 22.5725C25.0867 22.608 24.9427 22.6061 24.8006 22.5627C24.3822 22.1482 23.6461 22.1305 23.4231 21.4694C23.358 21.272 23.2928 21.0766 23.2257 20.8793V20.8773Z" fill="#DEDDD8"/>
<path d="M23.4211 21.4674C23.873 21.8068 24.544 21.8384 24.7986 22.4521C24.6782 22.762 24.4098 22.8488 24.1217 22.908C23.2356 23.0225 21.1556 23.7132 20.4688 23.0422C20.3366 23.0422 20.2063 23.0422 20.0741 23.0422C19.8748 22.6633 19.3834 22.5192 19.2867 22.0574C20.2438 21.5878 21.3174 22.0713 22.2943 21.6805C22.6416 21.5404 23.0422 21.5345 23.4191 21.4674H23.4211Z" fill="#DBD9D6"/>
<path d="M37.1999 11.6277C36.6552 13.6327 36.8032 15.77 36.0197 17.7277C35.6566 18.5861 35.0389 18.7558 34.1311 18.6473C32.2346 18.4164 31.3841 17.1336 30.7269 15.5825C30.6953 15.4187 30.6598 15.2312 30.7407 15.099C31.688 13.5321 31.9564 11.6356 33.1444 10.1851C33.839 9.33845 34.2693 9.25951 35.2323 9.85747C35.8875 10.4475 36.5447 11.0376 37.1999 11.6296V11.6277Z" fill="#D8D9D8"/>
<path d="M35.2323 9.8555C33.9081 9.50422 33.8075 9.4983 32.9253 10.9685C32.0629 12.4072 31.5735 14.0294 30.9025 15.5628C30.6953 16.4449 30.5019 17.3349 29.5251 17.7277C29.3277 17.6625 29.1304 17.5974 28.935 17.5303C29.3376 15.6555 29.8033 13.8005 30.4802 11.9987C30.7821 11.1955 31.165 10.4416 31.6959 9.77656C32.0452 9.33845 32.4182 8.6951 33.0951 9.50225C33.2727 9.05822 32.8602 8.58656 33.4384 8.38724C33.9219 8.22147 34.0739 8.62208 34.3127 8.84508C34.6442 9.15491 34.9304 9.51409 35.2343 9.85155L35.2323 9.8555Z" fill="#DADCDB"/>
<path d="M20.2734 33.6693C20.1412 33.7345 20.011 33.8016 19.8787 33.8667C19.5748 33.5608 19.6261 33.1937 19.6992 32.8227C20.5912 31.3663 21.8088 30.2316 23.2178 29.2843C23.6224 29.1284 24.025 28.9942 24.4059 29.3395C23.6323 30.498 22.3693 31.1393 21.4299 32.1359C20.976 32.6175 20.5872 33.1029 20.2715 33.6693H20.2734Z" fill="#F8F0B9"/>
<path d="M24.4059 29.3395C24.0013 29.3356 23.5908 29.302 23.2257 29.5369C23.0718 29.4086 22.9514 29.2626 22.9554 29.0475C23.0146 28.7791 23.204 28.6232 23.4251 28.4909C24.3447 27.9601 25.3176 27.7213 26.3754 27.9621C26.6379 28.0923 26.9003 28.2245 27.1628 28.3548C26.7326 28.6192 26.3537 29.0041 25.7853 28.9448C25.3413 29.1264 24.9052 29.3415 24.4078 29.3376L24.4059 29.3395Z" fill="#F6EDBD"/>
<path d="M19.8787 32.6846V33.8647C19.9083 34.2061 19.5965 34.3798 19.486 34.6521C19.0262 34.8238 18.5684 34.6107 18.1085 34.6521C18.0612 33.397 18.1381 33.022 19.2591 32.4063C19.5196 32.3787 19.7307 32.4596 19.8787 32.6846Z" fill="#F5ECBA"/>
<path d="M37.9873 28.3548C37.7899 28.0272 37.5946 27.6996 37.3972 27.37C37.2531 26.9181 37.5018 26.6201 37.7978 26.3399C38.5852 26.2451 38.7964 26.9931 39.274 27.3523C39.4003 27.6779 39.5325 28.0035 39.3648 28.3548C39.2542 28.6153 39.0589 28.7475 38.7747 28.7475C38.5122 28.6173 38.2497 28.485 37.9873 28.3548Z" fill="#EAE1CA"/>
<path d="M39.3648 28.3548C39.1773 28.0509 39.1457 27.7154 39.1674 27.37C39.2424 27.1589 39.3983 27.0701 39.6174 27.0779C40.1147 27.3365 40.4206 27.7726 40.6949 28.2383C40.7639 28.4988 40.7501 28.7416 40.5449 28.9429C40.5765 29.229 40.4817 29.4856 40.3475 29.7303C40.0199 29.2705 39.6924 28.8126 39.3628 28.3528L39.3648 28.3548Z" fill="#E7DEC6"/>
<path d="M40.5449 28.9468V28.1594C40.6219 27.9857 40.7225 27.8575 40.9376 27.9621C41.875 29.525 42.7729 31.1078 43.2683 32.878C43.4301 33.4562 43.5011 34.0384 42.9052 34.4567H42.3151C42.6861 32.3116 41.8533 30.5513 40.5429 28.9468H40.5449Z" fill="#E4DAC2"/>
<path d="M42.7118 28.5521C42.7118 28.2679 42.844 28.0726 43.1045 27.9621C43.7084 29.6908 44.7504 31.2084 45.4667 32.8819C45.3365 33.1444 45.2042 33.4069 45.074 33.6693C44.9437 33.472 44.8115 33.2766 44.6813 33.0793C43.8978 31.6268 42.8282 30.2967 42.7137 28.5521H42.7118Z" fill="#D9CFBC"/>
<path d="M42.7118 28.5521C43.2012 30.1329 44.2649 31.465 44.6793 33.0793C44.482 33.3417 44.2866 33.6042 44.0892 33.8667C44.1366 32.7793 43.4183 31.9583 43.0867 31.0032C42.7098 29.9197 42.0191 28.9508 41.9244 27.7667C42.1868 28.0292 42.4493 28.2916 42.7118 28.5541L42.7118 28.5521Z" fill="#DDD3BE"/>
<path d="M40.9396 27.9621C40.8093 28.0272 40.6771 28.0923 40.5469 28.1594C40.0949 27.9542 39.8956 27.4983 39.5621 27.1747C39.4615 26.701 39.0332 26.2787 39.3411 25.7419C39.5147 25.6215 39.7022 25.6176 39.8956 25.6827C40.3771 26.1958 40.91 26.6694 41.1369 27.37C41.0718 27.5674 41.0067 27.7647 40.9396 27.9601V27.9621Z" fill="#E2D9C8"/>
<path d="M41.135 27.372C40.6436 26.9201 40.1305 26.4859 39.9548 25.7972C40.0535 25.5189 40.1837 25.288 40.5449 25.4025C41.056 25.6432 41.3777 26.0419 41.5296 26.5826L41.5297 27.37C41.3974 27.37 41.2672 27.37 41.135 27.37V27.372Z" fill="#DCD6C9"/>
<path d="M30.3204 35.408C30.2414 36.4105 29.9553 37.4387 29.5862 38.4471C29.4481 38.824 29.1896 39.0648 28.7613 38.9523C27.9127 38.7313 27.1825 38.3464 26.8845 37.4327C26.5984 36.5585 26.6892 35.6783 27.3286 35.0606C27.9877 34.4232 28.8777 34.0838 29.8487 34.291C30.4388 34.4173 30.2769 34.9304 30.3204 35.406V35.408Z" fill="#FDF20F"/>
<path d="M29.5231 17.7277C30.1723 17.1277 30.3953 16.2535 30.9006 15.5628C31.1946 16.0305 31.4887 16.4982 31.7827 16.9639C32.7517 18.4934 34.6265 18.8308 36.0178 17.7277C37.6834 20.7096 37.3104 20.5043 40.7422 20.4826C40.4738 21.1437 39.7654 21.4851 39.5226 22.164C38.7076 22.3752 37.8728 22.7205 37.1999 21.8601C34.1824 19.5886 32.3412 21.9607 29.5231 17.7277Z" fill="#DBDBD8"/>
<path d="M39.5621 22.0574C39.3667 21.0904 40.243 20.9286 40.7422 20.4826C41.1113 20.5102 41.4705 20.4668 41.7803 20.2576C43.0137 19.4268 44.5629 19.3084 45.7904 18.4638C46.1653 18.2052 46.6212 18.3454 47.0415 18.3177C47.3691 18.3829 47.6967 18.4499 48.0243 18.5151C48.2217 18.6453 48.419 18.7775 48.6164 18.9078C47.5803 18.7637 46.8146 19.2196 45.966 19.7998C44.1425 21.0628 40.8685 20.8852 40.1542 23.4349C39.9686 23.5908 39.7674 23.6125 39.5522 23.502C39.1694 23.0185 39.0648 22.535 39.5641 22.0574H39.5621Z" fill="#D8D9D8"/>
<path d="M39.5621 23.4349C39.7595 23.4349 39.9548 23.4349 40.1522 23.4349C40.1107 23.875 40.5488 23.9579 40.7422 24.2223C40.6771 24.617 40.4758 24.9861 40.5449 25.4025C40.3475 25.5347 40.1522 25.665 39.9548 25.7972C39.7575 25.7972 39.5621 25.7972 39.3648 25.7972C39.047 25.7301 38.899 25.4972 38.7944 25.2209C38.7194 24.9052 38.5951 24.5973 38.6642 24.2618C38.8615 23.877 39.122 23.5593 39.5621 23.4369V23.4349Z" fill="#DCD8CF"/>
<path d="M35.625 26.7819C35.0685 27.149 34.3956 26.476 33.8529 26.9793C32.5524 26.7247 31.2439 26.553 29.9158 26.5866C29.5843 26.5293 29.2685 26.4425 29.0712 26.1327C29.0929 25.7873 29.304 25.59 29.5941 25.4498C31.5775 24.8598 33.3634 25.7024 35.1909 26.2274C35.4198 26.2925 35.6862 26.4366 35.6231 26.7819H35.625Z" fill="#EFE6D0"/>
<path d="M29.1304 26.1899C29.4678 26.1721 29.7698 26.2254 29.9178 26.5846L29.525 27.1746C28.7475 26.999 27.9186 27.4213 27.1628 26.9773C26.999 26.7701 26.9832 26.5569 27.1372 26.3359C27.7845 26.0498 28.4436 25.9432 29.1304 26.1899Z" fill="#F1E7C8"/>
<path d="M26.3734 27.9621C25.3985 28.2581 24.3052 28.114 23.4211 28.7495C23.1843 28.5186 23.0817 28.2502 23.1863 27.9226C23.4251 27.6305 23.7408 27.4569 24.0921 27.3345C24.915 27.2358 25.7084 26.6596 26.5708 27.1746C26.4366 27.4194 26.3438 27.6759 26.3734 27.9621Z" fill="#F3E8BF"/>
<path d="M26.5708 27.1746C25.6906 27.1233 24.8736 27.4963 24.0132 27.5674C23.6086 27.4351 23.0146 27.891 22.7995 27.1766C23.8158 26.8451 24.8321 26.5076 25.8722 26.253C26.3083 26.2294 26.7444 26.2254 27.1628 26.3872C27.1628 26.5846 27.1628 26.78 27.1628 26.9773C26.9655 27.0424 26.7681 27.1095 26.5727 27.1746H26.5708Z" fill="#F0E4C4"/>
<path d="M35.625 26.7819C34.0265 26.0517 32.4122 25.4044 30.5947 25.5821C30.2394 25.6176 29.8803 25.5959 29.5231 25.6018C29.0435 25.59 28.7732 25.4183 28.9823 24.8854C29.9375 24.2737 31.015 24.4907 32.0156 24.5776C33.3575 24.694 34.6955 25.0038 35.8737 25.7518C36.1401 26.109 36.1934 26.4583 35.8224 26.7839C35.7573 26.7839 35.6921 26.7839 35.625 26.7839L35.625 26.7819Z" fill="#ECE4D1"/>
<path d="M35.8224 26.78C35.8303 26.5175 36.0138 26.255 35.8224 25.9925C36.5032 25.7478 37.1111 25.9866 37.709 26.2807C37.7366 26.3162 37.7643 26.3517 37.7899 26.3872C37.6597 26.7148 37.5275 27.0424 37.3972 27.372C36.7914 27.3898 36.3769 26.8984 35.8224 26.7819V26.78Z" fill="#EBE3CF"/>
<path d="M19.2887 25.5998C19.0203 25.0038 18.4322 24.8558 17.9112 24.6151C18.5348 24.321 19.1939 24.2085 19.8787 24.2204C20.4471 23.8651 21.0648 23.7309 21.718 23.8671C22.2647 23.9796 22.8014 23.8375 23.3441 23.8671C23.5099 23.9066 23.6382 23.9934 23.6954 24.1631C23.3599 25.0295 22.4995 25.1025 21.7969 25.4183C20.9543 25.3847 20.1353 25.6985 19.2887 25.5978V25.5998Z" fill="#DFD7CD"/>
<path d="M23.4211 24.025C22.2607 24.4651 21.0451 23.8947 19.8787 24.2223C20.0761 23.8296 20.2715 23.4349 20.4688 23.0422C21.7437 23.1882 22.9613 22.7699 24.2085 22.6495C24.5776 23.4705 23.9737 23.7329 23.4211 24.027V24.025Z" fill="#DDD8D2"/>
<path d="M19.2887 25.5998C20.0919 25.1499 20.972 25.1874 21.8483 25.2071C22.239 25.438 22.1048 25.7123 21.9134 25.9925C21.0628 26.5017 20.0307 26.2905 19.1505 26.6852C18.5999 26.7661 18.0395 27.001 17.5185 26.5846C18.0158 26.0892 18.5545 25.6669 19.2906 25.5998L19.2887 25.5998Z" fill="#E2D7C8"/>
<path d="M17.5165 26.5846C18.0414 26.6813 18.5664 26.4109 19.0913 26.5846C19.3439 26.9872 19.0341 27.2141 18.815 27.4707C18.3256 27.7174 17.9349 28.1851 17.3192 28.1594C17.1218 28.2245 16.9264 28.2897 16.7291 28.3568C16.664 28.0943 16.5969 27.8318 16.5317 27.5693C16.9363 27.3187 17.2639 26.9891 17.5165 26.5846Z" fill="#E4D7C1"/>
<path d="M17.3211 28.1594C17.7356 27.818 18.1756 27.522 18.6986 27.372C19.0834 27.1154 19.4169 27.226 19.7248 27.52C19.8689 28.0667 19.6696 28.3548 19.0933 28.3568C18.1125 28.3647 17.4514 29.01 16.7311 29.5369C16.7192 28.9883 17.2777 28.6844 17.3211 28.1594Z" fill="#E8D9BD"/>
<path d="M19.2887 32.4892C18.896 32.949 18.5013 33.4069 18.1085 33.8667C17.852 33.6674 17.7474 33.3911 17.7158 33.0793C17.9586 31.3722 19.0617 30.2986 20.4175 29.4086C20.83 29.4362 21.2582 29.2527 21.6568 29.4954C21.718 29.6296 21.6963 29.7619 21.5917 29.8487C20.6859 30.6065 20.0208 31.5775 19.2906 32.4892H19.2887Z" fill="#F3E8B6"/>
<path d="M20.4688 29.5369C19.2078 30.4506 18.3355 31.6682 17.7138 33.0793C17.4691 32.9451 17.2126 32.8523 16.9264 32.8819C17.2599 30.9065 18.6769 29.8507 20.2715 28.9449C20.4353 28.7811 20.6208 28.7732 20.8181 28.8718C21.0569 29.2803 20.7194 29.3849 20.4668 29.5349L20.4688 29.5369Z" fill="#F1E4B6"/>
<path d="M20.8635 28.9468H20.2734C20.2083 28.8166 20.1432 28.6844 20.0761 28.5541C20.7964 27.8594 21.6391 27.3681 22.5824 27.0405C22.6791 27.0602 22.762 27.1056 22.831 27.1766C23.131 27.5911 23.7132 27.1549 24.0132 27.5693C23.7408 27.6799 23.5671 27.9917 23.2257 27.964C22.6199 28.8422 21.793 29.1876 20.8635 28.9488V28.9468Z" fill="#F0E4BC"/>
<path d="M22.6337 27.1746C21.7397 27.5595 21.0155 28.2561 20.0741 28.5521H19.0894C19.0894 28.487 19.0894 28.4219 19.0894 28.3548C19.4051 28.1811 19.6656 27.966 19.6794 27.5674C20.0662 26.9102 20.7589 26.853 21.3983 26.6872C21.7397 27.0247 22.4383 26.4603 22.6317 27.1727L22.6337 27.1746Z" fill="#ECDFBF"/>
<path d="M33.2628 21.8601C33.7877 21.9904 34.3127 22.1226 34.8376 22.2528C35.4237 22.5449 35.9546 22.9218 36.3927 23.4034C36.6098 23.6421 36.9473 23.9322 36.5131 24.2914C35.5639 24.2737 34.7883 23.7191 33.9219 23.4448C31.759 22.76 29.5941 22.5153 27.3957 23.2692C26.628 23.0876 25.8899 22.8232 25.1933 22.4502C26.6122 21.5858 28.1199 20.9267 29.7204 20.4826C30.719 21.4102 32.0353 21.5207 33.2628 21.8601Z" fill="#E2DDD6"/>
<path d="M25.1933 22.4502C26.0221 22.2568 26.6181 22.9139 27.3582 23.0402C27.4647 23.2632 27.3365 23.4191 27.2062 23.575C26.6477 24.0072 26.034 24.323 25.3354 24.4611C24.7493 24.4828 24.1118 24.8558 23.6185 24.2204C23.5533 24.1552 23.4862 24.0881 23.4211 24.023C23.6382 23.5375 24.321 23.3185 24.2085 22.6455C24.4059 22.5804 24.6032 22.5133 24.7986 22.4482C24.9308 22.4482 25.0611 22.4482 25.1933 22.4482L25.1933 22.4502Z" fill="#E1DBD2"/>
<path d="M36.6098 24.2223C36.3493 23.2692 35.3922 22.9435 34.8376 22.2548C35.7119 22.3199 36.2605 23.0975 37.0834 23.283C37.4564 23.3659 37.8176 23.5139 38.1827 23.6323C38.5379 23.6717 38.8378 23.7645 38.7727 24.2223C38.8378 24.5499 38.903 24.8775 38.9701 25.2071C38.6523 25.5229 38.2951 25.5485 37.9064 25.3551C37.4781 24.9723 36.6611 25.0354 36.6078 24.2243L36.6098 24.2223Z" fill="#E1DDD5"/>
<path d="M38.7747 24.2223C38.5773 24.025 38.38 23.8296 38.1846 23.6323C37.8393 23.0521 37.4051 22.5192 37.1999 21.8621C37.9478 22.391 38.7747 21.9864 39.5621 22.0594C39.3233 22.5192 39.5443 22.9771 39.5621 23.4369C39.3727 23.7724 39.1122 24.0349 38.7747 24.2243V24.2223Z" fill="#DBDBD7"/>
<path d="M33.2628 21.8601C31.9939 22.1443 30.9736 21.42 29.8763 21.0135C29.6829 20.9424 29.7263 20.674 29.7185 20.4826C30.9124 20.9089 32.207 21.0747 33.2608 21.8601H33.2628Z" fill="#E1DDD5"/>
<path d="M19.2887 32.4892C19.6498 31.163 20.6977 30.3894 21.6509 29.5369C21.9963 29.01 22.4423 28.8304 23.0284 29.1442C23.1863 29.229 23.2218 29.3751 23.2257 29.5369C21.9252 30.3894 20.9484 31.5873 19.8787 32.6865C19.6814 32.6214 19.486 32.5563 19.2887 32.4892Z" fill="#F6ECB7"/>
<path d="M23.0284 29.1422C22.5311 29.1402 22.0949 29.3534 21.6509 29.5349C21.2582 29.4658 20.8635 29.8526 20.4708 29.5349C20.603 29.3376 20.7333 29.1422 20.8655 28.9449C21.7634 28.8817 22.5094 28.4574 23.2277 27.9601C23.3619 28.2048 23.4547 28.4614 23.4251 28.7475C23.2376 28.8225 23.1054 28.9527 23.0304 29.1422H23.0284Z" fill="#F3E8B9"/>
<path d="M37.9873 25.2071C38.3149 25.4242 38.6425 25.144 38.972 25.2071C39.1043 25.4044 39.2345 25.6018 39.3667 25.7972C39.2819 26.2787 39.8483 26.6655 39.5641 27.1746C39.4338 27.2398 39.3016 27.3049 39.1714 27.372C38.5241 27.3069 38.4412 26.4524 37.7939 26.3872C37.6242 26.2313 37.49 26.0577 37.5137 25.809C37.5867 25.5406 37.6913 25.2959 37.9912 25.2071H37.9873Z" fill="#E4DDCD"/>
<path d="M28.933 25.0098C29.0613 25.2762 29.2586 25.4715 29.5231 25.5998C29.3909 25.7972 29.2606 25.9925 29.1284 26.1899C28.489 26.4247 27.8239 26.3951 27.1608 26.3872C26.7681 26.7109 26.3734 26.4524 25.9807 26.3872C25.8287 26.3478 25.736 26.253 25.7163 26.0952C25.8485 25.5939 26.2155 25.3038 26.6379 25.0611C27.2023 24.9762 27.7174 24.6802 28.3015 24.6782C28.5442 24.7295 28.7791 24.7966 28.935 25.0098H28.933Z" fill="#ECE2CB"/>
<path d="M25.7833 26.1899C25.8485 26.255 25.9156 26.3221 25.9807 26.3872C24.9525 26.7365 23.9934 27.3602 22.831 27.1746C22.7659 27.1746 22.7008 27.1746 22.6337 27.1746C22.3554 26.6951 21.6509 27.4963 21.4536 26.7819C21.5128 26.6911 21.5897 26.6201 21.6845 26.5668C22.6988 26.2136 23.7527 26.0557 24.8104 25.9156C25.1657 25.8682 25.5288 25.8524 25.7833 26.1919V26.1899Z" fill="#ECE0C5"/>
<path d="M28.933 25.0098C28.7159 25.0038 28.4831 25.0453 28.3429 24.8124C28.337 24.2144 28.8225 23.9875 29.1994 23.6796C31.5321 23.21 33.7147 23.8079 35.848 24.6585C36.4894 24.915 37.2512 25.0551 37.5946 25.7972C37.6597 25.9945 37.7248 26.1899 37.7919 26.3872C37.1367 26.257 36.4795 26.1248 35.8244 25.9945C33.6417 24.8696 31.3525 24.4967 28.935 25.0098H28.933Z" fill="#E9E2D2"/>
<path d="M23.6185 24.2223C24.2085 24.5401 24.7986 24.1908 25.3906 24.2223C25.6669 24.7157 25.3275 25.0255 25.0571 25.3591C24.2658 25.8978 23.3501 25.959 22.4403 26.0478C22.2134 26.034 22.0081 25.9689 21.8483 25.7972C21.9706 25.5998 21.9706 25.4045 21.8483 25.2071C22.4304 24.8637 23.1073 24.692 23.6204 24.2223H23.6185Z" fill="#E4DBCC"/>
<path d="M21.8463 25.7972C22.0436 25.7972 22.241 25.7972 22.4364 25.7972C22.5469 26.4228 21.9272 26.4662 21.6489 26.7819C21.5838 26.7819 21.5167 26.7819 21.4516 26.7819C20.8615 27.0444 20.2715 27.3069 19.6794 27.5693C19.3518 27.5042 19.0242 27.4391 18.6947 27.372C18.8052 27.0997 19.117 26.928 19.0874 26.5846C19.6163 25.8583 20.4866 26.3399 21.1378 26.0103C21.345 25.9057 21.6568 26.0478 21.8443 25.7972H21.8463Z" fill="#E7DAC4"/>
<path d="M37.5926 25.7972C34.9679 24.2973 32.1734 23.5297 29.1284 23.8296C28.3765 24.177 27.7746 23.7803 27.1608 23.4369C27.226 23.3067 27.2911 23.1744 27.3582 23.0442C27.8476 23.1113 28.2068 22.7482 28.6508 22.6574C31.4393 22.1107 34.0956 23.1527 36.6078 24.2243C36.892 24.7966 37.6242 24.7433 37.9853 25.2091C37.8551 25.4064 37.7228 25.6018 37.5926 25.7991V25.7972Z" fill="#E5DFD4"/>
<path d="M27.1608 23.4349C27.8634 23.3363 28.4436 23.8474 29.1284 23.8276C29.0317 24.2894 28.5403 24.4335 28.341 24.8124C27.7509 24.9407 27.22 25.3433 26.5688 25.2071C26.0439 25.5347 25.5189 25.9669 24.994 25.2071C25.1242 24.8795 25.2564 24.5519 25.3867 24.2223C26.0399 24.102 26.5609 23.6836 27.1589 23.4349H27.1608Z" fill="#E6DED0"/>
<path d="M24.9959 25.2071C25.5209 25.4952 26.0458 25.3768 26.5708 25.2071C26.3083 25.5347 26.0458 25.8623 25.7833 26.1919C24.3526 26.0221 23.0225 26.5471 21.6509 26.7819C21.9134 26.4543 22.1759 26.1267 22.4383 25.7972C23.3185 25.7163 24.1829 25.5722 24.9979 25.2071H24.9959Z" fill="#E9DEC8"/>
<path d="M78.8564 41.06C76.6964 41.06 74.7898 40.6733 73.1364 39.9C71.4831 39.1267 70.1898 38.02 69.2564 36.58C68.3231 35.14 67.8564 33.4067 67.8564 31.38V30.26H73.0564V31.38C73.0564 33.06 73.5764 34.3267 74.6164 35.18C75.6564 36.0067 77.0698 36.42 78.8564 36.42C80.6698 36.42 82.0164 36.06 82.8964 35.34C83.8031 34.62 84.2564 33.7 84.2564 32.58C84.2564 31.8067 84.0298 31.18 83.5764 30.7C83.1498 30.22 82.5098 29.8333 81.6564 29.54C80.8298 29.22 79.8164 28.9267 78.6164 28.66L77.6964 28.46C75.7764 28.0333 74.1231 27.5 72.7364 26.86C71.3764 26.1933 70.3231 25.3267 69.5764 24.26C68.8564 23.1933 68.4964 21.8067 68.4964 20.1C68.4964 18.3933 68.8964 16.94 69.6964 15.74C70.5231 14.5133 71.6698 13.58 73.1364 12.94C74.6298 12.2733 76.3764 11.94 78.3764 11.94C80.3764 11.94 82.1498 12.2867 83.6964 12.98C85.2698 13.6467 86.4964 14.66 87.3764 16.02C88.2831 17.3533 88.7364 19.0333 88.7364 21.06V22.26H83.5364V21.06C83.5364 19.9933 83.3231 19.14 82.8964 18.5C82.4964 17.8333 81.9098 17.3533 81.1364 17.06C80.3631 16.74 79.4431 16.58 78.3764 16.58C76.7764 16.58 75.5898 16.8867 74.8164 17.5C74.0698 18.0867 73.6964 18.9 73.6964 19.94C73.6964 20.6333 73.8698 21.22 74.2164 21.7C74.5898 22.18 75.1364 22.58 75.8564 22.9C76.5764 23.22 77.4964 23.5 78.6164 23.74L79.5364 23.94C81.5364 24.3667 83.2698 24.9133 84.7364 25.58C86.2298 26.2467 87.3898 27.1267 88.2164 28.22C89.0431 29.3133 89.4564 30.7133 89.4564 32.42C89.4564 34.1267 89.0164 35.6333 88.1364 36.94C87.2831 38.22 86.0564 39.2333 84.4564 39.98C82.8831 40.7 81.0164 41.06 78.8564 41.06Z" fill="white"/>
<path d="M93.5542 40.5V12.5H98.5942V23.1H99.3142C99.5276 22.6733 99.8609 22.2467 100.314 21.82C100.768 21.3933 101.368 21.0467 102.114 20.78C102.888 20.4867 103.861 20.34 105.034 20.34C106.581 20.34 107.928 20.7 109.074 21.42C110.248 22.1133 111.154 23.0867 111.794 24.34C112.434 25.5667 112.754 27.0067 112.754 28.66V40.5H107.714V29.06C107.714 27.5667 107.341 26.4467 106.594 25.7C105.874 24.9533 104.834 24.58 103.474 24.58C101.928 24.58 100.728 25.1 99.8742 26.14C99.0209 27.1533 98.5942 28.58 98.5942 30.42V40.5H93.5542Z" fill="white"/>
<path d="M118.203 40.5V20.66H123.243V40.5H118.203ZM120.723 18.34C119.816 18.34 119.043 18.0467 118.403 17.46C117.789 16.8733 117.483 16.1 117.483 15.14C117.483 14.18 117.789 13.4067 118.403 12.82C119.043 12.2333 119.816 11.94 120.723 11.94C121.656 11.94 122.429 12.2333 123.043 12.82C123.656 13.4067 123.963 14.18 123.963 15.14C123.963 16.1 123.656 16.8733 123.043 17.46C122.429 18.0467 121.656 18.34 120.723 18.34Z" fill="white"/>
<path d="M128.828 40.5V20.66H133.788V22.9H134.508C134.801 22.1 135.281 21.5133 135.948 21.14C136.641 20.7667 137.441 20.58 138.348 20.58H140.748V25.06H138.268C136.988 25.06 135.934 25.4067 135.108 26.1C134.281 26.7667 133.868 27.8067 133.868 29.22V40.5H128.828Z" fill="white"/>
<path d="M153.424 41.06C151.451 41.06 149.677 40.66 148.104 39.86C146.531 39.06 145.291 37.9 144.384 36.38C143.477 34.86 143.024 33.0333 143.024 30.9V30.26C143.024 28.1267 143.477 26.3 144.384 24.78C145.291 23.26 146.531 22.1 148.104 21.3C149.677 20.5 151.451 20.1 153.424 20.1C155.397 20.1 157.171 20.5 158.744 21.3C160.317 22.1 161.557 23.26 162.464 24.78C163.371 26.3 163.824 28.1267 163.824 30.26V30.9C163.824 33.0333 163.371 34.86 162.464 36.38C161.557 37.9 160.317 39.06 158.744 39.86C157.171 40.66 155.397 41.06 153.424 41.06ZM153.424 36.58C154.971 36.58 156.251 36.0867 157.264 35.1C158.277 34.0867 158.784 32.6467 158.784 30.78V30.38C158.784 28.5133 158.277 27.0867 157.264 26.1C156.277 25.0867 154.997 24.58 153.424 24.58C151.877 24.58 150.597 25.0867 149.584 26.1C148.571 27.0867 148.064 28.5133 148.064 30.38V30.78C148.064 32.6467 148.571 34.0867 149.584 35.1C150.597 36.0867 151.877 36.58 153.424 36.58Z" fill="white"/>
</svg>
