<?xml version="1.0" encoding="UTF-8"?>
<svg id="Layer_1" data-name="Layer 1" xmlns="http://www.w3.org/2000/svg" viewBox="0 0 286.28 273.63">
  <defs>
    <style>
      .cls-1 {
        fill: #f3ebcc;
      }

      .cls-2 {
        fill: #f3eac8;
      }

      .cls-3 {
        fill: #f3e8bf;
      }

      .cls-4 {
        fill: #f3e8b9;
      }

      .cls-5 {
        fill: #f3e8b6;
      }

      .cls-6 {
        fill: #f6eec9;
      }

      .cls-7 {
        fill: #f6edbd;
      }

      .cls-8 {
        fill: #f6ecb7;
      }

      .cls-9 {
        fill: #f7e30e;
      }

      .cls-10 {
        fill: #f7efc0;
      }

      .cls-11 {
        fill: #f2f3f3;
      }

      .cls-12 {
        fill: #f2f3f2;
      }

      .cls-13 {
        fill: #f9f1c0;
      }

      .cls-14 {
        fill: #f9f2bc;
      }

      .cls-15 {
        fill: #f9fafa;
      }

      .cls-16 {
        fill: #f9e30a;
      }

      .cls-17 {
        fill: #f8f0b9;
      }

      .cls-18 {
        fill: #f8f1c9;
      }

      .cls-19 {
        fill: #fada10;
      }

      .cls-20 {
        fill: #eee0b8;
      }

      .cls-21 {
        fill: #f1e5c1;
      }

      .cls-22 {
        fill: #f1e5bb;
      }

      .cls-23 {
        fill: #eef0ef;
      }

      .cls-24 {
        fill: #ebebe9;
      }

      .cls-25 {
        fill: #ebeceb;
      }

      .cls-26 {
        fill: #ebe3cf;
      }

      .cls-27 {
        fill: #ebe1c8;
      }

      .cls-28 {
        fill: #f0e6c6;
      }

      .cls-29 {
        fill: #f0e4bc;
      }

      .cls-30 {
        fill: #f0e4c4;
      }

      .cls-31 {
        fill: #eaebeb;
      }

      .cls-32 {
        fill: #eae1ca;
      }

      .cls-33 {
        fill: #eadbb9;
      }

      .cls-34 {
        fill: #e6e7e7;
      }

      .cls-35 {
        fill: #e6e7e6;
      }

      .cls-36 {
        fill: #e6e6e6;
      }

      .cls-37 {
        fill: #e9e2d2;
      }

      .cls-38 {
        fill: #e9ebea;
      }

      .cls-39 {
        fill: #f4f5f4;
      }

      .cls-40 {
        fill: #f5ebc0;
      }

      .cls-41 {
        fill: #f5ecba;
      }

      .cls-42 {
        fill: #e7e8e8;
      }

      .cls-43 {
        fill: #e8dcc4;
      }

      .cls-44 {
        fill: #e8ddc3;
      }

      .cls-45 {
        fill: #e8d9bd;
      }

      .cls-46 {
        fill: #fce662;
      }

      .cls-47 {
        fill: #fce906;
      }

      .cls-48 {
        fill: #e7dac4;
      }

      .cls-49 {
        fill: #e7dec6;
      }

      .cls-50 {
        fill: #e3d9c6;
      }

      .cls-51 {
        fill: #e3e5e4;
      }

      .cls-52 {
        fill: #e4dac2;
      }

      .cls-53 {
        fill: #e4dbcc;
      }

      .cls-54 {
        fill: #e4d7c1;
      }

      .cls-55 {
        fill: #e4d7c2;
      }

      .cls-56 {
        fill: #e4ddcd;
      }

      .cls-57 {
        fill: #e9dec8;
      }

      .cls-58 {
        fill: #ece2cb;
      }

      .cls-59 {
        fill: #e8e9e8;
      }

      .cls-60 {
        fill: #edefef;
      }

      .cls-61 {
        fill: #ebddbc;
      }

      .cls-62 {
        fill: #ede1bf;
      }

      .cls-63 {
        fill: #f4ebc4;
      }

      .cls-64 {
        fill: #e8eaea;
      }

      .cls-65 {
        fill: #f0f1f1;
      }

      .cls-66 {
        fill: #f0f1f2;
      }

      .cls-67 {
        fill: #f1e7c8;
      }

      .cls-68 {
        fill: #f1f2f2;
      }

      .cls-69 {
        fill: #f1e4b6;
      }

      .cls-70 {
        fill: #ece4d1;
      }

      .cls-71 {
        fill: #ecdfbf;
      }

      .cls-72 {
        fill: #ece0c5;
      }

      .cls-73 {
        fill: #ece1c4;
      }

      .cls-74 {
        fill: #faf3c4;
      }

      .cls-75 {
        fill: #fbe55b;
      }

      .cls-76 {
        fill: #fbe05d;
      }

      .cls-77 {
        fill: #fae70a;
      }

      .cls-78 {
        fill: #fbe607;
      }

      .cls-79 {
        fill: #fbf7cb;
      }

      .cls-80 {
        fill: #fbe23f;
      }

      .cls-81 {
        fill: #fbe307;
      }

      .cls-82 {
        fill: #e5e7e7;
      }

      .cls-83 {
        fill: #e6ddca;
      }

      .cls-84 {
        fill: #e6ded0;
      }

      .cls-85 {
        fill: #e6d7bb;
      }

      .cls-86 {
        fill: #fadf48;
      }

      .cls-87 {
        fill: #fae60a;
      }

      .cls-88 {
        fill: #fadd38;
      }

      .cls-89 {
        fill: #eceeed;
      }

      .cls-90 {
        fill: #fce94a;
      }

      .cls-91 {
        fill: #fce62b;
      }

      .cls-92 {
        fill: #fce73a;
      }

      .cls-93 {
        fill: #fceb0b;
      }

      .cls-94 {
        fill: #e2e3e3;
      }

      .cls-95 {
        fill: #efe6d0;
      }

      .cls-96 {
        fill: #efe7cc;
      }

      .cls-97 {
        fill: #eff0ef;
      }

      .cls-98 {
        fill: #e4e4e2;
      }

      .cls-99 {
        fill: #e5dfd4;
      }

      .cls-100 {
        fill: #fdf20f;
      }

      .cls-101 {
        fill: #fdf00c;
      }

      .cls-102 {
        fill: #fdec07;
      }

      .cls-103 {
        fill: #fdee0a;
      }

      .cls-104 {
        fill: #b5b5b4;
      }

      .cls-105 {
        fill: #b7b5b1;
      }

      .cls-106 {
        fill: #b8b8b7;
      }

      .cls-107 {
        fill: #c2bcb3;
      }

      .cls-108 {
        fill: #c2c2c1;
      }

      .cls-109 {
        fill: #b3b3b2;
      }

      .cls-110 {
        fill: #cecac2;
      }

      .cls-111 {
        fill: #cdcdcc;
      }

      .cls-112 {
        fill: #b1b1af;
      }

      .cls-113 {
        fill: #bcbbb8;
      }

      .cls-114 {
        fill: #d7d0c3;
      }

      .cls-115 {
        fill: #d7d2cd;
      }

      .cls-116 {
        fill: #d8d8d6;
      }

      .cls-117 {
        fill: #d8d8d8;
      }

      .cls-118 {
        fill: #d8d9d8;
      }

      .cls-119 {
        fill: #bbbbba;
      }

      .cls-120 {
        fill: #bcb8b2;
      }

      .cls-121 {
        fill: #bdbbb6;
      }

      .cls-122 {
        fill: #dad1c1;
      }

      .cls-123 {
        fill: #bebdbd;
      }

      .cls-124 {
        fill: #cccdcb;
      }

      .cls-125 {
        fill: #c6bfb5;
      }

      .cls-126 {
        fill: #cac3b7;
      }

      .cls-127 {
        fill: #c9c5bf;
      }

      .cls-128 {
        fill: #c9c9c9;
      }

      .cls-129 {
        fill: #cfcfcf;
      }

      .cls-130 {
        fill: #dee0df;
      }

      .cls-131 {
        fill: #dedfde;
      }

      .cls-132 {
        fill: #dedfdf;
      }

      .cls-133 {
        fill: #dedcd8;
      }

      .cls-134 {
        fill: #deddd8;
      }

      .cls-135 {
        fill: #dddedd;
      }

      .cls-136 {
        fill: #ddd3be;
      }

      .cls-137 {
        fill: #ddd7cc;
      }

      .cls-138 {
        fill: #ddd4c9;
      }

      .cls-139 {
        fill: #ddd8d2;
      }

      .cls-140 {
        fill: #d2d2d2;
      }

      .cls-141 {
        fill: #d2cfc9;
      }

      .cls-142 {
        fill: #cfcac1;
      }

      .cls-143 {
        fill: #cfc6b7;
      }

      .cls-144 {
        fill: #c3c0ba;
      }

      .cls-145 {
        fill: #c4c1bb;
      }

      .cls-146 {
        fill: #d5cdbf;
      }

      .cls-147 {
        fill: #dcd6c9;
      }

      .cls-148 {
        fill: #dcdddb;
      }

      .cls-149 {
        fill: #dcdddc;
      }

      .cls-150 {
        fill: #dbd1c5;
      }

      .cls-151 {
        fill: #dcd8cf;
      }

      .cls-152 {
        fill: #dbdcdc;
      }

      .cls-153 {
        fill: #dbdad7;
      }

      .cls-154 {
        fill: #dbdbd7;
      }

      .cls-155 {
        fill: #dbdbd8;
      }

      .cls-156 {
        fill: #dbdcdb;
      }

      .cls-157 {
        fill: #d9cfbc;
      }

      .cls-158 {
        fill: #d3caba;
      }

      .cls-159 {
        fill: #d4d5d4;
      }

      .cls-160 {
        fill: #dadad9;
      }

      .cls-161 {
        fill: #dadcdb;
      }

      .cls-162 {
        fill: #dad4cb;
      }

      .cls-163 {
        fill: #d9d6d1;
      }

      .cls-164 {
        fill: #d9d8d4;
      }

      .cls-165 {
        fill: #afaead;
      }

      .cls-166 {
        fill: #e0d6c1;
      }

      .cls-167 {
        fill: #e0e0de;
      }

      .cls-168 {
        fill: #d7d4d0;
      }

      .cls-169 {
        fill: #d7d5d3;
      }

      .cls-170 {
        fill: #d7d3cb;
      }

      .cls-171 {
        fill: #d8d1c9;
      }

      .cls-172 {
        fill: #c5c5c5;
      }

      .cls-173 {
        fill: #dbd9d6;
      }

      .cls-174 {
        fill: #e2d4be;
      }

      .cls-175 {
        fill: #e2ddd6;
      }

      .cls-176 {
        fill: #e1e1e1;
      }

      .cls-177 {
        fill: #e2d9c8;
      }

      .cls-178 {
        fill: #e2d7c8;
      }

      .cls-179 {
        fill: #e1e2e2;
      }

      .cls-180 {
        fill: #e1e3e3;
      }

      .cls-181 {
        fill: #e0e1e1;
      }

      .cls-182 {
        fill: #e1dbd2;
      }

      .cls-183 {
        fill: #c8c6c1;
      }

      .cls-184 {
        fill: #e1ddd5;
      }

      .cls-185 {
        fill: #d5d6d5;
      }

      .cls-186 {
        fill: #dfd4c4;
      }

      .cls-187 {
        fill: #dfd2c1;
      }

      .cls-188 {
        fill: #dfd8cd;
      }

      .cls-189 {
        fill: #dfd7cd;
      }

      .cls-190 {
        fill: #d6d1c7;
      }

      .cls-191 {
        fill: #d5d1cc;
      }
    </style>
  </defs>
  <path class="cls-89" d="M110.7,7.05c1.97-3.04,5.68-2.29,8.45-3.35,1.13-.43,1.98-2.14,3.52-1.63,1.33-.27,2.66,.66,3.99,0,.33,0,.67,0,1,0,2.48,2.21,2.21,4.51,.23,6.86-.84,1-1.67,2.08-2.74,2.79-3.5,2.3-4.3,5.44-3.23,9.28-1.1,1.43-3.14,.83-4.39,1.95,2.72,4.73,4.29,4.89,7.32,.81,3.4,.77,2.53,3.01,1.81,5.21-2.05,3.01-4.8,2.45-7.47,1.22-3.44-1.58-.98,1.02-1.25,1.67,4.24,9.22-2.65,16.65-8.29,23.13-4.61,5.58-6.65,5.99-13.22,2.85-4.56-2.18-5.04-2.03-6.4,2.05-2.64,1.54-4.31,4.05-6.25,6.29-11.44,1.09-22.31,4.13-32.45,9.61-2.84,1.54-4.45,4.37-6.63,6.61-2.27,2.33,.26,4.26,.4,6.38-.3,.39-.71,.65-1.15,.88-1.45,.76-4,.29-3.81,2.9,.11,1.44,1.68,1.86,2.9,2.32,2.28,.86,3.29-.53,4.05-2.35,.12-.3,.34-.55,.56-.8,.42-.23,.87-.29,1.34-.19,3.13,4.87,.67,7.84-7.29,8.4,2.65,4.57-.23,8.17-1.93,12.01-.63,1.3-1.13,2.69-2.42,3.52-3.77,2.09-7.57,3.95-12.02,4.3-11.45,.89-11.68,19.57-23.34,21.91-1.45-1.05-.85-2.61-1.01-3.99-.68-2.31,.12-4.51,.44-6.75,.84-1.25,2.46-1.79,3.08-3.2,3.35-7.53,10.04-10.31,17.36-11.92,6.8-1.5,9.25-7.19,12.04-12.29,1.53-2.79-1.24-3.85-3.71-4.47-4.22-1.05-4.67-2.34-2.59-6.23,1.39-2.6,3.84-4.07,5.98-5.89,2.8-2.38,2.69-4.32-.25-6.25q-5.25-3.46-.16-7.14c.27-.19,.5-.43,.73-.67,5.12-1.53,9.85-3.96,14.7-6.13,4.39-1.96,9.01-3.44,13.22-5.85,5.38,.74,10.66-3.27,16.09-.36,4.05,1.17,3.39-2.82,4.86-4.46-.36-4.71,2.17-7.36,6.3-8.87,5.28-5.97,8.41-13.34,13.02-19.75,2.39-1.85,2.87-5.56,6.25-6.45,2.11-.32,5.49-.81,5.95-3.2,.23-1.69-2.16-1.53-3.06-2.6-2.23-2.58-5.06-5.13-.54-8.15Z"/>
  <path class="cls-51" d="M157.58,3.07c1.76,.43,3.61,.63,4.98,2.01,.3,.44,.3,.86-.05,1.27-.42,.26-.86,.43-1.34,.53-3.46,.3-3.78,3.41-4.78,5.68-1.68,3.83-3.2,7.77-6.57,10.42-9.85,7.76-15.95,18.33-20.81,29.4-6.59,15.01-18.9,23.64-32.13,31.46-3.8,2.25-8.55,2.68-13,3.15-9.27,.98-16.78,4.92-23.6,11.39-13.04,12.36-22.11,27.2-29.37,43.36-.83,1.85-1.01,3.85-1.26,5.81-.19,1.47,.95,1.47,2.01,1.39,.72-.09,1.43-.06,2.13,.1,.96,.28,1.84,.72,2.62,1.36,.77,.72,1.25,1.6,1.39,2.66-.04,1.3-.06,2.61-1.8,2.82-2.73-3.99-6.61-2.33-10.21-2.04-4.7-1.55-5.5-3.04-3.38-7.09,1.69-3.25,3.12-6.6,4.48-9.99,7.75-19.93,20.83-36.01,36.8-49.79,6.25-5.39,14.56-7.18,22.41-9,12.33-2.87,21.21-10.37,29.09-19.58,6.13-7.17,9.03-16.14,13.38-24.29,3.37-6.33,8.43-11.05,13.56-15.69,2.52-2.28,4.71-4.46,5.96-7.69,1.15-2.97,3.36-5.28,5.9-7.23,1.15-.5,2.38-.35,3.59-.4Z"/>
  <path class="cls-102" d="M169.77,191.48c.92,.03,1.84,.06,2.76,.09,.33,1.26-.62,1.54-1.45,1.92-.41,.15-.83,.29-1.22,.45,2.03,10.53-5.92,16.25-11.64,22.53-4.63,5.08-9.66,10.04-15.37,14.11-5.51,3.93-7.24,3.34-8.53-3.15-.57-2.87-1.92-5.38-3.76-7.48-6.87-7.83-11.38-16.67-12.47-27.12-.09-.82-.51-1.58-.78-2.36-.26-.67-.39-1.36-.36-2.07,.04-.45,.15-.9,.31-1.33,.95-1.97,1.94-3.93,2.55-6.06,.14-.44,.33-.85,.53-1.27,1.15-1.63,1.3-4.23,4.11-4.28,1.3,1.1,.59,2.4,.41,3.69-1.51,10.91,1.2,20.32,9.62,27.88,8.41,7.54,19.33,6.67,26.21-2.18,2.36-3.03,2.72-5.56-.76-7.95-4.54-3.12-5.29-7.19-3.27-12.22,2.03-5.09,2.97-10.54,4.86-15.7,1.6-4.4,.13-6.25-4.51-6.36-10.38-.24-20.26,1.17-28.35,8.55-.9,.82-1.95,1.3-3.17,.56-1.33-3,.71-5.35,1.56-7.92,.62-1.87,1.19-3.76,1.65-5.68,.53-1.4,1.19-2.7,2.66-3.35,10.71-.95,21.43-.62,32.15-.21,4.96,3.06,6.74,7.57,5.06,12.96-1.96,6.66-5.56,12.69-7.48,19.34-1.54,6.85,5.03,2.87,8.68,4.61Z"/>
  <path class="cls-149" d="M217.44,45.89c13.13,8.59,27.41,15.33,39.89,24.96,.45,.33,.38,1.06,.04,1.22-.46,.18-.93,.21-1.4,.1-6.26-3.58-6.78-3.19-7.47,4.28-.35,3.84-.87,7.66-1.08,11.51-3.13,.06-4.81-2.24-6.74-4.14-1.46-2.5-2.08-5.16-1.67-8.07,.8-5.55-2.47-8.6-6.88-10.82-8.09-4.06-16.91-5.02-25.74-5.88-.8-.08-1.61,.36-2.43,.47-1.05,.08-1.97-.28-2.8-.88-8.23-7.99-17.01-15.41-25.11-23.56-4.47-3.46-6.09-7.86-4.98-13.48,.63-3.2-.33-6.58,.68-9.79,.56-1.14,1.36-1.23,2.33-.52,1.02,.82,2.09,1.58,3.46,1.73,4.06,2.1,7.92,4.48,10.99,7.96-1.22,2.76-2.38-.41-3.31-.12-2.92,5.7-2.72,10.83,2.01,15.4,3.97,3.84,7.01,8.45,13.5,9.2,5.36,.62,10.64,2.11,16.12,1.99,1.54-.03-.31-1.31,.59-1.56Z"/>
  <path class="cls-82" d="M154.6,4.06c-2.86,3.2-5.51,6.44-6.97,10.66-1.36,3.92-5.68,5.39-8.55,7.99-7.82,7.06-11.69,16.33-15.94,25.41-5.31,11.34-13.99,19.3-24.11,26.23-5.74,3.93-12.35,4.59-18.62,6.33-13.25,3.69-22.64,11.87-31.02,22.47-8.3,10.47-16.53,21.05-21.46,33.55-2.5-.53-1.17-2.34-.92-3.43,.8-3.47,1.48-7,2.79-10.34,.9-2.51,4.33-2.77,4.93-5.55,.38-1.16,1.19-1.97,2.18-2.63,.66-1,1.33-1.99,1.99-2.99,3.14-8.33,10.27-13.9,14.8-21.36,4.26-7.01,11.92-10.32,19.65-12.57,6.48-1.89,12.59-5.1,19.47-5.67,1.29-.11,2.51-1,3.32-2.06,2.56-3.35,6.12-5.46,9.42-7.88,5.77-5.7,10.18-12.31,13.28-19.8,.14-5.79,3.17-10.01,7.36-13.6,1.17-8.55,6.7-14.41,12.43-20.15,.7-.7,1.5-1.44,1.76-2.37,1.36-4.81,4.9-5.67,9.2-5.23,.66,0,1.32,0,1.98,0,.48,.71,1.17,1,2.02,.97,.66,0,1.32,.02,1.98,.03,.64,1.13-.45,1.41-.97,1.97Z"/>
  <path class="cls-181" d="M174.54,12.05c-.66-.33-1.33-.67-1.99-1-1.2,.69-2.3,.01-3.43-.22-2.53-.39-2.31,1.63-2.18,2.91,.6,5.9-2.11,9.98-6.33,13.8-5.26,4.76-6.76,12.15-11.16,17.57-4.41,5.44-5.89,12.24-8.45,18.45-3.45,8.39-10,13.94-16.76,18.5-12.61,8.51-27,13.19-42.4,14.11-6.04,.36-11.23,2.91-15.74,6.76-10.99,9.4-19.24,21.04-26.31,33.5-2.42,4.28-2.56,9.49-3.9,14.23-.82-.02-1.57-.19-1.99-1-3.2-2.02-1.48-4.6-.72-6.99,3.05-9.62,7.81-18.38,13.63-26.59,.24-.44,.52-.85,.83-1.24,6.09-6.53,11.76-13.38,18.96-18.93,6.14-4.73,13.12-5.47,20.1-6.19,21.93-2.28,43.09-18.86,50.66-39.51,3.56-9.73,10.12-17.88,16.74-25.69,4.02-4.73,7.42-9.27,7.49-15.68,.01-1,.46-1.93,.99-2.79,0-.33,0-.65,0-.98,4.33,1.31,8.31,3.31,11.97,5.97,.51,.3,.37,.88,0,1Z"/>
  <path class="cls-60" d="M33.91,72.89c-.14,.47-.14,1.18-.46,1.37-3.58,2.16-6.67,3.57,.58,5.17,4.29,.95,4.23,5.42,.49,8.34-2.88,2.18-7.38,4.93-7.01,8.96,.34,2.04,2.83,.79,4.32,1.2,4.06,1.1,5.36,3.9,2.9,7.46-3.86,5.59-7.2,11.55-15.32,12.56-6.26,.78-11.47,4.27-13.9,10.7-.62,1.63-1.83,2.26-3.52,2.08-1.78-3.87-.86-7.96-1.01-11.97,1.49-5.28,3.04-10.55,4.46-15.85,1.42-5.31,5.34-9.57,8.7-12.93,6.07-6.05,11.24-14,19.76-17.08Z"/>
  <path class="cls-60" d="M89.76,47.95c-.28,.4-.52,1.11-.86,1.16-3.93,.65-5.48,2.72-4.3,6.66,.08,.27-.54,.76-.83,1.15-.71-.62-.83-1.38-.6-2.03-2.33,1.76-3.56,4.6-5.38,7.01-2.45-1.71-5.15-2.26-7.68-.56-3.01,2.02-5.52-.57-8.28-.44,5.47-2.49,10.54-5.75,13.97-10.65,3.94-5.65,7.51-11.57,10.97-17.58,5.88-10.24,11.98-20.82,23.94-25.62-3.56,3.15,.64,5.32,1,7.98-.02,2.75-2.68,4.36-2.99,6.98-3.36,.63-2.82,5.16-5.98,5.98-1.06-1.63-2.23-1.84-3.47-.21-4,5.29-7.08,11.14-10.26,16.93-.65,1.19,.27,2.2,.77,3.23Z"/>
  <path class="cls-118" d="M217.44,45.89c.75,1.07,1.51,2.14,2.51,3.55-6.37-1.73-12.7-1.81-18.86-2.63-7.41-.99-10.65-5.89-15.09-10.02-5.73-5.32-4.67-11.31-1.29-17.48,1.54-.46,1.72,2.97,3.82,1.67,4.99,2.17,7.87,6.85,11.95,10.12,5.85,4.68,11.33,9.83,16.96,14.79Z"/>
  <path class="cls-128" d="M279.14,95.83c5.48,10.36,7.69,21.43,7.02,33.09-.07,1.28-.62,2.54-.94,3.81-.54,.32-1.02,.23-1.42-.25-.46-.7-.69-1.47-.79-2.29-.21-2.64-.12-5.29-.14-7.93,.33-4.01-.18-7.92-1.28-11.8-.72-2.53-2.03-2.93-4.69-3.02-10.89-.34-19.54,5.81-28.93,9.6-7.57,3.05-15.73,5.62-20.97,12.72-.41,.33-.87,.52-1.39,.6-1.65-.03-2.96-.62-3.66-2.22,.91-6.33,6.36-8.49,10.71-11.67,.41-.25,.84-.44,1.29-.61,6.76-2.99,14.18-4.64,19.85-9.83,1.33-1.24,2.75-2.41,4.52-2.88,6.07-1.62,11.2-4.53,14.53-10.09,.44-.74,1.29-.95,2.15-.97,2.32,.21,2.5,2.79,4.15,3.74Z"/>
  <path class="cls-16" d="M161.63,225.48c-10.57,14.01-21.11,28.04-31.76,41.99-1.58,2.07-3.32,4.17-6.03,4.97-1.64,.65-3.33,.34-5.01,.25-1.69-.67-2.92-2.09-2.81-3.71,.32-4.63-.75-9.59,2.65-13.62,3.93,1,1.03,4.46,2.46,6.7,6.78-2.6,10.44-8.62,15.1-13.59,6.45-6.87,11.09-15.22,18.07-21.63,2.39-.73,4.09-5.26,7.33-1.35Z"/>
  <path class="cls-38" d="M149.6,1.08c-8.71,1.13-9.87,10.36-15.7,14.69-4.24,3.15-5.27,8.56-7.24,13.23-.33,.46-.66,.46-1,0,.08-1.74,1.96-3.85-1-4.99-1.6-.4-2.59-1.39-2.99-2.99-7.6-9.11,10.67-9.7,5.98-18.95,5.27-3,11.05-1.79,16.66-2,1.84-.07,3.64,.01,5.28,1.01Z"/>
  <path class="cls-129" d="M279.14,95.83c-2.07,0-2.13-2.58-3.87-3-1.96-2.32-3.32-2.28-5.97-.12-10.8,8.8-21.92,17.24-35.3,21.94-3.03,1.06-5.76,2.55-8.19,4.62-2.86,1.2-4.92,3.59-7.61,5.05-1.61,.28-2.94-.22-3.98-1.48,.59-4.32,3.9-6.48,7.24-8.15,8.75-4.36,17.28-9.09,25.8-13.88,6.32-3.55,12.09-7.48,16.08-13.65,1.32-2.04,3.14-3.4,5.61-3.76,1.17-.15,1.74,.73,2.43,1.41,3.61,2.96,5.6,7.05,7.77,11.02Z"/>
  <path class="cls-25" d="M36.9,114.76c-.33,1-.67,1.99-1,2.99-1.51,2.31-3.93,2.79-6.38,3.33-6.15,1.36-7.97,3.7-7.76,10.01,.08,2.44-.43,4.61-2.13,6.39-4.69,4.91-8.77,10.45-14.62,14.17-2.6-2.84-1.11-6.91-3.01-9.96,6.28-4.1,9.87-10.32,13.45-16.64,2.1-3.72,5.39-6.52,9.93-6.5,4.36,.02,7.62-2.74,11.52-3.78Z"/>
  <path class="cls-35" d="M30.92,122.74c-.71,4.71-3.12,9.07-2.99,13.96-.74,3.94-2.48,7.49-4.55,10.83-2.07,3.35-1.06,4.79,2.55,5.12-.64,3.05-4.51,2.64-5.58,5.22-3.62,1.49-5.86,4.29-7.4,7.76-2.07-1.51-3.34-3.54-3.96-6-1.72-3.14-1.48-5.27,1.87-7.71,4.56-3.33,7.47-8.33,9.71-13.58,1.62-3.81,2.81-7.81,4.97-11.36,1.23-2.03,2.18-4.64,5.39-4.25Z"/>
  <path class="cls-59" d="M30.92,122.74c-5.56,3.52-6.43,9.83-8.86,15.16-2.91,6.39-6.03,12.67-12.35,16.28-3.24,1.85,.84,3.86-.73,5.46-2-2.33-3.26-5.02-3.97-7.99,1.02-1.25,1.15-2.7,2.9-3.99,4.55-3.37,8.16-8.08,11.91-12.45,.83-.97,1.29-2.58,.76-4.24-1.94-6.06,3.7-10.81,8.27-11.1,2.61-.17,4.84-.93,7.05-2.11,0,3.33-3.67,2.98-4.99,4.99Z"/>
  <path class="cls-87" d="M161.63,225.48c-3.25-2.55-4.38,2.42-7.04,1.97-.6-4.48,3.3-6.63,5.35-9.59,4.99-7.91,16.54-14.72,10.61-25.31,.81-.02,1.56-.19,1.99-.99,3.23-.24,6.56-.2,8.42,2.89,1.85,3.08-.29,5.76-1.92,8.18-5.34,7.96-11.12,15.59-17.41,22.83Z"/>
  <path class="cls-77" d="M169.77,191.48c-11.63,.29-12.04-.32-7.62-11.14,1.43-3.52,2.61-7.16,4.29-10.55,2.58-5.24,1.58-9.82-1.88-14.16,1.89-1.76,4.1-1.28,6.3-.95,1.05,.29,1.97,.79,2.74,1.56,1.93,4.27,.97,8.69,.65,13.08-1.04,2.84-2.09,5.68-3.84,8.19-.76,1.07-1.56,2.12-2.18,3.28-.84,1.51-1.8,2.94-2.74,4.38-.82,1.28-2.19,2.06-2.99,3.36-3.08,4,5.54,1.39,7.27,2.95Z"/>
  <path class="cls-168" d="M47.88,189.5c-2.99-1-5.98-1.99-8.97-2.99-.57-1.35-2.51-1.53-2.75-3.18,1.52-5.7,6.16-10.03,7-16.03,2.32-5.66,4.75-11.26,6.2-17.25,.7-2.9,1.41-6.35,5.6-6.51,2.11,5.51-2.22,9.63-3.18,14.48-1.85,9.31-4.77,18.43-4.79,28.04,0,.28,.35,.54,.59,.79,.62,.83,1.14,1.67,.3,2.66Z"/>
  <path class="cls-43" d="M107.77,193.59c-3.32-2.59-6.74,.12-10.11-.19-1.87-1.23-4.56,.93-6.13-1.5,.29-.9,1.56-1.02,2.04-.51-.84-.93-2.02,0-3.05-.19-6.62-.91-12.93-2.39-16.31-9.1-.96-1.91-1.93-3.83-.97-6.05,3.77-1.56,4.4,3.2,7.21,3.57,4.4,3.52,9.06,6.47,14.92,6.8,4.81,1,9.71,1.33,14.55,2.06,.94,2.4,.92,4.4-2.15,5.11Z"/>
  <path class="cls-91" d="M119.67,255.36c-2.33,5.53-3.92,11.09-.96,16.92-5.51,1.54-5.98-5.98-5.05-9.55,2.91-12.34,4.47-24.89,5.92-37.45,.25-2.18,.2-3.95-2.9-3.64-1.96,.19-3.97-.14-5.95-.24-.32-.56-.21-1.04,.31-1.42,1.24-.77,2.65-.78,4.04-.88,2.75,.03,5.52-.23,8.25,.34,2.28,1.12,3.88,2.34,.54,4.19-2.12,.72-1.53,2-.71,3.37,1.92,3.18,2.19,7.1,1.34,10.67-1.66,4.28-1.73,8.92-3.05,13.27-.47,1.53-.42,3.26-1.77,4.43Z"/>
  <path class="cls-153" d="M36.9,183.57c.59,1.03,2.14,1.41,2,2.94-2.66-1.33-5.32-2.67-7.98-4-5.16-5.59-5.35-6.07-.16-12.07,4.43-5.12,7.04-11.08,9.35-17.27,.99-1.24,1.95-2.56,3.86-1.7,1.19,1.68,.12,3.44,.2,5.16-1.5,6.62-3.19,13.14-7.49,18.67-2.1,2.71-2.99,5.61,.21,8.29Z"/>
  <path class="cls-148" d="M40.89,153.66c-1.72,7.59-5.47,14.09-11.01,19.48-3.84,3.73-.44,6.39,1.04,9.38-1.99-1.32-3.98-2.65-5.97-3.97-.74-1.42-2.35-2.29-2.6-4.04,3.92-6.33,8.79-11.91,13.66-17.5,.51-.52,1.11-.95,1.55-1.55,.73-1.9-.15-3.88,.23-5.74,.53-2.54,.32-5.73,4.08-6.19,1.26,1.45,.34,3.1,.45,4.66-.12,1.92-.69,3.72-1.44,5.47Z"/>
  <path class="cls-98" d="M22.94,174.6c.55,1.37,2.12,2.23,2.01,3.94-4.51-3.83-9.16-7.53-12.01-12.9-.75-3.94,1.9-6.96,7-7.99,4.68,4.2,8.93,3.42,12.97-1.01,.72-.79,1.68-1.62,2.99-.99,1.17-.72,.96-1.9,1-2.99,.51-.34,.96-.27,1.34,.2,.09,1.28,.48,2.59-.35,3.79-.33,.33-.67,.66-1,1-4.81,5.89-13.34,6.56-17.44,12.95,1.55,.55,2.77,2.03,3.48,4.01Z"/>
  <path class="cls-75" d="M107.77,193.59c1.44-1.36,1.91-3.13,2.1-5.02-.29-1.92,.86-3.84,1.35-5.67,1.58-4.26,2.84-8.63,4.74-12.76,1.97-4.01,3.16-8.35,5.3-12.28,1.73-3.17,4.07-5.25,8.03-3.78,.47,.29,.72,.72,.73,1.27-.19,.48-.48,.88-.87,1.22-4.35,3.75-5.89,9.09-7.81,14.16-2.51,6.63-6.81,12.55-7.82,19.76-1.18,2.94-1.49,6.17-2.99,9.01-1.03,1.31-1.68,3.07-3.7,3.27-1.14-.78-1.45-1.86-1.09-3.16,.67-2,1.34-4.01,2.01-6.01Z"/>
  <path class="cls-86" d="M119.58,225.28c.93,12.77-1.97,25.07-4.42,37.45-.71,3.58-2.32,8.14,3.55,9.56,1.71,.05,3.42,.11,5.13,.16-4.41,1.48-8.72,2.27-12.24-1.93-1.49-6.68,.8-12.94,2.19-19.29,.94-4.29,2.04-8.55,2.81-12.89l-.03,.04c1.04-2.95,1.37-6.06,2.02-9.1,.07-1.4-.1-2.86,.99-4.01Z"/>
  <path class="cls-27" d="M162.5,188.53c.09-1.69,1.33-2.74,2.25-3.96,3.14-2.23,6.71-2.52,10.39-2.38,8.87,0,17.03-2.75,24.96-6.41,2.19-.15,3.75,.76,4.67,2.76,.12,1.23-.48,2.11-1.39,2.84-7.26,3.03-15.08,3.29-22.72,4.41-1.64,.24-3.27,.35-4.72,1.23-3.46,.33-6.98-.57-10.39,.54-1.02,.32-2.03,.64-3.05,.97Z"/>
  <path class="cls-191" d="M47.88,189.5c-.03-.81-.21-1.53-1-1.95-1.08-4.02,1.83-5.15,4.62-6.36,5.22,3.23,9.86,7.38,15.59,9.81,.07,.91-.75,1.08-1.25,1.51-3.4,.43-6.66-.5-9.96-1.03-.82-.9-1.9-.97-3.01-.93-1.66-.35-3.32-.71-4.98-1.06Z"/>
  <path class="cls-144" d="M258.49,173.68c-2.52,2.62-5.76,3.9-9.15,4.92-7.44,1.63-7.65,1.51-9.95-5.91-.22-1.68-.73-3.34-.3-5.06,.6-.87,1.45-1.35,2.46-1.59,2.47-.18,3.3,1.83,4.5,3.35,1.84,4.28,4.75,5.97,9.3,3.97,1.03-.45,2.2-.71,3.14,.33Z"/>
  <path class="cls-142" d="M237.36,182.55c-3.19,1.34-6.48,2.16-9.97,2-1.97-.58-3.02-1.49-1.27-3.44,3.19-2.45,4.68-6.09,6.52-9.48,.41-.87,.87-1.7,1.7-2.26,1.4-.26,2.31,.53,3.15,1.46,.28,.39,.49,.82,.63,1.28,.52,3.53-2.63,6.8-.76,10.43Z"/>
  <path class="cls-121" d="M258.49,173.68c-7.01,1.88-10.31,4.72-13.14-4.07-1.01-1.71-2.43-3.31-1.54-5.55,1.47-1.55,2.25,.01,3.04,.79,1.47,1.45,2.87,2.97,4.66,4.05,3.39,3.3,6.78,2.64,10.17,0,1.5-1.04,2.59-2.74,4.65-2.85,.48,.08,.88,.3,1.19,.67-2.43,3.08-5.34,5.52-9.03,6.97Z"/>
  <path class="cls-83" d="M176.54,186.55c-.92-2.21,.62-1.91,1.95-2,8.44-.57,16.75-2,24.97-3.97,.71-.54,1.42-.63,2.14-.02-1.64,4.33-5.76,3.66-9.12,4.51-1.36,0-2.72-.05-4.08,0-.66,.07,.41,.93,.05,.37-.13-.2,.01-.38,.37-.29,1.28,.3,3.24-1.09,3.66,1.42-6.33,.28-12.66,.56-18.99,.85-.43-.16-.74-.45-.94-.85Z"/>
  <path class="cls-183" d="M237.36,182.55c-2.11-1.05-3.22-2.24-1.69-4.8,1.07-1.79,1.79-3.91,1.7-6.14,1.46-1.07,2.25-.1,2.99,1,.78,5.32,4.06,6.88,8.98,5.99-3.73,2.13-7.74,3.38-11.98,3.95Z"/>
  <path class="cls-162" d="M65.83,192.52c.33-.33,.66-.65,.99-.98,1.98-1.94,4.78-.94,7.01-1.96,.83-.22,1.68-.31,2.53-.39,5.21,.25,10.32,1.2,15.39,2.35,1.51,2.07,4.34-.03,5.91,1.85-10.61-.17-21.27,1.2-31.83-.88Z"/>
  <path class="cls-137" d="M196.47,186.56c-1.26-1.71-3.36-.55-4.91-1.99h4.91c5.39-.85,10.7-2.08,15.93-3.61,.49-.08,.99-.06,1.47,.06,.45,.17,.8,.47,1.07,.86,.45,2.48,4.47,.66,4.47,3.68-7.58,1.92-15.29,.7-22.94,1Z"/>
  <path class="cls-190" d="M219.41,185.56c-.92-1.3-2.32-1.01-3.57-.96-1.64,.06-2.06-.56-1.41-2.01,4.18-1.04,7.35-5.19,12.26-4,.61,1.07,.49,2.07-.29,3-1.11,1.47,.38,2.08,.99,2.98-2.52,1.47-5.29,.91-7.98,1Z"/>
  <path class="cls-76" d="M105.76,199.6c.32,.97,.64,1.95,.96,2.92,.74,.8,1.1,1.86,.58,2.72-2.57,4.22-3.39,9.16-5.69,13.49-1.87-1.86-2.03-4.02-1.24-6.41,1.46-4.39,2.89-8.78,5.39-12.72Z"/>
  <path class="cls-80" d="M101.6,218.73c-.13-4.46,1.38-8.45,3.71-12.12,.83-1.31,1.55-2.51,1.4-4.09,1-1,1.99-2,2.99-3,1.87,2.35-.09,4.33-.63,6.44-1.36,4.61-4.66,8.62-4.35,13.76-.75,.28-1.47,.26-2.17-.16-.32-.28-.64-.55-.96-.83Z"/>
  <path class="cls-46" d="M116.61,238.34c.15,6.22-2.01,12.01-3.4,17.93-1.11,4.7-1.68,9.42-1.6,14.24-1.81-2-1.23-4.46-.92-6.65,1.23-8.67,3.05-17.23,5.93-25.52Z"/>
  <path class="cls-108" d="M284.24,132.71c.32,0,.65,0,.97,0-.73,7.99-3.39,15.3-7.85,21.96-.37,.36-.77,.38-1.19,.12-.58-1.19,0-2.24,.41-3.31,.37-.84,.77-1.66,1.15-2.5,1.37-2.22,1.12-5.01,2.55-7.21,2.05-2.71,.49-6.99,3.97-9.07Z"/>
  <path class="cls-117" d="M271.38,84.8c-.7-.32-1.39-.64-2.09-.96-2.55-.7-3.79-3.03-5.68-4.54-1.83-2.7-5.53-3.81-6.28-7.42,0-.35,0-.69,.01-1.04,5.73,3.6,10.56,8.1,14.05,13.96Z"/>
  <path class="cls-15" d="M.99,118.75c1.45,3.9,.92,7.96,1.01,11.97,.3,2.42-.42,4.69-1.02,6.98C-.18,136.97,.03,135.8,0,134.7c.82-4.32,.82-8.63,0-12.95,.03-1.1-.18-2.28,.99-3Z"/>
  <path class="cls-104" d="M267.52,166.71c-.41-.03-.82-.06-1.22-.09-.72-1.53,.56-2.39,1.14-3.5,.39-.54,.83-1.03,1.29-1.52,1.41-1.47,2.41-3.36,4.37-4.27,.48-.1,.93-.02,1.36,.21,.24,.45,.21,.88-.08,1.3-1.34,3.44-4.24,5.54-6.86,7.87Z"/>
  <path class="cls-11" d="M0,121.75c1.62,4.32,1.63,8.64,0,12.95,0-4.32,0-8.64,0-12.95Z"/>
  <path class="cls-188" d="M176.54,186.55c.32,.29,.63,.57,.94,.86-3.98,.05-7.95,.1-11.93,.15,3.49-2.14,7.34-.46,10.98-1.01Z"/>
  <path class="cls-46" d="M118.6,229.28c.27,3.24-.09,6.35-2.02,9.1-.02-3.19,.71-6.21,2.02-9.1Z"/>
  <path class="cls-119" d="M274.37,158.85c-.04-.4-.07-.8-.11-1.2-.95-1.3-.94-2.45,.53-3.36,.56-.14,1.05-.02,1.47,.37,.36,0,.72,.02,1.09,.03-.35,1.85-1.52,3.11-2.99,4.16Z"/>
  <path class="cls-76" d="M102.56,219.56c.72-.04,1.44-.07,2.16-.11,1.38-.76,2.77-.15,4.15-.02,.71,.17,1.35,.46,1.78,1.09,.03,.29,.06,.58,.08,.87-2.92,.24-5.8,.32-8.17-1.83Z"/>
  <path class="cls-39" d="M126.66,2.07c-1.33,1.4-2.66,1.41-3.99,0,1.33-1.82,2.66-.51,3.99,0Z"/>
  <path class="cls-133" d="M52.85,190.57c1.6-1.63,2.56-1.15,3.01,.93-1.11,.04-2.26,.2-3.01-.93Z"/>
  <path class="cls-131" d="M174.54,12.05c0-.33,0-.66,0-1,1,.66,2,1.31,3,1.97-1.43,1-2.17-.11-3-.98Z"/>
  <path class="cls-23" d="M154.6,4.06c.32-.66,.65-1.31,.97-1.97,.83,0,1.57,.17,2.01,.98-.72,1.17-1.89,.96-2.98,.99Z"/>
  <path class="cls-65" d="M153.59,2.06c-.48,.81-1.22,1.23-2.04,.76-.76-.44-.08-1.14,.03-1.73,.83,0,1.57,.17,2.02,.97Z"/>
  <path class="cls-31" d="M119.68,42.96c-2.55,7.8-7.56,14-12.97,19.95-4.85-.08-8.63,.59-9.67,6.79-.49,2.9-4.5,3.72-7.67,3.02-4.98-1.1-9.46,.35-14.09,1.9-8.05,2.69-16.22,4.94-21.84,12.04-1.42,1.8-2.38,4.04-4.57,5.17-.33,0-.67,0-1,0-2.23,.24-3.23-.76-2.99-2.99-4-2.6-3.09-4.82-.41-8.31,5.9-7.71,14.56-9.73,22.91-12.52,3.41-1.14,7.12-1.43,10.42-2.79,2.4-.98,4.09-.38,5.98,.68,2.71-.59,3.92,2.04,6,2.82,1.13,.42,2.22,.82,3.21-.17,1.01-1.01,.64-2.09,.04-3.16-1.03-1.86-2.82-3.26-3.26-5.47-2.63-3.4-.91-4.65,2.5-4.94,.79-.07,1.65,.17,2.41,.46,3.47,1.34,6.86,5.79,10.66,2.12,6-5.8,12.4-11.7,12.94-20.92,.09-1.51-1.03-3.09-1.58-4.64,2.47-.21,3.76,1.25,3.58,3.39-.22,2.52,.5,5.14-.59,7.58Z"/>
  <path class="cls-42" d="M48.87,91.83c4.04-8.29,10.22-13.95,19.41-16.06,2.08-.48,4.07-1.38,6.07-2.15,5.13-1.97,10.11-3.64,15.88-1.96,4.68,1.36,7.37-1.64,6.74-6.48-.46-3.57,1.48-5.25,4.6-3.61,1.71,.9,3.28,1.44,5.15,1.34-4.15,2.64-7.76,5.88-11.17,9.42-1.56,1.61-4.1,1.06-6.06,1.71-9.8,3.25-20.12,5.19-28.84,11.29-3.49,2.44-6.46,5.17-8.09,9.15-1.25,3.04-3.7,5.15-6.09,7.12-3.41,2.81-3.73,7.79-7.57,10.18,.74-1.83,1.41-3.68,2.24-5.47,.74-1.59,1.09-3.08,0-4.67-.68-1.01-2.57-1.78-1.54-3.21,.87-1.22,2.39-.25,3.67,0,4.52,.89,6.93-1.99,5.6-6.59Z"/>
  <path class="cls-66" d="M89.76,47.95c-1.82-.02-3.86-.4-2.5-2.71,3.87-6.6,7.03-13.66,12.21-19.43,.72-.8,1.5-2.03,2.86-1.33,1.75,.9,.18,2.35,.39,3.52-4.06,6.82-7.4,14.11-12.97,19.95Z"/>
  <path class="cls-97" d="M89.76,59.91c2.51,1.02,3.07,3.78,4.88,5.44,1.71,1.57,.46,3.06-.47,4.35-1.01,1.41-2.62,1.58-3.98,.74-2.23-1.37-4.28-3.02-6.41-4.55,.75-3.24,1.89-6.09,5.98-5.98Z"/>
  <path class="cls-97" d="M44.88,88.83c.65,1.34,1.65,2.34,2.99,2.99-.06,2.09,.4,4.72-2.67,4.84-2.68,.11-5.27-1.12-6.77-3.3-1.35-1.96,.44-3.46,2.12-4.14,1.29-.52,2.88-.29,4.34-.4Z"/>
  <path class="cls-97" d="M121.68,21.02c1.34,.65,2.34,1.65,2.99,2.99-.34,1.66,.92,4.57-2.29,4.18-2.9-.35-5.62-1.9-6.98-4.69-.46-.95,.53-2.22,1.87-2.36,1.46-.15,2.94-.09,4.41-.12Z"/>
  <path class="cls-64" d="M119.68,42.96c-.63-3.76,1.89-8.37-2.99-10.97-.17-.62-.3-1.26-.54-1.86-.37-.93-2.03-1.74-.5-2.81,.89-.63,1.87,.09,2.6,.79,2.25,2.17,4.68,2.76,7.41,.89h1c-3.42,4.11-6.37,8.45-6.98,13.96Z"/>
  <path class="cls-68" d="M108.71,22.02c-2.16-3.68,1.49-4.87,2.99-6.98,1.78-.14,3.58,.25,4.17,1.98,.67,1.96-1.56,2.61-2.54,3.81-1.21,1.48-2.98,1.17-4.62,1.2Z"/>
  <path class="cls-12" d="M77.79,61.91c-.05-2.89,1.16-5.16,3.55-6.72,2.1-1.37,2.57-.18,2.43,1.73-1.93,1.74-.57,7.42-5.98,4.99Z"/>
  <path class="cls-180" d="M31.91,149.67c-3.02,1.77-4.1,1.13-3.74-2.53,.44-4.47,3.06-7.94,4.71-11.86,7.03-16.66,18.01-30.2,31.59-42.08,6.03-5.27,12.84-6.47,19.95-7.28,10.37-1.18,18.17-7.18,26.42-12.61,10.73-7.06,15.2-18.56,21.03-29.04,4.12-7.41,8.11-14.82,15.04-20.03,5.36-4.03,7.36-10.06,9.96-15.77,.9-1.99,1.77-4.26,4.69-2.4,.47,7.23-3.33,12.89-7.76,17.68-7.99,8.64-14.43,18.19-19.05,28.9-5.58,12.92-15.77,21.19-26.72,29.26-8.24,6.08-17.38,8.05-26.89,8.59-7.99,.46-13.84,4.27-19.17,9.28-5.17,4.87-10.03,10.1-14.1,15.98-7.16,8.48-11.19,18.69-15.81,28.58-.86,1.84-.48,3.54-.15,5.33Z"/>
  <path class="cls-130" d="M37.9,152.66c-.33,0-.66,0-1,0-.33-.66-.67-1.33-1-1.99-1-7.88,2.3-14.38,6.35-20.77,7.57-11.96,15.93-23.17,27.84-31.27,3.7-2.52,7.86-3.57,12.15-3.74,6.36-.25,12.37-1.59,18.33-3.81,4.73-1.76,9.61-2.85,14.35-4.97,7.67-3.43,13.27-9.16,19.37-14.29,7.75-6.79,7.66-18.55,13.64-26.51,5.3-7.47,7.9-16.76,15.67-22.62,3.22-2.43,1.7-6.48,1.96-9.86,.29-3.94,.79-4.29,3.99-2.77,.76,7.15-1,13.05-5.17,19.43-6.2,9.49-13.68,18.43-17.28,29.52-9.79,31.77-38.83,36.9-67.94,40.34-4.01,.4-7.68,1.77-10.78,4.58-11.27,10.19-21.4,21.24-27.63,35.37-.48,1.09-.51,2.26-.81,3.37-1.48,3.17-1.7,6.59-2.05,9.99Z"/>
  <path class="cls-179" d="M47.87,115.76c3.6-8.26,10.55-13.71,16.7-19.81,5.41-5.37,12.46-6.86,19.56-6.97,12.61-.2,21.77-7.02,31.25-14.08,9.86-7.33,15.81-17.12,20.79-27.91,4.04-8.76,9.57-16.54,16.35-23.5,4.7-4.83,7.16-11.03,9.05-17.43,.33,0,.67,0,1,0,.7,6.72-1.09,12.33-5.84,17.5-8.02,8.72-15.17,18.25-19.11,29.6-3.76,10.84-11.34,18.16-20.15,24.95-10.56,8.14-22.22,13.03-35.45,13.56-9.04,.36-15.14,5.63-21.49,10.89-4.74,3.92-7.49,9.73-12.67,13.21Z"/>
  <path class="cls-24" d="M35.9,155.65c-6.37,5.18-9.56,10.57-15.96,2,.13-3.91,3.95-3.37,5.99-4.99,3.58-.55,10.41-3.15,9.97,2.99Z"/>
  <path class="cls-179" d="M31.91,149.67c-2.27-1.16-2.54-3.08-1.41-5.01,4.78-8.23,7.7-17.47,13.49-25.16,1.1-1.46,2.23-2.87,3.88-3.74-.22,2.08-1.41,3.61-2.66,5.21-5.82,7.42-8.63,16.3-11.93,24.94-.56,1.46,.08,2.57,.62,3.76h-1.99Z"/>
  <path class="cls-47" d="M122.72,222.54c.74-.14,1.89-.05,2.13-.47,.44-.81-.5-1.24-1.17-1.59-8.37-4.39-11.82-11.67-12.23-20.76,.14-2.84,1.18-5.33,3.01-7.5,1.02-.96,1.75-2.27,3.23-2.67,1.25,.98,1.83,2.34,1.95,3.87,.76,9.8,5.14,17.86,11.48,25.16,2.53,2.91,4.84,6.17,4.61,10.58-.17,3.2,1.84,3.65,4.21,2.06,2.18-1.46,4.35-3.04,6.21-4.88,6.89-6.82,14.39-13.07,20.09-21.03,2.28-3.18,4.19-6.37,1.55-10.34-1.36-2.05-.15-2.57,1.76-2.42,3.76,5.84,3.92,9.19-.72,14.88-10.75,13.16-21.28,26.53-32.92,38.94-2.05,2.18-4.55,3.85-6.89,5.68-1.93,1.51-3.98,1.47-6,.16-2.02-1.3-2.08-3.08-1.39-5.22,1-3.11,.89-6.48,2.05-9.58,0-1.33,.01-2.67,.02-4,2.14-3.8-2.91-7.01-.96-10.88Z"/>
  <path class="cls-103" d="M125.67,171.61c5.56-4.11,11.11-8.37,18.15-9.47,4.7-.73,9.52-1.06,14.28-1.04,4.92,.02,7.11,3.6,4.97,8.13-2.85,6.03-3.68,12.66-6.11,18.8-3.22,9.35,12.79,6.8,5.42,16.98-8.03,11.81-21.88,9.71-29.23,2.54-8.84-8.63-12.17-18.69-8.79-30.76,.09-.31-.44-.79-.68-1.2-.95-2.14-.63-3.64,1.99-3.99Z"/>
  <path class="cls-78" d="M123.67,237.42c.48,3.04-.76,5.88-1.23,8.79-.36,2.25-1.11,3.99,1.56,5.4,2.6,1.37,3.87-.15,5.57-1.58,10.29-8.65,18.57-19.14,26.92-29.55,6.57-8.38,18.27-15.91,13.06-27.93,.33,0,.66,0,.99,0,3.95,4.31,4.35,7.72,.8,12.61-4.41,6.06-9.1,11.92-13.8,17.76-1.15,1.43-2.18,2.87-2.95,4.52-8.06,9.89-16.12,19.79-24.2,29.67-2.35,2.87-5.74,4.39-8.64,6.54-.71,.53-1.54,.78-2.29,.27-.79-.53-.76-1.44-.4-2.22,.95-2.06,.53-4.22,.62-6.35,.76-6.11,1.33-12.26,4-17.94Z"/>
  <path class="cls-92" d="M115.66,192.54c-1.77,1.99-2.96,4.23-2.97,6.97-1.28,2.13-.67,5.34-3.7,6.48-.49,.03-.92-.14-1.28-.47,.85-1.94,2.26-3.69,1.99-6,1.06-2.97,.89-6.35,2.99-8.97,4.2-10.02,8.23-20.11,12.71-30.01,.82-1.81,1.59-3.64,3.25-4.88,.32-.01,.65-.02,.97-.04,.35-.34,.69-.33,1.03,.03-.34,.99-.68,1.98-1.02,2.96-2.72,7.43-5.98,14.64-8.98,21.96h0c-1.01,2.32-2.06,4.63-3,6.98h0c-.9,1.57-1.14,3.4-2.02,4.98Z"/>
  <path class="cls-90" d="M130.66,155.66c-.34,0-.68-.02-1.03-.03,.02-.3,.03-.6,.03-.9,1.69-1.86,3.96-1.44,6.06-1.45,10.44-.05,20.87-.05,31.31-.01,1.75,.29,4.1-.47,4.35,2.47-13.57-.21-27.15-.04-40.72-.07Z"/>
  <path class="cls-93" d="M120.67,180.58c2.02-7.72,5.34-14.9,8.98-21.96-.1,4.71-3.32,8.45-3.98,12.99-1.3,1.01-1.83,2.41-1.99,3.99-1.01,1.65-1.38,3.69-3,4.98Z"/>
  <path class="cls-103" d="M117.67,187.56c.03-2.75,1.18-5.01,3-6.98,0,2.76-1.16,5.02-3,6.98Z"/>
  <path class="cls-103" d="M115.66,192.54c-.02-1.94,.44-3.69,2.02-4.99,0,.67,0,1.34,0,2-.68,1-1.35,1.99-2.03,2.99Z"/>
  <path class="cls-132" d="M203.46,58.92c1.9-1.31,3.66-2.9,6.07-.67,1.3,1.2,3.17,.7,4.79,.65,8.57-.29,15.7,3.49,22.7,7.78,2.4,1.47,3.34,3.54,3.32,6.17-.03,3.7-.31,7.42,1.02,11-.68,.34-1.29,.08-1.91-.2-3.04-.99-4.84-.26-4.59,3.32-.06,.24-.12,.47-.18,.71-.31,.43-.72,.68-1.24,.78-3.29-.66-6.4-.22-9.71,.54-13.55,3.11-16.33,1.1-20.26-11.13-1.72-5.35-2.94-10.56-7.27-14.43,.37-1.26,1.52-1.41,2.35-1.04,3.75,1.69,4.72-.29,4.9-3.48Z"/>
  <path class="cls-131" d="M38.89,142.69c-.27-4.44,2.39-8.01,4.42-11.34,6.82-11.19,15.39-20.97,25.59-29.35,5.94-4.88,13.09-3.84,19.75-5.13,17.04-3.32,34.13-6.14,47.14-19.47,4.64-4.75,6.57-10.81,8.92-16.41,3.69-8.8,8.84-16.53,13.66-24.6,2.83-4.73,6.41-8.93,8.94-13.84,2.07-4.01-.03-8.61,2.23-12.48,1,.33,2,.67,3,1-.3,4.9,.36,9.8-.57,14.72-.84,4.39,3.72,6.11,5.56,9.21-2.12,1.72-3.49-1.3-5.65-.78-1.35,2.35,2.96,4.57,.47,7.02-.17,0-.37,.07-.5,0-6.13-3.23-5.99-3.1-11.28,1.94-4.21,4.01-6.99,8.79-8.92,14.16-.95,2.66-2.12,5.23-2.99,7.91-6.87,21.12-23.03,29.25-43.55,32.03-9.15,1.24-18.21,3.18-27.4,4.44-7.83,1.07-13.2,7.24-18.02,13.27-6.5,8.14-13.74,15.76-17.93,25.54-.48,1.12-1.1,2.54-2.87,2.18Z"/>
  <path class="cls-34" d="M172.54,40.96c-.13-1.72-.96-3.14-1.98-4.45-1.05-1.35-1.39-2.7,.08-3.89,2.78-2.14,4.12,2.6,6.89,2.35,7.75,7.89,16.68,14.54,23.94,22.94,.72,1.36,2.36,2.54,1.03,4.34-1.32,1.79-2.84,.43-4.38,.35-4.48-.23-7.19-3.58-10.68-5.52-5.64-4.75-11.86-8.97-14.9-16.13Z"/>
  <path class="cls-117" d="M247.34,87.84c-2.59-5.76,.22-11.25,1.02-16.8,.44-3.07,2.13-4.65,5.09-1.71,.9,.89,2.36,1.18,2.87,2.56,1.46,2.06,1.74,4.39,.7,6.58-2.42,5.11-4.33,10.32-4.67,16.02-.06,1-.68,1.84-1.44,2.52-1.2,.84-2.5,.95-3.86,.51-.46-.21-.77-.58-.93-1.06,1.14-1.86,4.07-3.25,1.59-6.06-.39-.81-.91-1.61-.37-2.56Z"/>
  <path class="cls-159" d="M250.34,96.81c1.6-4.55,.69-9.65,3.02-14.04,1.81-3.41,3.88-6.74,2.96-10.89,.33,0,.67,0,1,0,2.46,2.19,5.23,4.08,6.98,6.98-2.78,6.52-8.16,11.36-11.4,17.59-.46,.89-1.58,1.12-2.56,.36Z"/>
  <path class="cls-36" d="M247.34,87.84c.33,.66,.66,1.33,1,1.99,1.69,4.02-.19,5.21-3.91,4.95-4.13-1.65-8.17-3.43-10.05-7.95h0c-.36-4.87,2.54-4.82,5.98-3.98,.33,.33,.67,.66,1,.99,1.99,1.33,3.99,2.66,5.98,3.99Z"/>
  <path class="cls-94" d="M187.5,55.92c3.73,.97,5.68,4.97,9.53,5.67,1.5,.27,2.97,1.89,4.57,.44,1.49-1.35-.36-2.73-.13-4.12,.66,.33,1.33,.67,1.99,1,.84,1.77,1.88,3.78,.3,5.38-1.35,1.37-2.97-.46-4.51-.62-.94-.1-1.85-.51-2.77-.78-3.53,1.35-5.08-1.79-7.38-3.24-.87-1.1-2.25-1.99-1.59-3.75Z"/>
  <path class="cls-68" d="M25.86,95.94c0,.16,.05,.39-.04,.48-4.92,5.39-4.5,14.33-11.97,18.04-.71,.35-1.31,1.28-2.16,.75-1-.63-.75-1.75-.5-2.69,1.86-6.79,5.73-12.53,9.77-18.15,.68-.95,1.63-1.67,2.98-1.01,1.08,.54,2.03,1.15,1.92,2.57Z"/>
  <path class="cls-108" d="M284.24,121.74c0,2.99,0,5.98,0,8.98-1.42,.7-2.66,.03-3.69-.74-3.26-2.48-6.48-4.54-10.82-2.4-1.01,.5-2.44-.02-3.2-.92-3.74-4.41-8.42-3.17-12.86-1.98-5.71,1.53-11.65,2.65-16.33,6.77-.86,.75-2.04,1.09-3.21,1.29-1.36,.18-2.67,.1-3.82-.75-.52-.71-.61-1.49-.4-2.32,2.62-4.22,7.13-5.96,11.25-7.85,8.58-3.93,17.36-7.43,26.76-9.06,4.71-.82,8.78,.53,12.8,2.81,2.54,1.44,2.75,3.9,3.54,6.18Z"/>
  <path class="cls-172" d="M284.24,121.74c-4.12-7.5-10.6-9.75-21.45-6.58-11.44,3.34-22.67,7.33-32.41,14.56-1.33,.99-2.66,1.21-3.99,0,.97-3.67,3.82-5.68,6.84-7.36,10.51-5.84,22.07-9.41,32.73-15.03,3.96-2.09,9.32,.05,13.91-1.65,1.18-.44,2.08,.89,2.48,2.44,1.17,4.48,2.31,8.94,1.89,13.63Z"/>
  <path class="cls-123" d="M234.38,131.72c7.52-5.35,15.91-8.08,25.04-9.37,3.28-.46,5.06,.59,6.83,2.54,1.1,1.21,2.56,2.57,3.74,1.62,4.71-3.82,7.5,.13,10.8,2.24,1.12,.71,2.3,1.32,3.45,1.98,0,.66,0,1.33,0,1.99-1.65,3.12-.77,7.01-3,9.96-4.94-9.16-17.92-15.27-28.35-13.16-4.5,.91-9.17,1.5-12.87,4.69-2.5,.75-3.62,4.58-7.09,3.21-1.13-2.31-.31-4.12,1.44-5.7Z"/>
  <path class="cls-111" d="M225.4,118.75c1.64-3.05,4.69-4.06,7.66-4.99,6.19-1.93,11.8-4.83,16.97-8.77,6.87-5.23,14.95-8.64,20.87-15.42,2.62-3,3.37,1.41,4.37,3.25-3.78,4.42-7.49,9.04-13.43,10.56-2.77,.71-5.26,1.72-7.51,3.4-6.48,4.38-13.99,6.59-20.94,9.97-2.61,.86-4.74,3.64-7.98,1.99Z"/>
  <path class="cls-110" d="M222.41,127.73c1,.67,1.99,1.33,2.99,2-.17,3.48-.49,6.94-1.75,10.24-1.84,1.53-3.68,1.45-5.54,.04-1.46-1.83-2.53-3.82-2.54-6.25,.39-2.3,.99-4.49,3.24-5.74,1.17-.46,2.34-.98,3.61-.29Z"/>
  <path class="cls-124" d="M222.41,127.73c-1,.33-2,.67-2.99,1-2.27-1.27-2.37-2.98-1-4.99,1.62-2.65,3.8-4.52,6.98-4.99,2.66-.66,5.32-1.33,7.98-1.99-3.59,3.72-8.88,5.74-10.97,10.97Z"/>
  <path class="cls-127" d="M223.41,139.69c.03-3.45-.31-6.97,1.99-9.97,1.66,0,3.33,0,4.99,0v2c.26,3.17-2.77,5.2-2.87,8.24-.31,.94-.73,1.79-1.74,2.17-1.09,.19-1.91-.26-2.56-1.1-.22-.48-.15-.93,.19-1.33Z"/>
  <path class="cls-124" d="M233.38,116.76c.69-2.13,2.87-2.31,4.41-2.8,5.77-1.83,10.59-5.8,16.53-7.17-.5,.65-.86,1.55-1.52,1.92-6.16,3.43-12.37,6.77-19.42,8.05Z"/>
  <path class="cls-140" d="M250.34,96.81c3.69-2.2,4.62-6.48,7.12-9.6,2.25-2.81,4.27-5.8,6.84-8.35,2.05,1.28,3.71,2.94,4.99,4.99-2.76,1.26-4.71,3.29-6.35,5.86-2.97,4.66-7.34,7.79-12.12,10.48-9.82,5.53-19.43,11.42-29.78,15.98-2.79,1.23-4.83,3.94-6.6,6.57-.34,.41-.77,.68-1.29,.83-1.93,.31-3.59-.19-4.88-1.72,2.1-6.52,7.32-10.09,13.04-12.65,8.14-3.65,16.11-7.53,23.62-12.35,.43-.27,.94-.24,1.42-.05h3.99Z"/>
  <path class="cls-141" d="M213.43,122.74c.33,0,.67,0,1,0,1.33,.33,2.66,.66,3.99,1-.11,1.75,.05,3.45,1,4.99-2.31,.87-1.85,3.41-2.99,4.99-1.85,.7-3.35,.19-4.59-1.3-1.16-3.5-1.38-6.85,1.6-9.67Z"/>
  <path class="cls-18" d="M171.39,155.73c-.91-1.51-2.53-.87-3.81-1.26-.4-.29-.84-.52-1.31-.68-3.49-.46-7.05,.31-10.53-.48-2.18-3.01-4.91-5.63-6.49-9.08,.68-1.41,2.01-1.77,3.34-1.76,12.31,.12,23.44,2.98,30.74,14,4.42,6.67,3.49,12.77-2.51,18.18-1.85,1.67-3.73,3.42-6.05,4.33-1.98,.77-4.49,1.95-5.36-1.61,1.37-2.67,2.74-5.34,4.11-8.01,1.59-4.19,2.87-8.39-.02-12.57l-2.11-1.06Z"/>
  <path class="cls-6" d="M169.42,177.36c1.21,1.7,2.93,1.49,4.47,.89,12.2-4.75,14.46-18.05,4.21-26.38-7.71-6.26-16.9-8.65-26.81-8.1-.57,.03-1.12,.59-1.68,.9-.56,.59-1.24,.76-2.02,.63-.76-.27-1.24-.76-1.29-1.6,.89-2.25,1.38-4.73,3.62-6.2,12.56,1.4,24.77,3.91,35.47,11.22,1.6,2.51,3.22,5.01,4.44,7.73,7.17,14.92-5.53,25.35-19.8,25.87-1.19,.09-2.87,.28-2.54-1.91,.27-1.26,.95-2.27,1.95-3.07Z"/>
  <path class="cls-2" d="M167.47,180.43c7.73,1.64,14.08-1.34,19.49-6.38,4.37-4.06,4.21-9.27,2.66-14.73-1.11-3.89-4.46-6.61-5.11-10.65,.54-1.6,1.83-2.17,3.34-2.46,1.32,.04,2.47,.53,3.52,1.31,4.82,5.42,6.83,12.03,7.2,19.03,.39,7.26-5.58,13.07-14.99,15.23-2.68,.61-5.37,1.19-8.05,1.79-3.68-.57-7.17,.91-10.78,.99,.91-1.38,1.81-2.76,2.72-4.13Z"/>
  <path class="cls-9" d="M173.5,156.79c4.35,3.57,4.35,6.58,.02,12.57,0-4.19-.01-8.38-.02-12.57Z"/>
  <path class="cls-115" d="M51.86,181.58c-2.12,1.61-4.51,2.99-4.98,5.98-1.12-.17-2.6-.16-2.31-1.81,1.42-8.22,3.92-16.19,4.59-24.61,.32-4.02,2.74-7.91,4.41-11.77,.8-1.85,1.48-3.64,1.28-5.68-.95-2.4,.43-4.06,1.84-5.7,5.25-6.12,10.72-11.99,18.35-15.26,4.36,0,8.89-1.21,12.83,1.78,.13,4.15-3.32,4.2-5.94,5.22-9.33,1.72-16.05,6.59-20.99,14.97-5.23,8.88-5.64,18.98-8.9,28.31-.98,2.8,2.28,5.76-.18,8.57Z"/>
  <path class="cls-169" d="M74.8,123.74c-6.76,4.03-12.39,9.33-17.57,15.21-1.29,1.46-1.34,3.29-2.38,4.73-3.6,1.99-4.12,5.66-4.96,9.14-1.27,5.23-3.25,10.17-6.01,14.8-1.98-1.38-1.94-3.23-1.02-5.13,1.09-2.26,1.24-4.63,1.18-7.06,6.22-16.83,18.36-35.75,37.18-39.46,1.17-.22,2.3-.27,3.35,.41,1.06,2.41-1.2,2.67-2.39,3.44-2.34,1.51-4.98,2.5-7.38,3.91Z"/>
  <path class="cls-164" d="M44.88,155.65c.62,2.43,.7,5.02-.77,6.96-1.42,1.87-.34,3.35-.23,5.01,.03,6.35-4.8,10.57-6.98,15.96-4.85-.69-4.76-3.55-2.58-6.69,4.28-6.18,7.33-12.8,8.56-20.24,.56-.55,.86-1.6,1.99-1Z"/>
  <path class="cls-55" d="M73.8,175.6c.54,7.89,5.45,12.87,13.81,13.94,1.13,.15,2.35-.11,3.14,1.02-15.44,1.59-24.94-5.32-26.33-18.44,.85-2.52,1.71-5.03,5.06-5.03,2.76,1.61,3.33,4.65,4.7,7.18,.08,.5-.05,.95-.38,1.33Z"/>
  <path class="cls-186" d="M64.83,171.61c5.85,13.82,10.54,19.29,25.93,18.95,1.03,.06,2.05,.11,3.23,.18-.66,1.11-1.52,.69-2.23,.82-5.38,.63-10.61-1.06-15.96-1-10.83-2.36-20.09-11.18-14.96-22.96,2.44-.19,2.34,2.42,3.72,3.39,.09,.2,.18,.41,.27,.62Z"/>
  <path class="cls-21" d="M110.81,186.59c-.32,.66-.63,1.32-.94,1.98-5.19,1.98-10.1-.44-15.12-1.01-2.39-1.63-5.3-2.55-7.02-5.09-1.1-1.63-2.23-3.26-1.14-5.36,1.43-1.59,3.14-1.82,5.06-1.05,4.93,6.15,11.77,8.84,19.15,10.54Z"/>
  <path class="cls-62" d="M86.77,177.59c.31,5.21,5.68,6.36,7.98,9.97-5.97-.22-10.58-3.35-14.96-6.98-1.87-3.13-1.18-5.88,1.25-8.38,.77-.38,1.57-.45,2.4-.26,2.28,1.19,3.91,2.77,3.33,5.65Z"/>
  <path class="cls-61" d="M81.78,172.6c-1.94,2.34-2.08,5.13-1.99,7.98-2.91-.56-3.8-3.55-5.98-4.98,0-.33,0-.67,0-1-1.43-2.75-.66-5.12,1.24-7.31,1.59-1.42,3.26-2.66,5.6-2.14,2.32,2.18,2.18,4.75,1.14,7.45Z"/>
  <path class="cls-81" d="M108.74,205.53c1.32-2.01,2.63-4.01,3.95-6.02,.45,6.53,1.8,12.62,7.39,16.95,1.4,1.08,2.4,2.67,3.59,4.02-2.99,0-5.98,0-8.98,0-.52-.46-1.17-.54-1.82-.67-6.23-1.26-6.61-1.76-6.2-8.14,.57-2.08,1.04-4.2,2.05-6.14Z"/>
  <path class="cls-19" d="M107.7,211.49c-1.97,6.34,3.74,6.71,6.99,8.99-1.35,.02-2.7,.03-4.05,.05-.64-.03-1.28-.06-1.91-.09-4.93-3.27-5.2-5.6-1.03-8.94Z"/>
  <path class="cls-19" d="M122.72,222.54c.57,3.61,3.17,7.03,.96,10.88,.19-2.41-.58-4.48-1.94-6.47-1.13-1.65-2.36-3.62,.98-4.41Z"/>
  <path class="cls-160" d="M40.89,153.66v-5.98c1.54-1.81,2.39-4.05,3.12-6.18,3.45-10.07,10.86-17.28,17.74-24.84,7.6-8.35,16.71-13.06,28.56-12.22,7.87,.56,15.83,1.16,23.77,.31,1.34-.14,2.65-.04,3.82,.76,.93,1.13,1.62,2.3,.68,3.76-3.87,2.71-8.41,2.5-12.8,2.88-2.45,.21-4.94-.07-7.38,.44-1.29,.3-2.63,.54-3.93,.33-19.92-3.2-31.51,8.35-41.07,23.29-2.93,4.57-4.81,9.78-7.98,14.24-.39,.55-.93,.94-1.54,1.21-1.55-.16-1.96,1.39-2.99,1.99Z"/>
  <path class="cls-116" d="M43.88,151.66c6.67-12.79,12.29-26.43,25.16-34.6,7.16-4.55,14.84-7.84,23.76-5.5,1.56,.41,3.29,.16,4.94,.22,3.97,2.57,4.06,2.73,3.28,5.56-5.41-.38-10.86,.37-16.25-.57-20.78,1.92-32.2,21.71-39.89,38.89-.66,.33-1.33,.66-1.99,1,.33-1.66,.66-3.32,1-4.99Z"/>
  <path class="cls-135" d="M187.5,55.92c.66,1,1.33,1.99,1.99,2.99-.37,.32-.8,.5-1.29,.52-4.54-1.86-6.92-6.23-10.56-9.13-1.3-1.28-2.54-2.63-3.88-3.87-1.83-1.7-3.84-4.35-4.77,.67-.17,.94-1.04,1.45-1.88,1.26-4.61-1.03-6.23,2.52-7.88,5.43-4.7,8.3-7.25,17.42-9.46,26.64-.73,3.05-.73,6.29-2.42,9.09-6.35,5.68-13.87,9.1-21.99,11.38-14.77,.37-29.44,2.13-44.14,3.4-7.54,.65-14.01,4.56-18.58,10.52-6.31,8.23-14.45,15.21-18.01,25.43-.46,1.32-1.26,2.74-2.75,3.42-2.82,1.93-2.76,4.94-3.01,7.86-.15,1.73,.65,3.66-.98,5.1,0-1.33,0-2.66,0-3.99-1.05-3.46-.23-6.74,1-9.97,4.19-6.31,6.77-13.66,12.12-19.2,6.05-6.27,10.47-13.96,17.74-19.21,5.32-3.84,11.24-5.05,17.27-4.91,3.46,.08,6.47-.55,9.53-1.58,6.62-2.22,13.71-1.73,20.36-3.89,12.77-4.15,24.06-9.78,29.11-23.55,1.82-4.96,4.3-9.68,5.8-14.77,2.32-7.86,8.81-12.68,13.65-18.69,1.32-1.63,3.42-1.26,4.69,.55,.96,1.37,1.78,2.8,3.37,3.54,4.65,5.32,9.51,10.44,14.96,14.96Z"/>
  <path class="cls-156" d="M41.89,143.68c3.13-10.4,10.9-17.81,16.86-26.42,3.69-5.33,8.52-9.11,14.2-11.93,2.05-1.02,4.26-2.29,6.45-2.37,15.46-.62,30.76-3.45,46.28-3.16-1.5,3.54-4.66,4.87-7.98,5.98-23.48,3.36-39.37-8.12-56.86,13.99-.52,.64-.91,1.42-1.51,1.96-5.88,5.26-10.6,11.19-13.22,18.87-.88,2.58-2.58,5.37-5.21,7.07l1-3.99Z"/>
  <path class="cls-167" d="M22.94,174.6c-4.98-3.96-5.16-6.72,.73-9.85,4.41-2.34,8.88-4.63,13.23-7.11-4.65,5.65-9.31,11.3-13.96,16.95Z"/>
  <path class="cls-14" d="M167.55,153.66c0,.27,.01,.54,.02,.81-12.64,.09-25.27,.17-37.91,.26-9.27-1.79-8.39,10.94-12.88,16.02-2.74,1.17-5.7,1.56-8.56,2.33-2.33,.63-4.14-.5-5.65-2.2-.64-3.23,1.51-5.3,3.41-7.21,5.53-5.6,11.72-10.49,17.65-15.66,2.26-.82,4.44-2.08,7-1.57,1.08,1.93,1.53,4.01,1.41,6.2,7.76-.39,15.51-1,23.22,.31,4.08,.69,8.25-.48,12.29,.7Z"/>
  <path class="cls-10" d="M102.73,170.61c2.97,1.67,5.84,1.62,9.04,.28,1.36-.57,3.33-1.18,5.02-.14-1.5,4.34-2.6,8.83-4.88,12.88-2.93,3.31-5.44,.27-7.9-.72-3-1.2-5.18-3.46-5.9-6.81-.04-1.87,1.06-3.25,2.06-4.67,.72-.69,1.45-1.36,2.56-.82Z"/>
  <path class="cls-40" d="M98.74,175.6c3.08,5.7,8.24,8.84,13.17,8.03-.18,1.06-.09,2.21-1.1,2.96-8.28,.35-14.93-2.42-19.06-9.99-.3-.44-.31-.87,.03-1.3,2.36-1.05,4.68-.87,6.95,.3Z"/>
  <path class="cls-90" d="M128.66,155.67c-4.65,10.76-9.32,21.52-13.9,32.31-.48,1.12-.92,2.08-2.06,2.58-.68-6.05,3.56-10.41,5.43-15.57,1.99-5.52,4.56-10.84,7.12-16.13,.64-1.32,1.35-3.15,3.42-3.19Z"/>
  <path class="cls-28" d="M175.53,183.57c3.56-2.12,7.75-2.35,11.51-4.11,12.12-5.68,11.38-12.03,8.84-20.72-1.14-3.91-2.72-7.81-5.39-11.07-.03-1.78,.65-3.23,2.1-4.28,1.88-.22,3.26,.8,4.62,1.89,4.87,7.05,15.21,26.56,3.25,31.32-7.64,4.72-16.11,6.47-24.93,6.98Z"/>
  <path class="cls-73" d="M200.47,176.59c8.19-7.44,3.18-15.19,.4-22.77-1.05-2.86-2.9-5.44-4.38-8.14,.76-1.31,1.87-2.1,3.37-2.31,3.15,1.38,3.69,4.87,5.77,7.11,3.79,6.45,7.9,12.9,5.78,20.88-.92,3.48-2.39,6.99-6.95,7.22-1.38-.56-2.25-2.14-3.99-1.99Z"/>
  <path class="cls-44" d="M204.46,178.59c6.72-5.35,7.9-9.19,5.02-17.2-1.34-3.72-2.49-7.55-5.02-10.72-.26-1.6-.34-3.14,1.19-4.23,1.52-.02,2.45,.96,3.18,2.07,4.23,6.46,6.83,13.54,7.69,21.22,.19,1.68-.33,3.27-1.17,4.74-2.63,3.11-5.08,6.53-9.89,6.12h-2c.33-.66,.67-1.33,1-1.99Z"/>
  <path class="cls-171" d="M51.86,181.58c-2.02-14.6,2.56-27.87,9.47-40.16,4.17-7.41,11.34-12.16,20.45-12.7,.38,1.91-1,3.08-1.86,4.47-13.35,8.45-20.31,20.81-22.44,36.24-1.04,7.57,1.83,13.28,9.05,16.93,2.5,1.27,5.1,2.35,7.27,4.19-2.1,1.91-4.66,.61-6.98,.99-5.79-2.12-11.19-4.82-14.96-9.97Z"/>
  <path class="cls-126" d="M225.4,141.69c.8-.43,.98-1.18,1-2,1.96-.51,2.82,.83,3.7,2.17,1.42,6.66,4.62,12.56,7.84,18.47,1.21,2.22,2.97,4.47,1.43,7.29,.95,1.54,1.1,3.24,1,4.99-1-.33-1.99-.66-2.99-1h0c-3.56-8.16-8.12-15.84-11.21-24.2-.67-1.8-1.7-3.66-.76-5.71Z"/>
  <path class="cls-107" d="M244.35,163.63c-.35,2.11,.67,3.99,1,5.98-1.75-.43-1.84-3.09-3.99-2.99-3.47-5.2-5.34-11.22-8.62-16.56-1.77-2.88-2.37-6.57-.91-10.1,.31-.45,.74-.72,1.27-.82,1.79-.01,2.88,.99,3.63,2.48,.1,5.1,1.98,9.6,4.57,13.91,1.5,2.5,3.41,4.88,3.04,8.1Z"/>
  <path class="cls-125" d="M232.38,139.7c.06,4.71,1,8.77,3.46,13.26,2.21,4.03,6.04,8.23,5.51,13.67-.43,.8-1.17,.98-1.99,1-.97-5.3-4.23-9.55-6.6-14.2-1.9-3.73-3.26-7.52-3.37-11.73,.47-1.45,1.22-2.48,2.99-1.99Z"/>
  <path class="cls-158" d="M223.41,139.69c0,.33,0,.67,0,1,2.55,8.66,7.05,16.44,11.09,24.43,.79,1.55,1.31,3.03-.12,4.49-.02,.82-.19,1.57-1,2-1.92-1.12-2.66-3.24-4.08-4.78-3.85-8.41-9.43-16.01-11.82-25.11,.06-.79,.32-1.49,.95-2.02,1.66,.47,3.32,.47,4.98,0Z"/>
  <path class="cls-143" d="M234.38,169.61c-1.31-6.17-4.74-11.39-7.53-16.9-1.91-3.77-4.21-7.46-3.45-12.01,.67,.33,1.33,.66,2,1,2.45,8.56,7.03,16.18,10.66,24.22,.84,1.85,1.5,3.65,1.31,5.69-1-.66-1.99-1.33-2.99-1.99Z"/>
  <path class="cls-146" d="M230.39,166.62c1.3,1.48,2.77,2.86,2.99,4.99-1.5,3.9-2.28,8.31-6.98,9.97,0-1,0-1.99,0-2.99-1.6-2.85,.7-5.25,.92-7.89,.61-1.66,1.12-3.42,3.07-4.08Z"/>
  <path class="cls-112" d="M273.27,157.65c-1.33,1.66-2.66,3.32-3.99,4.98-1.28-1.11-1-2.71-1.34-4.12-.87-3.59-5.84-6.41-9.32-5.35-1.38,.42-2.37,1.28-2.6,2.7-.52,3.29,1.95,5.04,3.84,7.06,1.62,1.74,3.29,1.94,5.18,.33,1.11-.95,2.35-1.32,3.24,.39-.66,1-1.33,2-1.99,2.99l-3.99,2.99c-5.52,2.26-8.48-1.95-11.04-5.19-2.8-3.53-5.26-7.59-6.15-12.27-1.15-15.01,29.81-5.54,28.16,5.5Z"/>
  <path class="cls-105" d="M246.34,152.66c2.54,6.17,5.62,11.89,11.06,16.19,1.8,1.42,3.59-1.19,4.9,.76-5.22,4.03-7.51,4.03-10.97,0-7.02-6.11-10.49-14.17-12.57-22.97-.47-1.98,.16-3.93,.94-5.79,.58-.97,1.43-1.53,2.57-1.63,1.66,.17,3.1,.71,3.82,2.38,.69,3.67-1.58,7.4,.25,11.05Z"/>
  <path class="cls-120" d="M240.36,140.69c-1.63,11.64,5.16,20.1,10.97,28.92-3.58-.54-4.74-3.89-6.98-5.98-2.94-5.55-6.38-10.83-8.45-16.82-.66-1.91-.41-3.48,.47-5.12-.3-2.22,1.09-2.64,2.85-2.65,.79,.27,1.4,.67,1.14,1.66Z"/>
  <path class="cls-50" d="M205.45,180.58c3.49-1.25,6.16-3.73,8.98-5.98,.89-.79,1.86-.9,2.92-.34,1.71,4.05-1.13,5.68-3.91,7.32-5.31,2.91-11.1,3.12-16.96,2.99,2.7-1.99,6.61-1.25,8.98-3.99Z"/>
  <path class="cls-150" d="M73.8,190.56c-4.99-1.63-9.7-3.92-13.84-7.09-4.3-3.29-4.47-8.67-3.85-13.11,1.37-9.92,3.8-19.84,10.79-27.53,3.64-4.01,7.27-8.43,12.89-10.11,1.92-.5,2.72,.7,3.33,2.19-1.04,3.76-4.87,4.65-7.36,6.86-7.36,6.51-11.49,14.58-13.17,24.09-.12,.66-.27,1.28-.75,1.77-2.95,6.14-1.01,15.02,7.1,19.04,2.35,1.16,4.97,1.91,6.86,3.9h-2Z"/>
  <path class="cls-166" d="M213.43,181.58c1.38-2.3,3.87-3.96,3.99-6.98,2.6-8.88-2.4-15.87-5.93-23.15-1.57-3.24-3.52-6.29-4.82-9.68-.12-1.39,.34-2.53,1.47-3.37,.74-.38,1.51-.42,2.31-.19,1.25,.57,2.13,1.53,2.79,2.72,2.71,8.28,6.53,16.11,10,24.07,.95,2.17,1.52,4.31,1.47,6.65-.92,6.38-4.44,9.77-10.28,9.95-.33,0-.67,0-1,0Z"/>
  <path class="cls-122" d="M214.43,181.58c4.41-2.04,9.08-3.86,8.97-9.97,1.14-1.39,.36-4.11,3.05-4.44,2.11,.32,1.33,2.27,1.94,3.44-.66,2.66-1.33,5.32-1.99,7.98-4.11,.97-7.24,4.86-11.97,3.99,0-.33,0-.67,0-1Z"/>
  <path class="cls-88" d="M107.7,211.49c-3.03,3.37-1.6,6.23,1.03,8.94-1.47,.2-2.77-.29-4.02-.98-1.59-2.69-1.26-5.32,.49-7.73,1.38-1.89,2-4.01,2.5-6.21,.34,0,.68,0,1.02,.01-.34,1.99-.69,3.97-1.03,5.96Z"/>
  <path class="cls-119" d="M239.36,133.71c6.38-6.27,21.38-8.04,28.93-3.33,1.69,1.05,3.33,1.95,5.32,2.42,5.26,1.26,7.53,4.38,7.63,9.87-1.89,1.95-.3,5.38-2.98,7-.96-6.56-5.43-9.41-10.99-12.39-7.94-4.25-15.53-4.59-23.72-2.02-1.53-.17-3.08-.27-4.19-1.56Z"/>
  <path class="cls-106" d="M243.35,134.71c7.09-3.56,14.15-3.95,21.22,.1,1.72,.99,3.53,1.87,5.36,2.64q8.31,3.49,8.33,12.22c-.02,.82-.2,1.56-1,1.99-9.36-10.63-20.49-16.11-34.91-11.97-.66,.33-1.33,.66-1.99,1-.33-.33-.66-.66-1-1-1.04-3.56,.9-4.73,3.99-4.99Z"/>
  <path class="cls-104" d="M242.36,139.69c10.25-7.99,21.65,.85,31.33,5.26,2.69,1.32,2.93,4.19,3.59,6.72-.33,.99-.66,1.99-.99,2.98-.33,0-.67,0-1,0-4.26-7.49-12.55-8.53-19.32-12-1.8-.92-3.88-.7-5.87-.48-1.61,.18-3.28,.85-4.73-.49-1-.66-1.99-1.33-2.99-1.99Z"/>
  <path class="cls-165" d="M268.29,163.63c-.62-.12-1.47-.56-1.83-.31-1.61,1.11-2.68,4.3-5.06,2.56-2.97-2.18-6.39-4.6-6.88-8.65-.36-2.97,.87-5.41,4.63-5.59,6.69-.33,10.13,3.31,10.13,11-.33,.33-.67,.67-1,1Z"/>
  <path class="cls-109" d="M245.35,141.69c10.42-2.81,18.64,2.44,26.84,7.48,1.84,1.13,2.84,3.21,3.08,5.48-1.17,.72-.97,1.9-1,2.99-.33,0-.66,0-.99,0-3.66-8.91-11.27-11.48-19.88-11.88-5.68-.27-6.92,1.3-7.05,6.89-2.48-3.46-1.76-7.21-1-10.97Z"/>
  <path class="cls-101" d="M146.95,166.62c2.71-.39,5.53,.81,8.57,.19,2.63-.54,2.87,1.84,3.09,3.99,.65,6.32-2.86,11.75-3.71,17.76-.26,1.81-.63,3.42-.13,5.23,1.91,6.93-3.32,12.61-10.66,11.65-21.53-3.17-20.47-39.07,2.85-38.82Z"/>
  <path class="cls-152" d="M188.5,58.92c.33,0,.67,0,1,0,2.39,1.22,4.16,3.53,6.98,3.99,5.07,2.92,6.35,7.6,7.85,13.08,3.9,14.22,6.85,15.38,21.6,10.82,3.51-1.09,5.65,.77,8.45,1.03,1.44,1.69,4.91,2.06,3.62,5.54-7.79,2.65-15.45,5.62-22.92,9.08-2.86,1.32-5.64,2.77-8.92,2.69-13.4,.51-20.7-1.02-24.68-15.41,3.46-8.45,1.79-17.89,5.13-26.37,.59-1.5,.59-3.25,1.89-4.45Z"/>
  <path class="cls-176" d="M238.37,92.82c-1.33-1.66-2.66-3.32-3.99-4.98,0-.33,0-.67,0-1,2.99,2.33,5.99,4.65,8.98,6.98-.18,.16-.36,.33-.53,.49-1.86,.62-3.32,.07-4.45-1.49Z"/>
  <path class="cls-176" d="M240.36,82.85c-3-.18-5.48,.42-5.98,3.98-1.35-1.2-1.45-2.72-.13-3.72,1.83-1.37,3.99-2.18,6.11-.27Z"/>
  <path class="cls-185" d="M246.35,96.81c-5.19,3.57-10.09,7.5-16.18,9.69-8.56,3.08-16.37,7.47-21.72,15.24-.45,1.08-1.25,1.51-2.4,1.32-2.13-.75-3.5-2.08-3.4-4.51,1.29-5.33,4.32-8.98,9.62-11,5.07-1.94,9.84-4.61,15.14-6.03,2.38-.63,4.66-1.68,6.52-3.42,3.42-3.19,7.4-4.09,11.89-2.83,.18,.18,.36,.36,.53,.54,0,.33,0,.67,0,1Z"/>
  <path class="cls-176" d="M243.36,93.82c2.87,.18,5.63,.23,4.98-3.98,2.88,4.42,2.71,4.93-1.99,5.98,0,0,0,0,0,0-.58-1.29-3.29,.62-3-1.99h0Z"/>
  <path class="cls-145" d="M232.38,139.7c-1,.66-1.99,1.33-2.99,1.99-1-.67-1.99-1.33-2.99-2,.31-3.17,2.07-5.61,3.99-7.98,1.33,0,2.66,0,3.99,0-.33,1.99-1.35,3.87-1,5.98,.61,.67,.61,1.33,0,2-.33,0-.67,0-1,0Z"/>
  <path class="cls-113" d="M233.38,139.69c0-.67,0-1.33,0-2,2.28-.9,3.14-3.93,5.98-3.99,1.38,.14,2.94-.46,3.99,1-1.85,1.24-3.75,2.46-3.99,4.99-1.44,0-2.43,.67-2.99,1.99-1-.66-1.99-1.33-2.99-1.99Z"/>
  <path class="cls-114" d="M212.44,140.69c-.95-.38-1.62-1.04-2-2-.98-1.03-1.11-2.24-.74-3.56,.5-1.27,1.35-2.16,2.74-2.43,1.45-.15,2.75,.32,3.99,1,.67,1.99,1.33,3.99,2,5.98,0,.67,0,1.33,0,2-.97,.92-.72,2.65-2.15,3.27-2.76-.09-2.52-2.87-3.83-4.27Z"/>
  <path class="cls-170" d="M212.44,132.71c-.38,.95-1.04,1.62-1.99,1.99-2.39-1.7-4.09-4.01-5.74-6.38-.5-2.2-.27-4.18,1.75-5.59,.67-.33,1.33-.67,2-1,1.66,.33,3.32,.67,4.99,1-1.19,3.24-1.04,6.61-1,9.97Z"/>
  <path class="cls-74" d="M147.61,144.68c.66,0,1.33,0,1.99,0,3.25,1.72,5.38,4.27,5.98,7.98-5.28,1.09-10.63,.19-15.93,.49-1.76-2.39-1.65-3.5,.98-4.92,2.29-1.24,4.79-2.08,6.97-3.54Z"/>
  <path class="cls-79" d="M138.63,152.66c5.65,0,11.3,0,16.96,0,3.97,.51,8.12-1.08,11.97,1h-38.89c.73-1.66,2.04-.69,2.98-1,2.33-1.75,4.65-1.75,6.98,0Z"/>
  <path class="cls-1" d="M187.5,146.68c-1,.66-1.99,1.33-2.99,1.99-8.78-4.48-18.26-6.86-27.69-9.44-2.4-.66-5.31,1.24-7.22-1.53-.07-.25-.14-.5-.21-.74,.26-1.37,1.12-2.28,2.25-3,6.8-1.31,13.4,.53,20.06,1.34,6.09,.69,10.32,4.65,14.67,8.38,.86,.74,1.62,1.67,1.12,2.99Z"/>
  <path class="cls-13" d="M138.63,152.66c-2.33,0-4.65,0-6.98,0-.96-1.89-2.25-3.72-1-5.98,2.24-2.01,4.9-3.23,7.72-4.16,2.82-.16,5.74-.95,8.24,1.17,.33,.33,.66,.67,1,1-.64,5.85-8.35,1.83-8.98,7.98Z"/>
  <path class="cls-63" d="M146.61,143.68h-8.98c-1.62-.46-3.64-.07-4.55-2.1-.58-1.69-.11-3.12,1.06-4.38,1.03-.97,2.24-1.43,3.65-1.38,2.62,.39,5.25,.68,7.92,.5,1.45-.1,3.06-.39,3.88,1.38,0,0,0,0,0,0-.71,2.14-.56,4.71-2.99,5.98Z"/>
  <path class="cls-96" d="M187.5,146.68c-4.6-4.47-8.95-9.35-15.96-9.97,.12-2.61,2.17-2.02,3.62-1.97,1.63,.06,3.25,.16,4.87-.08,.5-.03,1,0,1.49,.08,2.93,.57,5.45,2.13,8.11,3.36,1.76,1.45,3.61,2.86,2.86,5.59-.16,1.58-.7,2.98-1.99,3.99-1-.33-1.99-.66-2.99-1Z"/>
  <path class="cls-163" d="M84.77,116.76c5.65-1.77,11.3-1.33,16.95,0,.68-.63,1.4-.56,2.13-.09,.44,2.98-1,5.06-3.26,6.73-3.21,1.08-6.6,1.4-9.88,2.18-1.1,.14-2.12-.02-2.95-.84-4.27-.99-8.62-1.01-12.97-1,2.1-4.07,7.13-3.97,9.97-6.98Z"/>
  <path class="cls-138" d="M87.76,124.74h2.99c3.56-.07,6.59,.63,7.24,4.88-2.72,2.36-6.02,3.76-9.1,5.52-2.07,.33-4.12,.31-6.12-.43-1-.67-1.99-1.33-2.99-2-.41-1.87,.92-2.86,1.99-3.99,2.15-1.1,4.94-1.24,5.98-3.99Z"/>
  <path class="cls-85" d="M75.8,167.62c-1.14,2.19-2.38,4.35-2,6.98-2.16-1.85-2.94-4.49-3.99-6.98-1.55-1.76-1.04-3.6-.34-5.55,2.84-7.96,7.06-14.84,14.73-19.05,1.13-.72,2.28-1.28,3.63-.56,1.43,3.16-1.7,5.02-2.17,7.65-5.93,4.35-7.49,11.16-9.86,17.51Z"/>
  <path class="cls-174" d="M84.77,143.68c-2.05,2.63-5.58,3.68-7.48,6.21-3.92,5.21-6.84,11.04-7.48,17.73-2.89-.21-2.82,3.29-4.99,3.99h0c-.22-.26-.52-.55-.49-.84,1.25-12.97,6.07-23.95,17.57-31.14,.58-.36,1.27-.32,1.94-.16,1.29,1.19,2.05,2.5,.93,4.22Z"/>
  <path class="cls-187" d="M83.78,139.69c-11.9,6.93-16.75,18.98-18.95,31.91-2.58-.14-3.09-1.84-2.99-3.99-1.1-6.91,2.65-12.34,5.56-18,3.44-6.69,9.97-10.23,15.39-14.91,1.99-1.64,3.99-.33,5.98,0,.07,.24,.14,.47,.22,.71-.97,2.35-2.11,4.5-5.2,4.28Z"/>
  <path class="cls-22" d="M91.76,175.6c0,.33,0,.67,0,1-1.75-.11-3.45,.05-4.99,1-1-1.66-1.99-3.32-2.99-4.99-.83-2.57,.25-4.56,1.93-6.38,1.66-.8,3.08-.35,4.35,.85,1.15,1.45,1.91,3.1,2.51,4.84,.33,1.35,.19,2.61-.8,3.67Z"/>
  <path class="cls-20" d="M85.77,166.62l-2,5.98h-2c-1.2-2.2-.24-4.71-1-6.98-1.96-2.78,.42-4.69,1.51-6.71,3.44-6.37,8.36-11.4,14.54-15.19,1.58-.34,3.13-.32,4.65,.29,.97,.53,1.55,1.32,1.58,2.46-1.32,2.91-4.46,3.75-6.61,5.74-3.63,3.36-7.49,6.47-8.71,11.63-.27,1.16-1.15,1.97-1.98,2.78Z"/>
  <path class="cls-33" d="M96.74,144.68c-6.7,5.93-13.74,11.6-15.96,20.94-1.66,.66-3.32,1.33-4.99,1.99,.04-7.46,2.74-13.59,8.98-17.95,2.91-4.05,6.12-7.54,11.85-6.32,.43,.41,.47,.85,.12,1.33Z"/>
  <path class="cls-134" d="M117.69,105.79c2.16-2.66,5.38-3.9,7.98-5.98,7.52-2.63,14.73-5.86,20.95-10.97,1.32-.51,2.47-.06,3.59,.62,.55,.37,1.16,.72,1.5,1.27,5.3,8.62,13.49,11.87,23.08,13.18,5.16,.7,10.39,2.11,14.17,6.33,1.59,3.21,4.85,5.66,4.44,9.78-4.4,.88-7.72-1.82-11.33-3.49-1.9-.88-3.47-2.45-5.72-2.54-2.67-.6-5.25-1.49-7.83-2.39-5.71-2.79-11.68-4.83-17.86-6.31-8.18,1.58-15.16,6.14-22.8,9.09-.74,.18-1.47,.17-2.19-.05-2.12-2.1-5.85-2.19-6.98-5.54-.33-1-.66-1.99-1-2.99Z"/>
  <path class="cls-173" d="M118.68,108.78c2.29,1.72,5.69,1.88,6.98,4.99-.61,1.57-1.97,2.01-3.43,2.31-4.49,.58-15.03,4.08-18.51,.68-.67,0-1.33,0-2,0-1.01-1.92-3.5-2.65-3.99-4.99,4.85-2.38,10.29,.07,15.24-1.91,1.76-.71,3.79-.74,5.7-1.08Z"/>
  <path class="cls-118" d="M188.5,58.92c-2.76,10.16-2.01,20.99-5.98,30.91-1.84,4.35-4.97,5.21-9.57,4.66-9.61-1.17-13.92-7.67-17.25-15.53-.16-.83-.34-1.78,.07-2.45,4.8-7.94,6.16-17.55,12.18-24.9,3.52-4.29,5.7-4.69,10.58-1.66,3.32,2.99,6.65,5.98,9.97,8.98Z"/>
  <path class="cls-161" d="M178.53,49.94c-6.71-1.78-7.22-1.81-11.69,5.64-4.37,7.29-6.85,15.51-10.25,23.28-1.05,4.47-2.03,8.98-6.98,10.97-1-.33-2-.66-2.99-1,2.04-9.5,4.4-18.9,7.83-28.03,1.53-4.07,3.47-7.89,6.16-11.26,1.77-2.22,3.66-5.48,7.09-1.39,.9-2.25-1.19-4.64,1.74-5.65,2.45-.84,3.22,1.19,4.43,2.32,1.68,1.57,3.13,3.39,4.67,5.1Z"/>
  <path class="cls-17" d="M102.73,170.61c-.67,.33-1.33,.67-2,1-1.54-1.55-1.28-3.41-.91-5.29,4.52-7.38,10.69-13.13,17.83-17.93,2.05-.79,4.09-1.47,6.02,.28-3.92,5.87-10.32,9.12-15.08,14.17-2.3,2.44-4.27,4.9-5.87,7.77Z"/>
  <path class="cls-7" d="M123.67,148.67c-2.05-.02-4.13-.19-5.98,1-.78-.65-1.39-1.39-1.37-2.48,.3-1.36,1.26-2.15,2.38-2.82,4.66-2.69,9.59-3.9,14.95-2.68,1.33,.66,2.66,1.33,3.99,1.99-2.18,1.34-4.1,3.29-6.98,2.99-2.25,.92-4.46,2.01-6.98,1.99Z"/>
  <path class="cls-41" d="M100.73,165.62v5.98c.15,1.73-1.43,2.61-1.99,3.99-2.33,.87-4.65-.21-6.98,0-.24-6.36,.15-8.26,5.83-11.38,1.32-.14,2.39,.27,3.14,1.41Z"/>
  <path class="cls-32" d="M192.49,143.68c-1-1.66-1.99-3.32-2.99-4.99-.73-2.29,.53-3.8,2.03-5.22,3.99-.48,5.06,3.31,7.48,5.13,.64,1.65,1.31,3.3,.46,5.08-.56,1.32-1.55,1.99-2.99,1.99-1.33-.66-2.66-1.33-3.99-1.99Z"/>
  <path class="cls-49" d="M199.47,143.68c-.95-1.54-1.11-3.24-1-4.99,.38-1.07,1.17-1.52,2.28-1.48,2.52,1.31,4.07,3.52,5.46,5.88,.35,1.32,.28,2.55-.76,3.57,.16,1.45-.32,2.75-1,3.99-1.66-2.33-3.32-4.65-4.99-6.98Z"/>
  <path class="cls-52" d="M205.45,146.68v-3.99c.39-.88,.9-1.53,1.99-1,4.75,7.92,9.3,15.94,11.81,24.91,.82,2.93,1.18,5.88-1.84,8h-2.99c1.88-10.87-2.34-19.79-8.98-27.92Z"/>
  <path class="cls-157" d="M216.43,144.68c0-1.44,.67-2.43,1.99-2.99,3.06,8.76,8.34,16.45,11.97,24.93-.66,1.33-1.33,2.66-1.99,3.99-.66-1-1.33-1.99-1.99-2.99-3.97-7.36-9.39-14.1-9.97-22.94Z"/>
  <path class="cls-136" d="M216.43,144.68c2.48,8.01,7.87,14.76,9.97,22.94-1,1.33-1.99,2.66-2.99,3.99,.24-5.51-3.4-9.67-5.08-14.51-1.91-5.49-5.41-10.4-5.89-16.4,1.33,1.33,2.66,2.66,3.99,3.99Z"/>
  <path class="cls-177" d="M207.45,141.69c-.66,.33-1.33,.66-1.99,1-2.29-1.04-3.3-3.35-4.99-4.99-.51-2.4-2.68-4.54-1.12-7.26,.88-.61,1.83-.63,2.81-.3,2.44,2.6,5.14,5,6.29,8.55-.33,1-.66,2-1,2.99Z"/>
  <path class="cls-147" d="M208.44,138.7c-2.49-2.29-5.09-4.49-5.98-7.98,.5-1.41,1.16-2.58,2.99-2,2.59,1.22,4.22,3.24,4.99,5.98v3.99c-.67,0-1.33,0-2,0Z"/>
  <path class="cls-100" d="M153.64,179.42c-.4,5.08-1.85,10.29-3.72,15.4-.7,1.91-2.01,3.13-4.18,2.56-4.3-1.12-8-3.07-9.51-7.7-1.45-4.43-.99-8.89,2.25-12.02,3.34-3.23,7.85-4.95,12.77-3.9,2.99,.64,2.17,3.24,2.39,5.65Z"/>
  <path class="cls-155" d="M149.6,89.83c3.29-3.04,4.42-7.47,6.98-10.97,1.49,2.37,2.98,4.74,4.47,7.1,4.91,7.75,14.41,9.46,21.46,3.87,8.44,15.11,6.55,14.07,23.94,13.96-1.36,3.35-4.95,5.08-6.18,8.52-4.13,1.07-8.36,2.82-11.77-1.54-15.29-11.51-24.62,.51-38.9-20.94Z"/>
  <path class="cls-118" d="M200.47,111.77c-.99-4.9,3.45-5.72,5.98-7.98,1.87,.14,3.69-.08,5.26-1.14,6.25-4.21,14.1-4.81,20.32-9.09,1.9-1.31,4.21-.6,6.34-.74,1.66,.33,3.32,.67,4.98,1,1,.66,2,1.33,3,1.99-5.25-.73-9.13,1.58-13.43,4.52-9.24,6.4-25.83,5.5-29.45,18.42-.94,.79-1.96,.9-3.05,.34-1.94-2.45-2.47-4.9,.06-7.32Z"/>
  <path class="cls-151" d="M200.47,118.75c1,0,1.99,0,2.99,0-.21,2.23,2.01,2.65,2.99,3.99-.33,2-1.35,3.87-1,5.98-1,.67-1.99,1.33-2.99,2-1,0-1.99,0-2.99,0-1.61-.34-2.36-1.52-2.89-2.92-.38-1.6-1.01-3.16-.66-4.86,1-1.95,2.32-3.56,4.55-4.18Z"/>
  <path class="cls-95" d="M180.52,135.71c-2.82,1.86-6.23-1.55-8.98,1-6.59-1.29-13.22-2.16-19.95-1.99-1.68-.29-3.28-.73-4.28-2.3,.11-1.75,1.18-2.75,2.65-3.46,10.05-2.99,19.1,1.28,28.36,3.94,1.16,.33,2.51,1.06,2.19,2.81Z"/>
  <path class="cls-67" d="M147.61,132.71c1.71-.09,3.24,.18,3.99,2l-1.99,2.99c-3.94-.89-8.14,1.25-11.97-1-.83-1.05-.91-2.13-.13-3.25,3.28-1.45,6.62-1.99,10.1-.74Z"/>
  <path class="cls-3" d="M133.64,141.69c-4.94,1.5-10.48,.77-14.96,3.99-1.2-1.17-1.72-2.53-1.19-4.19,1.21-1.48,2.81-2.36,4.59-2.98,4.17-.5,8.19-3.42,12.56-.81-.68,1.24-1.15,2.54-1,3.99Z"/>
  <path class="cls-30" d="M134.64,137.7c-4.46-.26-8.6,1.63-12.96,1.99-2.05-.67-5.06,1.64-6.15-1.98,5.15-1.68,10.3-3.39,15.57-4.68,2.21-.12,4.42-.14,6.54,.68,0,1,0,1.99,0,2.99-1,.33-2,.67-2.99,1Z"/>
  <path class="cls-70" d="M180.52,135.71c-8.1-3.7-16.28-6.98-25.49-6.08-1.8,.18-3.62,.07-5.43,.1-2.43-.06-3.8-.93-2.74-3.63,4.84-3.1,10.3-2,15.37-1.56,6.8,.59,13.58,2.16,19.55,5.95,1.35,1.81,1.62,3.58-.26,5.23-.33,0-.66,0-1,0Z"/>
  <path class="cls-26" d="M181.52,135.7c.04-1.33,.97-2.66,0-3.99,3.45-1.24,6.53-.03,9.56,1.46,.14,.18,.28,.36,.41,.54-.66,1.66-1.33,3.32-1.99,4.99-3.07,.09-5.17-2.4-7.98-2.99Z"/>
  <path class="cls-189" d="M97.74,129.72c-1.36-3.02-4.34-3.77-6.98-4.99,3.16-1.49,6.5-2.06,9.97-2,2.88-1.8,6.01-2.48,9.32-1.79,2.77,.57,5.49-.15,8.24,0,.84,.2,1.49,.64,1.78,1.5-1.7,4.39-6.06,4.76-9.62,6.36-4.27-.17-8.42,1.42-12.71,.91Z"/>
  <path class="cls-139" d="M118.68,121.74c-5.88,2.23-12.04-.66-17.95,1,1-1.99,1.99-3.99,2.99-5.98,6.46,.74,12.63-1.38,18.95-1.99,1.87,4.16-1.19,5.49-3.99,6.98Z"/>
  <path class="cls-178" d="M97.74,129.72c4.07-2.28,8.53-2.09,12.97-1.99,1.98,1.17,1.3,2.56,.33,3.98-4.31,2.58-9.54,1.51-14,3.51-2.79,.41-5.63,1.6-8.27-.51,0,0,0,0,0,0,2.52-2.51,5.25-4.65,8.98-4.99Z"/>
  <path class="cls-54" d="M88.76,134.71c2.66,.49,5.32-.88,7.98,0,1.28,2.04-.29,3.19-1.4,4.49-2.48,1.25-4.46,3.62-7.58,3.49-1,.33-1.99,.66-2.99,1-.33-1.33-.67-2.66-1-3.99,2.05-1.27,3.71-2.94,4.99-4.99Z"/>
  <path class="cls-45" d="M87.77,142.69c2.1-1.73,4.33-3.23,6.98-3.99,1.95-1.3,3.64-.74,5.2,.75,.73,2.77-.28,4.23-3.2,4.24-4.97,.04-8.32,3.31-11.97,5.98-.06-2.78,2.77-4.32,2.99-6.98Z"/>
  <path class="cls-5" d="M97.74,164.63c-1.99,2.33-3.99,4.65-5.98,6.98-1.3-1.01-1.83-2.41-1.99-3.99,1.23-8.65,6.82-14.09,13.69-18.6,2.09,.14,4.26-.79,6.28,.44,.31,.68,.2,1.35-.33,1.79-4.59,3.84-7.96,8.76-11.66,13.38Z"/>
  <path class="cls-69" d="M103.72,149.67c-6.39,4.63-10.81,10.8-13.96,17.95-1.24-.68-2.54-1.15-3.99-1,1.69-10.01,8.87-15.36,16.95-19.95,.83-.83,1.77-.87,2.77-.37,1.21,2.07-.5,2.6-1.78,3.36Z"/>
  <path class="cls-29" d="M105.72,146.68h-2.99c-.33-.66-.66-1.33-1-1.99,3.65-3.52,7.92-6.01,12.7-7.67,.49,.1,.91,.33,1.26,.69,1.52,2.1,4.47-.11,5.99,1.99-1.38,.56-2.26,2.14-3.99,2-3.07,4.45-7.26,6.2-11.97,4.99Z"/>
  <path class="cls-71" d="M114.69,137.7c-4.53,1.95-8.2,5.48-12.97,6.98h-4.99c0-.33,0-.66,0-1,1.6-.88,2.92-1.97,2.99-3.99,1.96-3.33,5.47-3.62,8.71-4.46,1.73,1.71,5.27-1.15,6.25,2.46Z"/>
  <path class="cls-175" d="M168.55,110.77c2.66,.66,5.32,1.33,7.98,1.99,2.97,1.48,5.66,3.39,7.88,5.83,1.1,1.21,2.81,2.68,.61,4.5-4.81-.09-8.74-2.9-13.13-4.29-10.96-3.47-21.93-4.71-33.07-.89-3.89-.92-7.63-2.26-11.16-4.15,7.19-4.38,14.83-7.72,22.94-9.97,5.06,4.7,11.73,5.26,17.95,6.98Z"/>
  <path class="cls-182" d="M127.66,113.76c4.2-.98,7.22,2.35,10.97,2.99,.54,1.13-.11,1.92-.77,2.71-2.83,2.19-5.94,3.79-9.48,4.49-2.97,.11-6.2,2-8.7-1.22-.33-.33-.67-.67-1-1,1.1-2.46,4.56-3.57,3.99-6.98,1-.33,2-.67,2.99-1,.67,0,1.33,0,2,0Z"/>
  <path class="cls-184" d="M185.51,122.74c-1.32-4.83-6.17-6.48-8.98-9.97,4.43,.33,7.21,4.27,11.38,5.21,1.89,.42,3.72,1.17,5.57,1.77,1.8,.2,3.32,.67,2.99,2.99,.33,1.66,.66,3.32,1,4.99-1.61,1.6-3.42,1.73-5.39,.75-2.17-1.94-6.31-1.62-6.58-5.73Z"/>
  <path class="cls-154" d="M196.48,122.74c-1-1-2-1.99-2.99-2.99-1.75-2.94-3.95-5.64-4.99-8.97,3.79,2.68,7.98,.63,11.97,1-1.21,2.33-.09,4.65,0,6.98-.96,1.7-2.28,3.03-3.99,3.99Z"/>
  <path class="cls-184" d="M168.55,110.77c-6.43,1.44-11.6-2.23-17.16-4.29-.98-.36-.76-1.72-.8-2.69,6.05,2.16,12.61,3,17.95,6.98Z"/>
  <path class="cls-8" d="M97.74,164.63c1.83-6.72,7.14-10.64,11.97-14.96,1.75-2.67,4.01-3.58,6.98-1.99,.8,.43,.98,1.17,1,1.99-6.59,4.32-11.54,10.39-16.96,15.96-1-.33-1.99-.66-2.99-1Z"/>
  <path class="cls-4" d="M116.69,147.67c-2.52-.01-4.73,1.07-6.98,1.99-1.99-.35-3.99,1.61-5.98,0,.67-1,1.33-1.99,2-2.99,4.55-.32,8.33-2.47,11.97-4.99,.68,1.24,1.15,2.54,1,3.99-.95,.38-1.62,1.04-2,2Z"/>
  <path class="cls-56" d="M192.49,127.73c1.66,1.1,3.32-.32,4.99,0,.67,1,1.33,2,2,2.99-.43,2.44,2.44,4.4,1,6.98-.66,.33-1.33,.66-1.99,1-3.28-.33-3.7-4.66-6.98-4.99,0,0,0,0,0,0-.86-.79-1.54-1.67-1.42-2.93,.37-1.36,.9-2.6,2.42-3.05Z"/>
  <path class="cls-58" d="M146.61,126.73c.65,1.35,1.65,2.34,2.99,2.99-.67,1-1.33,1.99-2,2.99-3.24,1.19-6.61,1.04-9.97,1-1.99,1.64-3.99,.33-5.98,0-.77-.2-1.24-.68-1.34-1.48,.67-2.54,2.53-4.01,4.67-5.24,2.86-.43,5.47-1.93,8.43-1.94,1.23,.26,2.42,.6,3.21,1.68Z"/>
  <path class="cls-72" d="M130.65,132.71c.33,.33,.67,.67,1,1-5.21,1.77-10.07,4.93-15.96,3.99-.33,0-.66,0-1,0-1.41-2.43-4.98,1.63-5.98-1.99,.3-.46,.69-.82,1.17-1.09,5.14-1.79,10.48-2.59,15.84-3.3,1.8-.24,3.64-.32,4.93,1.4Z"/>
  <path class="cls-37" d="M146.61,126.73c-1.1-.03-2.28,.18-2.99-1-.03-3.03,2.43-4.18,4.34-5.74,11.82-2.38,22.88,.65,33.69,4.96,3.25,1.3,7.11,2.01,8.85,5.77,.33,1,.66,1.99,1,2.99-3.32-.66-6.65-1.33-9.97-1.99-11.06-5.7-22.66-7.59-34.91-4.99Z"/>
  <path class="cls-53" d="M119.68,122.74c2.99,1.61,5.98-.16,8.98,0,1.4,2.5-.32,4.07-1.69,5.76-4.01,2.73-8.65,3.04-13.26,3.49-1.15-.07-2.19-.4-3-1.27,.62-1,.62-1.99,0-2.99,2.95-1.74,6.38-2.61,8.98-4.99Z"/>
  <path class="cls-48" d="M110.7,130.72c1,0,2,0,2.99,0,.56,3.17-2.58,3.39-3.99,4.99-.33,0-.67,0-1,0-2.99,1.33-5.98,2.66-8.98,3.99-1.66-.33-3.32-.66-4.99-1,.56-1.38,2.14-2.25,1.99-3.99,2.68-3.68,7.09-1.24,10.39-2.91,1.05-.53,2.63,.19,3.58-1.08Z"/>
  <path class="cls-99" d="M190.49,130.72c-13.3-7.6-27.46-11.49-42.89-9.97-3.81,1.76-6.86-.25-9.97-1.99,.33-.66,.66-1.33,1-1.99,2.48,.34,4.3-1.5,6.55-1.96,14.13-2.77,27.59,2.51,40.32,7.94,1.44,2.9,5.15,2.63,6.98,4.99-.66,1-1.33,1.99-1.99,2.99Z"/>
  <path class="cls-84" d="M137.63,118.75c3.56-.5,6.5,2.09,9.97,1.99-.49,2.34-2.98,3.07-3.99,4.99-2.99,.65-5.68,2.69-8.98,2-2.66,1.66-5.32,3.85-7.98,0,.66-1.66,1.33-3.32,1.99-4.99,3.31-.61,5.95-2.73,8.98-3.99Z"/>
  <path class="cls-57" d="M126.66,127.73c2.66,1.46,5.32,.86,7.98,0-1.33,1.66-2.66,3.32-3.99,4.99-7.25-.86-13.99,1.8-20.94,2.99,1.33-1.66,2.66-3.32,3.99-4.99,4.46-.41,8.84-1.14,12.97-2.99Z"/>
</svg>