<svg width="57" height="54" viewBox="0 0 57 54" fill="none" xmlns="http://www.w3.org/2000/svg">
<g clip-path="url(#clip0_24_218)">
<path d="M21.8463 1.3913C22.2351 0.791369 22.9672 0.93938 23.5139 0.730192C23.7369 0.645333 23.9046 0.30787 24.2085 0.408517C24.471 0.355233 24.7335 0.538766 24.9959 0.408517C25.0611 0.408517 25.1282 0.408517 25.1933 0.408517C25.6827 0.844653 25.6294 1.29855 25.2387 1.76232C25.0729 1.95966 24.9091 2.1728 24.6979 2.31291C24.0072 2.76681 23.8494 3.38648 24.0605 4.14429C23.8434 4.4265 23.4408 4.30809 23.1942 4.52912C23.7309 5.46257 24.0408 5.49414 24.6387 4.68897C25.3097 4.84093 25.138 5.28298 24.9959 5.71715C24.5914 6.31116 24.0487 6.20065 23.5218 5.95791C22.8429 5.6461 23.3284 6.1592 23.2751 6.28748C24.1118 8.10702 22.7521 9.5733 21.6391 10.8521C20.7293 11.9533 20.3267 12.0342 19.0301 11.4145C18.1302 10.9843 18.0355 11.0139 17.7671 11.8191C17.2461 12.123 16.9166 12.6184 16.5337 13.0604C14.2761 13.2755 12.1309 13.8755 10.1298 14.9569C9.56934 15.2608 9.25161 15.8193 8.82139 16.2614C8.37342 16.7212 8.8727 17.1021 8.90033 17.5205C8.84113 17.5974 8.76022 17.6487 8.67338 17.6941C8.38723 17.8441 7.884 17.7514 7.92149 18.2664C7.9432 18.5506 8.25304 18.6335 8.4938 18.7243C8.94375 18.894 9.14307 18.6197 9.29305 18.2605C9.31673 18.2013 9.36015 18.152 9.40357 18.1026C9.48645 18.0572 9.57526 18.0454 9.66801 18.0651C10.2857 19.0262 9.80023 19.6123 8.22935 19.7228C8.75232 20.6247 8.18396 21.3352 7.84847 22.093C7.72415 22.3495 7.62547 22.6238 7.37089 22.7876C6.6269 23.2001 5.87698 23.5672 4.99879 23.6362C2.73917 23.8119 2.69378 27.4983 0.392713 27.9601C0.10656 27.7529 0.224968 27.445 0.193393 27.1727C0.059197 26.7168 0.217074 26.2827 0.280225 25.8406C0.445997 25.5939 0.765698 25.4873 0.888053 25.2091C1.54917 23.7231 2.86941 23.1744 4.31399 22.8567C5.65595 22.5607 6.13945 21.4378 6.69005 20.4313C6.99199 19.8807 6.44534 19.6715 5.95789 19.5492C5.12509 19.342 5.03628 19.0874 5.44676 18.3197C5.72108 17.8066 6.20458 17.5165 6.6269 17.1573C7.17947 16.6877 7.15776 16.3048 6.57756 15.9239C5.88685 15.4687 5.87632 14.999 6.54598 14.5149C6.59927 14.4774 6.64466 14.43 6.69005 14.3826C7.70046 14.0807 8.63391 13.6011 9.59105 13.1729C10.4574 12.7861 11.3691 12.494 12.2 12.0184C13.2617 12.1645 14.3037 11.3731 15.3753 11.9474C16.1745 12.1783 16.0443 11.3909 16.3344 11.0672C16.2633 10.1377 16.7626 9.61474 17.5777 9.31675C18.6197 8.13859 19.2374 6.68414 20.1471 5.41915C20.6188 5.05406 20.7135 4.3219 21.3805 4.14626C21.7969 4.08311 22.464 3.98641 22.5548 3.51476C22.6001 3.18124 22.1285 3.21281 21.9509 3.00165C21.5108 2.4925 20.9523 1.98926 21.8443 1.39328L21.8463 1.3913Z" fill="#ECEEED"/>
<path d="M31.0979 0.605865C31.4453 0.690725 31.8103 0.730194 32.0807 1.00253C32.1399 1.08937 32.1399 1.17225 32.0708 1.25316C31.988 1.30447 31.9011 1.33802 31.8064 1.35776C31.1236 1.41696 31.0604 2.03071 30.8631 2.47869C30.5315 3.23452 30.2316 4.01207 29.5665 4.53504C27.6227 6.06645 26.4188 8.15241 25.4597 10.337C24.1592 13.2992 21.7299 15.0023 19.119 16.5456C18.3691 16.9896 17.4317 17.0745 16.5535 17.1672C14.7241 17.3606 13.242 18.1382 11.8961 19.415C9.32268 21.8542 7.53275 24.7828 6.10001 27.9719C5.93621 28.337 5.90069 28.7317 5.85135 29.1185C5.81386 29.4086 6.03883 29.4086 6.24802 29.3928C6.39011 29.3751 6.53023 29.381 6.66837 29.4126C6.85782 29.4678 7.03149 29.5547 7.18542 29.681C7.33738 29.8231 7.4321 29.9967 7.45973 30.2059C7.45184 30.4625 7.44789 30.721 7.10451 30.7624C6.56575 29.975 5.80004 30.3026 5.0896 30.3598C4.16207 30.0539 4.00419 29.7599 4.42256 28.9606C4.75608 28.3193 5.03829 27.6582 5.30668 26.9892C6.83611 23.056 9.41741 19.8827 12.569 17.1633C13.8025 16.0996 15.4424 15.7463 16.9916 15.3871C19.4249 14.8208 21.1773 13.3407 22.7324 11.5231C23.9421 10.1081 24.5144 8.33791 25.3729 6.72954C26.038 5.48033 27.0365 4.54885 28.0489 3.63316C28.5462 3.18321 28.9784 2.753 29.2251 2.11557C29.4521 1.52945 29.8882 1.07358 30.3895 0.688751C30.6164 0.590078 30.8591 0.61968 31.0979 0.609812V0.605865Z" fill="#E3E5E4"/>
<path d="M33.5036 37.788C33.6851 37.7939 33.8667 37.7998 34.0482 37.8057C34.1134 38.0544 33.9259 38.1096 33.7621 38.1846C33.6812 38.2142 33.5983 38.2419 33.5213 38.2734C33.9219 40.3515 32.353 41.4803 31.2242 42.7197C30.3105 43.7222 29.3178 44.701 28.191 45.5042C27.1036 46.2798 26.7622 46.1634 26.5076 44.8826C26.3951 44.3162 26.1287 43.8208 25.7656 43.4064C24.4098 41.8612 23.5198 40.1166 23.3047 38.0544C23.2869 37.8925 23.204 37.7426 23.1507 37.5886C23.0994 37.4564 23.0738 37.3202 23.0797 37.1801C23.0876 37.0913 23.1093 37.0025 23.1409 36.9177C23.3284 36.5289 23.5237 36.1421 23.6441 35.7217C23.6717 35.6349 23.7092 35.554 23.7487 35.4711C23.9756 35.1494 24.0053 34.6363 24.5598 34.6265C24.8163 34.8435 24.6762 35.1001 24.6407 35.3547C24.3427 37.5077 24.8775 39.3648 26.5392 40.8567C28.1989 42.3447 30.3539 42.173 31.7116 40.4265C32.1774 39.8285 32.2484 39.3292 31.5617 38.8576C30.6657 38.2419 30.5177 37.4386 30.9163 36.446C31.317 35.4415 31.5025 34.366 31.8754 33.3477C32.1912 32.4793 31.9011 32.1142 30.9854 32.0925C28.9369 32.0452 26.9872 32.3234 25.3906 33.7798C25.213 33.9417 25.0058 34.0364 24.765 33.8904C24.5026 33.2983 24.9052 32.8346 25.0729 32.3274C25.1953 31.9583 25.3077 31.5853 25.3985 31.2064C25.5031 30.9302 25.6334 30.6736 25.9235 30.5453C28.037 30.3578 30.1526 30.423 32.2682 30.5039C33.247 31.1078 33.5983 31.9978 33.2667 33.0615C32.8799 34.3758 32.1695 35.5658 31.7906 36.8782C31.4867 38.23 32.7832 37.4446 33.5036 37.788V37.788Z" fill="#FDEC07"/>
<path d="M42.9111 9.05625C45.5023 10.7515 48.3204 12.0816 50.7833 13.982C50.8721 14.0471 50.8583 14.1912 50.7912 14.2228C50.7004 14.2583 50.6076 14.2642 50.5149 14.2425C49.2795 13.536 49.1769 13.613 49.0407 15.0872C48.9716 15.845 48.869 16.5988 48.8276 17.3586C48.2099 17.3705 47.8783 16.9166 47.4974 16.5416C47.2093 16.0482 47.087 15.5233 47.1679 14.949C47.3258 13.8537 46.6804 13.2518 45.8101 12.8137C44.2136 12.0125 42.473 11.8231 40.7304 11.6533C40.5726 11.6375 40.4127 11.7244 40.2509 11.7461C40.0437 11.7619 39.8621 11.6908 39.6983 11.5724C38.0741 9.99562 36.3414 8.53131 34.7429 6.92293C33.8608 6.24011 33.5411 5.37179 33.7601 4.2627C33.8845 3.63119 33.695 2.96415 33.8943 2.33067C34.0049 2.1057 34.1627 2.08793 34.3542 2.22805C34.5555 2.38988 34.7666 2.53986 35.037 2.56946C35.8382 2.98389 36.6 3.45357 37.2058 4.14034C36.9651 4.68502 36.7361 4.05943 36.5526 4.11666C35.9763 5.24154 36.0158 6.25392 36.9493 7.1558C37.7327 7.91361 38.3327 8.82338 39.6134 8.97139C40.6712 9.09375 41.7132 9.38779 42.7947 9.36411C43.0986 9.35819 42.7335 9.10559 42.9111 9.05625V9.05625Z" fill="#DCDDDC"/>
<path d="M30.5098 0.80123C29.9454 1.43274 29.4224 2.07214 29.1343 2.90495C28.8659 3.67855 28.0133 3.96865 27.447 4.48175C25.9037 5.87501 25.14 7.70442 24.3013 9.49633C23.2533 11.7342 21.5404 13.3051 19.5432 14.6727C18.4105 15.4483 17.106 15.5786 15.8686 15.9219C13.2538 16.6501 11.4007 18.2644 9.74693 20.3563C8.10895 22.4225 6.48479 24.5105 5.51187 26.9773C5.0185 26.8727 5.28097 26.5155 5.33031 26.3004C5.48819 25.6156 5.62238 24.919 5.88091 24.2598C6.05852 23.7645 6.73542 23.7132 6.85383 23.1646C6.92882 22.9356 7.08867 22.7758 7.28404 22.6455C7.41429 22.4482 7.54652 22.2528 7.67676 22.0555C8.29643 20.4116 9.70351 19.3124 10.5975 17.8402C11.4382 16.4567 12.9499 15.8035 14.4754 15.3595C15.7542 14.9865 16.96 14.353 18.3177 14.2405C18.5723 14.2188 18.813 14.0432 18.9729 13.834C19.4781 13.1729 20.1807 12.7565 20.8319 12.2789C21.9706 11.154 22.8409 9.84958 23.4527 8.37145C23.4803 7.22881 24.0783 6.39601 24.9051 5.68754C25.136 4.00022 26.2274 2.84377 27.3582 1.711C27.4963 1.57286 27.6542 1.42682 27.7055 1.24329C27.9739 0.294048 28.6725 0.12433 29.5211 0.211163C29.6513 0.211163 29.7816 0.211163 29.9118 0.211163C30.0066 0.351279 30.1427 0.408509 30.3105 0.402589C30.4407 0.402589 30.571 0.406536 30.7012 0.408509C30.8275 0.631511 30.6124 0.686768 30.5098 0.797283V0.80123Z" fill="#E5E7E7"/>
<path d="M34.4449 2.37803C34.3147 2.31291 34.1824 2.24581 34.0522 2.18068C33.8154 2.31685 33.5983 2.18266 33.3753 2.13727C32.876 2.0603 32.9194 2.45894 32.9451 2.71155C33.0635 3.87589 32.5287 4.68107 31.6959 5.43493C30.6578 6.3743 30.3618 7.8327 29.4935 8.90232C28.6232 9.97588 28.3311 11.3178 27.8259 12.5434C27.145 14.1991 25.8524 15.2944 24.5184 16.1943C22.0298 17.8737 19.19 18.7973 16.1509 18.9788C14.9589 19.0499 13.9347 19.5531 13.0446 20.3129C10.8758 22.168 9.24767 24.4651 7.85243 26.924C7.37485 27.7687 7.34722 28.7968 7.08277 29.7323C6.92095 29.7283 6.77294 29.6948 6.69005 29.5349C6.05854 29.1363 6.39798 28.6271 6.54796 28.1555C7.14987 26.257 8.08924 24.5282 9.2378 22.908C9.28516 22.8212 9.34042 22.7403 9.4016 22.6633C10.6034 21.3746 11.7224 20.0228 13.1433 18.9275C14.355 17.9941 15.7325 17.848 17.11 17.706C21.4378 17.256 25.6136 13.984 27.1075 9.90878C27.8101 7.9886 29.1047 6.38022 30.4111 4.83894C31.2045 3.90549 31.8754 3.00954 31.8893 1.74455C31.8912 1.5472 31.98 1.36367 32.0846 1.19395C32.0846 1.12882 32.0846 1.06567 32.0846 1.00055C32.9391 1.25907 33.7246 1.65377 34.4469 2.17871C34.5475 2.23791 34.5199 2.35237 34.4469 2.37606L34.4449 2.37803Z" fill="#E0E1E1"/>
<path d="M6.69205 14.3846C6.66443 14.4774 6.66443 14.6175 6.60128 14.655C5.89477 15.0812 5.28497 15.3595 6.71574 15.6753C7.56235 15.8627 7.55051 16.7449 6.81244 17.3211C6.24408 17.7513 5.35602 18.2941 5.42903 19.0894C5.49613 19.4919 5.98753 19.2453 6.28157 19.3262C7.0828 19.5433 7.33935 20.0958 6.85388 20.7984C6.09212 21.9016 5.43298 23.0777 3.83053 23.2771C2.59514 23.431 1.56696 24.1197 1.08741 25.3887C0.965051 25.7103 0.726262 25.8347 0.392746 25.7991C0.0414684 25.0354 0.223027 24.2283 0.193425 23.4369C0.487472 22.3949 0.79336 21.3549 1.07359 20.309C1.35382 19.2611 2.12742 18.4204 2.79051 17.7573C3.9884 16.5633 5.00869 14.9944 6.69008 14.3866L6.69205 14.3846Z" fill="#EDEFEF"/>
<path d="M17.7139 9.46278C17.6586 9.54172 17.6112 9.68183 17.5441 9.6917C16.7686 9.81998 16.4627 10.2285 16.6956 11.006C16.7113 11.0593 16.589 11.156 16.5318 11.233C16.3916 11.1106 16.368 10.9606 16.4133 10.8324C15.9535 11.1797 15.7108 11.7402 15.3516 12.2158C14.8681 11.8783 14.3353 11.7698 13.836 12.1053C13.242 12.5039 12.7466 11.9928 12.202 12.0184C13.2815 11.527 14.282 10.8837 14.9589 9.91668C15.7364 8.80167 16.441 7.63337 17.1238 6.44732C18.2842 4.42649 19.488 2.33856 21.8483 1.3913C21.1457 2.01294 21.9746 2.44118 22.0456 2.96612C22.0417 3.50883 21.5167 3.82656 21.4556 4.3436C20.7925 4.46793 20.899 5.36191 20.2754 5.52374C20.0662 5.20206 19.8353 5.16062 19.5906 5.48229C18.8012 6.52626 18.1934 7.68074 17.5659 8.82337C17.4376 9.05822 17.6191 9.25754 17.7178 9.4608L17.7139 9.46278Z" fill="#EDEFEF"/>
<path d="M42.9111 9.05626C43.0591 9.26742 43.2091 9.47858 43.4064 9.75684C42.1493 9.41543 40.9001 9.39964 39.6845 9.23782C38.2221 9.04244 37.5827 8.07544 36.7065 7.2604C35.5757 6.21052 35.7849 5.02841 36.4519 3.81078C36.7558 3.72 36.7913 4.3969 37.2058 4.14035C38.1905 4.56859 38.7589 5.49218 39.5641 6.1375C40.7185 7.06108 41.8 8.07742 42.9111 9.05626V9.05626Z" fill="#D8D9D8"/>
<path d="M55.0874 18.9118C56.1688 20.9563 56.6049 23.1409 56.4727 25.442C56.4589 25.6946 56.3504 25.9432 56.2872 26.1939C56.1806 26.257 56.0859 26.2392 56.007 26.1445C55.9162 26.0064 55.8708 25.8544 55.8511 25.6926C55.8096 25.1716 55.8274 24.6486 55.8234 24.1276C55.8886 23.3363 55.7879 22.5646 55.5708 21.7989C55.4288 21.2996 55.1702 21.2207 54.6453 21.203C52.4962 21.1359 50.7891 22.3495 48.936 23.0975C47.4421 23.6994 45.8318 24.2066 44.7977 25.6077C44.7168 25.6729 44.626 25.7104 44.5234 25.7261C44.1978 25.7202 43.9392 25.6038 43.8011 25.288C43.9807 24.0388 45.0562 23.6126 45.9147 22.985C45.9956 22.9357 46.0804 22.8982 46.1692 22.8646C47.5033 22.2745 48.9676 21.9489 50.0866 20.9247C50.3491 20.68 50.6293 20.4491 50.9786 20.3563C52.1765 20.0366 53.1889 19.4624 53.846 18.3651C53.9329 18.2191 54.1006 18.1776 54.2703 18.1737C54.7282 18.2151 54.7637 18.7243 55.0893 18.9118H55.0874Z" fill="#C9C9C9"/>
<path d="M31.8972 44.4977C29.8112 47.2626 27.7312 50.0314 25.6294 52.7843C25.3176 53.1928 24.9742 53.6073 24.4394 53.7652C24.1158 53.8934 23.7823 53.8323 23.4507 53.8145C23.1172 53.6823 22.8745 53.402 22.8962 53.0823C22.9593 52.1686 22.7482 51.1898 23.4192 50.3945C24.1947 50.5918 23.6224 51.2746 23.9046 51.7167C25.2426 51.2036 25.9649 50.0156 26.8846 49.0347C28.1574 47.679 29.0731 46.0311 30.4506 44.7661C30.9223 44.6221 31.2578 43.7281 31.8972 44.4997V44.4977Z" fill="#F9E30A"/>
<path d="M29.5231 0.213132C27.8042 0.436134 27.5753 2.25765 26.4247 3.11216C25.588 3.7338 25.3847 4.80144 24.996 5.72305C24.9308 5.81383 24.8657 5.81383 24.7986 5.72305C24.8144 5.37967 25.1854 4.96327 24.6013 4.73829C24.2855 4.65936 24.0901 4.46398 24.0112 4.14823C22.5114 2.3504 26.1169 2.23396 25.1913 0.408506C26.2313 -0.183535 27.372 0.0552549 28.4791 0.0138121C28.8422 -2.18443e-06 29.1975 0.0157856 29.5211 0.213132H29.5231Z" fill="#E9EBEA"/>
<path d="M55.0874 18.9117C54.6789 18.9117 54.667 18.4026 54.3237 18.3197C53.9369 17.8619 53.6685 17.8697 53.1455 18.296C51.0141 20.0327 48.8197 21.6983 46.1792 22.6258C45.5812 22.835 45.0424 23.129 44.5629 23.5375C43.9985 23.7744 43.5919 24.246 43.0611 24.5341C42.7433 24.5894 42.4809 24.4907 42.2756 24.2421C42.3921 23.3895 43.0453 22.9633 43.7044 22.6337C45.4312 21.7733 47.1146 20.8398 48.796 19.8945C50.0432 19.1939 51.1819 18.4184 51.9693 17.2007C52.2298 16.7982 52.589 16.5298 53.0764 16.4587C53.3073 16.4291 53.4198 16.6028 53.556 16.737C54.2684 17.3211 54.6611 18.1283 55.0894 18.9117H55.0874Z" fill="#CFCFCF"/>
<path d="M7.28212 22.6475C7.21699 22.8449 7.14989 23.0402 7.08477 23.2376C6.78678 23.6935 6.3092 23.7882 5.8257 23.8948C4.61201 24.1631 4.25284 24.6249 4.29429 25.8702C4.31007 26.3517 4.20943 26.78 3.87394 27.1312C2.94838 28.1002 2.14321 29.1935 0.988728 29.9276C0.475627 29.3672 0.769673 28.564 0.394714 27.9621C1.63405 27.1529 2.34253 25.9255 3.04903 24.6782C3.46346 23.9441 4.11273 23.3915 5.00868 23.3955C5.86911 23.3994 6.51246 22.8547 7.28212 22.6495V22.6475Z" fill="#EBECEB"/>
<path d="M6.10197 24.2223C5.96185 25.1518 5.48625 26.0123 5.5119 26.9773C5.36586 27.7548 5.02248 28.4554 4.61397 29.1146C4.20547 29.7757 4.40479 30.0598 5.11721 30.125C4.99091 30.7269 4.22717 30.646 4.01601 31.1551C3.30162 31.4492 2.85956 32.0017 2.55565 32.6865C2.14714 32.3885 1.89651 31.9879 1.77415 31.5025C1.43472 30.8828 1.48208 30.4624 2.14319 29.9809C3.04309 29.3237 3.61737 28.337 4.05943 27.3009C4.37913 26.549 4.61397 25.7597 5.04024 25.0591C5.28298 24.6585 5.47046 24.1434 6.10394 24.2204L6.10197 24.2223Z" fill="#E6E7E6"/>
<path d="M6.10196 24.2223C5.00472 24.917 4.83302 26.1623 4.35347 27.2141C3.77919 28.4752 3.16347 29.7145 1.91624 30.4269C1.27683 30.792 2.08201 31.1887 1.77218 31.5044C1.37748 31.0446 1.12882 30.5138 0.988708 29.9276C1.19 29.681 1.21566 29.3948 1.56101 29.1402C2.45894 28.4752 3.17136 27.5457 3.91141 26.6833C4.07521 26.4918 4.16599 26.1741 4.0614 25.8465C3.67855 24.6506 4.79158 23.7132 5.69346 23.656C6.20853 23.6224 6.64861 23.4724 7.08475 23.2396C7.08475 23.8967 6.36049 23.8277 6.09999 24.2243L6.10196 24.2223Z" fill="#E8E9E8"/>
<path d="M31.8972 44.4978C31.2558 43.9945 31.0328 44.9753 30.5078 44.8865C30.3894 44.0024 31.1591 43.5781 31.5637 42.994C32.5484 41.433 34.8278 40.089 33.6575 37.9991C33.8174 37.9952 33.9654 37.9616 34.0502 37.8038C34.6877 37.7564 35.3448 37.7643 35.7119 38.3741C36.077 38.9819 35.6547 39.5108 35.333 39.9884C34.2791 41.5593 33.1385 43.065 31.8972 44.4938V44.4978Z" fill="#FAE60A"/>
<path d="M33.5036 37.788C31.2084 37.8452 31.1275 37.7248 31.9998 35.5895C32.282 34.8949 32.5148 34.1765 32.8464 33.5075C33.3555 32.4734 33.1582 31.5696 32.4754 30.7131C32.8484 30.3657 33.2845 30.4605 33.7187 30.5256C33.9259 30.5828 34.1074 30.6815 34.2594 30.8335C34.6403 31.6761 34.4508 32.5484 34.3877 33.4148C34.1824 33.9752 33.9752 34.5357 33.6299 35.031C33.4799 35.2422 33.322 35.4494 33.1996 35.6783C33.0339 35.9763 32.8444 36.2585 32.6589 36.5427C32.4971 36.7953 32.2267 36.9492 32.0688 37.2058C31.461 37.9952 33.1621 37.4801 33.5036 37.788Z" fill="#FAE70A"/>
<path d="M9.44895 37.3972C8.85888 37.1999 8.26882 37.0045 7.67875 36.8071C7.56626 36.5407 7.18341 36.5052 7.13605 36.1796C7.43601 35.0547 8.3517 34.2002 8.51747 33.0161C8.97532 31.8991 9.45487 30.794 9.74102 29.6119C9.87917 29.0396 10.0193 28.3587 10.8462 28.3271C11.2626 29.4145 10.4081 30.2276 10.2186 31.1847C9.85351 33.022 9.27726 34.8218 9.27331 36.7183C9.27331 36.7736 9.34238 36.8249 9.38975 36.8742C9.5121 37.038 9.61472 37.2038 9.44895 37.3992V37.3972Z" fill="#D7D4D0"/>
<path d="M21.2681 38.2043C20.6129 37.6932 19.9379 38.228 19.2729 38.1669C18.9038 37.9241 18.373 38.3504 18.0631 37.8708C18.1204 37.6932 18.371 37.6695 18.4657 37.7702C18.3 37.5867 18.0671 37.7702 17.8638 37.7327C16.5574 37.5531 15.3121 37.261 14.6451 35.9368C14.4557 35.5599 14.2642 35.181 14.4537 34.7429C15.1977 34.435 15.322 35.3744 15.8765 35.4474C16.7449 36.1421 17.6645 36.7242 18.821 36.7894C19.7702 36.9867 20.7372 37.0518 21.6924 37.1959C21.8779 37.6695 21.8739 38.0642 21.2681 38.2043V38.2043Z" fill="#E8DCC4"/>
<path d="M23.6165 50.3945C23.1567 51.4858 22.8429 52.583 23.4271 53.7336C22.3397 54.0375 22.2469 52.5534 22.4305 51.8489C23.0047 49.4137 23.3126 46.9369 23.5987 44.4583C23.6481 44.0281 23.6382 43.6788 23.0264 43.7399C22.6396 43.7774 22.243 43.7123 21.8522 43.6926C21.7891 43.5821 21.8108 43.4873 21.9134 43.4123C22.1581 43.2604 22.4364 43.2584 22.7107 43.2387C23.2534 43.2446 23.8 43.1933 24.3388 43.3058C24.7887 43.5268 25.1045 43.7676 24.4454 44.1327C24.027 44.2747 24.1434 44.5273 24.3052 44.7977C24.6842 45.4253 24.7374 46.1989 24.5697 46.9034C24.2421 47.748 24.2283 48.6637 23.9678 49.5222C23.875 49.8241 23.8849 50.1655 23.6185 50.3964L23.6165 50.3945Z" fill="#FCE62B"/>
<path d="M7.2821 36.2269C7.39853 36.4302 7.70442 36.5052 7.67679 36.8071C7.15185 36.5447 6.62691 36.2802 6.10197 36.0177C5.08366 34.9146 5.04616 34.8199 6.07039 33.6358C6.94464 32.6254 7.45971 31.4492 7.91558 30.2276C8.11096 29.9829 8.30041 29.7224 8.67734 29.8921C8.91218 30.2236 8.70102 30.571 8.71681 30.9104C8.42079 32.2168 8.08727 33.5036 7.23868 34.5949C6.82426 35.1297 6.64862 35.702 7.28013 36.2309L7.2821 36.2269Z" fill="#DBDAD7"/>
<path d="M8.06951 30.3243C7.73008 31.8222 6.99003 33.1049 5.89673 34.1686C5.13891 34.9047 5.80989 35.4297 6.10197 36.0197C5.70925 35.7593 5.31653 35.4968 4.92381 35.2363C4.77777 34.956 4.46004 34.7844 4.41071 34.439C5.1843 33.1898 6.14538 32.0886 7.10646 30.9854C7.20711 30.8828 7.32552 30.798 7.41235 30.6795C7.55641 30.3046 7.38275 29.9138 7.45774 29.5468C7.56233 29.0455 7.52089 28.416 8.26291 28.3252C8.51157 28.6113 8.33001 28.937 8.35172 29.2448C8.32804 29.6237 8.21555 29.979 8.06754 30.3243H8.06951Z" fill="#DCDDDB"/>
<path d="M4.52714 34.4567C4.63568 34.7271 4.94552 34.8968 4.92381 35.2343C4.03378 34.4785 3.11611 33.7483 2.55368 32.6885C2.40567 31.911 2.92863 31.315 3.9351 31.1117C4.85869 31.9406 5.69741 31.7866 6.49469 30.9124C6.63678 30.7565 6.82623 30.5927 7.08476 30.717C7.31565 30.5749 7.27421 30.3421 7.2821 30.127C7.38275 30.0599 7.47156 30.0737 7.54655 30.1664C7.56431 30.419 7.64128 30.6776 7.47748 30.9144C7.41235 30.9795 7.34525 31.0446 7.28013 31.1117C6.33089 32.2741 4.64752 32.4063 3.8384 33.6674C4.14429 33.7759 4.38505 34.068 4.52517 34.4587L4.52714 34.4567Z" fill="#E4E4E2"/>
<path d="M21.2681 38.2044C21.5523 37.936 21.645 37.5867 21.6825 37.2137C21.6253 36.8348 21.8522 36.4559 21.9489 36.0947C22.2607 35.254 22.5094 34.3916 22.8843 33.5766C23.2731 32.7852 23.508 31.9287 23.9303 31.1532C24.2717 30.5276 24.7335 30.1171 25.515 30.4072C25.6077 30.4644 25.6571 30.5493 25.659 30.6578C25.6215 30.7526 25.5643 30.8315 25.4873 30.8986C24.6289 31.6386 24.325 32.6925 23.9461 33.693C23.4507 35.0014 22.6021 36.1697 22.4028 37.5926C22.17 38.1728 22.1088 38.8102 21.8128 39.3707C21.6095 39.6292 21.4812 39.9765 21.0826 40.016C20.8576 39.8621 20.7964 39.649 20.8675 39.3924C20.9997 38.9977 21.1319 38.601 21.2641 38.2063L21.2681 38.2044Z" fill="#FBE55B"/>
<path d="M23.5987 44.4583C23.7823 46.9784 23.21 49.4058 22.7265 51.8489C22.5863 52.5554 22.2686 53.4553 23.427 53.7355C23.7645 53.7454 24.102 53.7573 24.4394 53.7671C23.5691 54.0592 22.7186 54.2151 22.0239 53.3862C21.7299 52.068 22.1818 50.8326 22.4561 49.5794C22.6416 48.7328 22.8587 47.8921 23.0106 47.0356L23.0047 47.0435C23.21 46.4613 23.2751 45.8476 23.4034 45.2477C23.4172 44.9714 23.3836 44.6832 23.5987 44.4563V44.4583Z" fill="#FADF48"/>
<path d="M32.0688 37.2058C32.0866 36.8723 32.3313 36.665 32.5129 36.4243C33.1325 35.9842 33.8371 35.927 34.5633 35.9546C36.3138 35.9546 37.9241 35.4119 39.4891 34.6896C39.9213 34.66 40.2291 34.8396 40.4107 35.2343C40.4344 35.477 40.316 35.6507 40.1364 35.7947C38.7036 36.3927 37.1604 36.444 35.6527 36.665C35.329 36.7124 35.0073 36.7341 34.7212 36.9078C34.0384 36.9729 33.3437 36.7953 32.6708 37.0143C32.4695 37.0775 32.2701 37.1406 32.0688 37.2058V37.2058Z" fill="#EBE1C8"/>
<path d="M9.44899 37.3972C9.44307 37.2374 9.40754 37.0953 9.25164 37.0124C9.03851 36.2191 9.61278 35.9961 10.1634 35.7573C11.1935 36.3947 12.1092 37.2137 13.24 37.6932C13.2538 37.8728 13.092 37.9064 12.9933 37.9912C12.3224 38.0761 11.679 37.8926 11.0278 37.788C10.8659 37.6103 10.6528 37.5965 10.4337 37.6044C10.1062 37.5354 9.77856 37.4643 9.45096 37.3952L9.44899 37.3972Z" fill="#D5D1CC"/>
<path d="M51.0121 34.2752C50.5148 34.7922 49.8754 35.0448 49.2064 35.2461C47.7382 35.5678 47.6967 35.5441 47.2428 34.0798C47.1994 33.7483 47.0988 33.4207 47.1836 33.0812C47.302 32.9095 47.4698 32.8148 47.6691 32.7675C48.1565 32.7319 48.3203 33.1286 48.5571 33.4286C48.9203 34.2732 49.4945 34.6067 50.3925 34.212C50.5957 34.1232 50.8266 34.0719 51.0121 34.2772V34.2752Z" fill="#C3C0BA"/>
<path d="M46.8422 36.0257C46.2127 36.2901 45.5634 36.4519 44.8747 36.4204C44.4859 36.3059 44.2787 36.1263 44.624 35.7415C45.2536 35.258 45.5476 34.5396 45.9107 33.8706C45.9917 33.6989 46.0824 33.5351 46.2462 33.4246C46.5225 33.3733 46.7021 33.5292 46.8679 33.7128C46.9231 33.7897 46.9646 33.8746 46.9922 33.9654C47.0948 34.662 46.4732 35.3073 46.8422 36.0237V36.0257Z" fill="#CFCAC1"/>
<path d="M51.0122 34.2752C49.6288 34.6462 48.9775 35.2067 48.4191 33.472C48.2197 33.1345 47.9395 32.8188 48.1151 32.3767C48.4052 32.0708 48.5592 32.3787 48.7151 32.5326C49.0052 32.8188 49.2815 33.1187 49.6347 33.3319C50.3037 33.9831 50.9727 33.8529 51.6417 33.3319C51.9377 33.1266 52.1529 32.7911 52.5594 32.7694C52.6541 32.7852 52.7331 32.8286 52.7942 32.9017C52.3147 33.5095 51.7404 33.991 51.0122 34.2772V34.2752Z" fill="#BDBBB6"/>
<path d="M34.8396 36.8151C34.658 36.3789 34.9619 36.4381 35.2244 36.4204C36.89 36.3079 38.53 36.0257 40.1522 35.6369C40.2923 35.5303 40.4324 35.5126 40.5745 35.6329C40.2508 36.4875 39.4378 36.3552 38.7747 36.523C38.5063 36.523 38.2379 36.5131 37.9695 36.523C37.8393 36.5368 38.0504 36.7065 37.9794 36.596C37.9537 36.5565 37.9813 36.521 38.0524 36.5388C38.305 36.598 38.6918 36.3237 38.7747 36.819C37.5255 36.8743 36.2763 36.9295 35.0271 36.9867C34.9422 36.9552 34.881 36.8979 34.8416 36.819L34.8396 36.8151Z" fill="#E6DDCA"/>
<path d="M46.8422 36.0256C46.4258 35.8184 46.2068 35.5836 46.5087 35.0784C46.7199 34.7251 46.862 34.3068 46.8442 33.8667C47.1323 33.6555 47.2882 33.8469 47.4343 34.064C47.5882 35.1139 48.2355 35.4218 49.2064 35.2461C48.4703 35.6665 47.679 35.9132 46.8422 36.0256Z" fill="#C8C6C1"/>
<path d="M12.9913 37.9932C13.0565 37.9281 13.1216 37.8649 13.1867 37.7998C13.5775 37.4169 14.13 37.6143 14.5701 37.413C14.7339 37.3696 14.9016 37.3518 15.0694 37.336C16.0976 37.3854 17.106 37.5728 18.1066 37.7998C18.4046 38.2083 18.963 37.7939 19.2729 38.1649C17.179 38.1313 15.0753 38.4017 12.9913 37.9912V37.9932Z" fill="#DAD4CB"/>
<path d="M38.7727 36.817C38.5241 36.4795 38.1097 36.7085 37.8038 36.4243H38.7727C39.8364 36.2565 40.8844 36.0138 41.9165 35.7119C42.0132 35.6961 42.1119 35.7 42.2066 35.7237C42.2954 35.7573 42.3645 35.8165 42.4177 35.8934C42.5065 36.3828 43.2999 36.0237 43.2999 36.6197C41.804 36.9986 40.2824 36.7578 38.7727 36.817Z" fill="#DDD7CC"/>
<path d="M43.2998 36.6197C43.1183 36.3631 42.842 36.4204 42.5953 36.4302C42.2716 36.4421 42.1888 36.3197 42.317 36.0336C43.1419 35.8283 43.7675 35.0093 44.7365 35.2442C44.8569 35.4553 44.8332 35.6527 44.6793 35.8362C44.4602 36.1263 44.7543 36.2467 44.8747 36.4243C44.3773 36.7144 43.8307 36.6039 43.2998 36.6217V36.6197Z" fill="#D6D1C7"/>
<path d="M20.8714 39.3904C20.9345 39.5818 20.9977 39.7752 21.0608 39.9667C21.2069 40.1245 21.2779 40.3337 21.1753 40.5034C20.6681 41.3363 20.5063 42.3111 20.0524 43.1657C19.6833 42.7986 19.6518 42.3723 19.8077 41.9007C20.0958 41.0343 20.378 40.168 20.8714 39.3904Z" fill="#FBE05D"/>
<path d="M20.0504 43.1657C20.0248 42.2855 20.3228 41.4981 20.7826 40.7738C20.9464 40.5153 21.0885 40.2785 21.0589 39.9667C21.2562 39.7693 21.4516 39.572 21.6489 39.3746C22.018 39.8384 21.6312 40.2291 21.5246 40.6455C21.2562 41.5553 20.605 42.3467 20.6662 43.361C20.5181 43.4163 20.3761 43.4123 20.2379 43.3295C20.1748 43.2742 20.1116 43.2209 20.0485 43.1657H20.0504Z" fill="#FBE23F"/>
<path d="M23.0126 47.0356C23.0422 48.2631 22.6159 49.4058 22.3416 50.5741C22.1226 51.5016 22.0101 52.4331 22.0259 53.3843C21.6687 52.9896 21.7831 52.5041 21.8443 52.0719C22.0871 50.3609 22.4462 48.6716 23.0146 47.0356H23.0126Z" fill="#FCE662"/>
<path d="M56.0938 26.1899C56.157 26.1899 56.2221 26.1899 56.2852 26.1899C56.1412 27.7667 55.6162 29.2093 54.7361 30.5236C54.6631 30.5947 54.5841 30.5986 54.5012 30.5473C54.3868 30.3125 54.5012 30.1053 54.5821 29.8941C54.6552 29.7283 54.7341 29.5665 54.8091 29.4007C55.0795 28.9626 55.0301 28.412 55.3123 27.9779C55.7169 27.4431 55.409 26.5984 56.0958 26.1879L56.0938 26.1899Z" fill="#C2C2C1"/>
<path d="M53.556 16.735C53.4178 16.6719 53.2817 16.6087 53.1435 16.5455C52.6403 16.4074 52.3956 15.9476 52.0226 15.6496C51.6615 15.1168 50.9313 14.8977 50.7833 14.1853C50.7833 14.1162 50.7833 14.0491 50.7852 13.98C51.916 14.6905 52.8692 15.5786 53.558 16.735H53.556Z" fill="#D8D8D8"/>
<path d="M0.195373 23.4349C0.481526 24.2046 0.376932 25.0058 0.394694 25.7972C0.453898 26.2748 0.311808 26.7227 0.1934 27.1747C-0.0355224 27.0306 0.0059204 26.7997 0 26.5826C0.161824 25.7301 0.161824 24.8795 0 24.027C0.0059204 23.8099 -0.0355224 23.577 0.195373 23.4349V23.4349Z" fill="#F9FAFA"/>
<path d="M52.7942 32.8997C52.7133 32.8938 52.6324 32.8878 52.5535 32.8819C52.4114 32.58 52.664 32.4103 52.7784 32.1912C52.8554 32.0846 52.9422 31.9879 53.033 31.8912C53.3113 31.6011 53.5086 31.2282 53.8954 31.0486C53.9902 31.0288 54.079 31.0446 54.1638 31.09C54.2112 31.1788 54.2053 31.2637 54.148 31.3466C53.8836 32.0254 53.3113 32.4399 52.7942 32.8997Z" fill="#B5B5B4"/>
<path d="M0 24.027C0.319702 24.8795 0.321675 25.7321 0 26.5826C0 25.7301 0 24.8775 0 24.027V24.027Z" fill="#F2F3F3"/>
<path d="M34.8396 36.815C34.9028 36.8723 34.9639 36.9275 35.0251 36.9848C34.2397 36.9946 33.4562 37.0045 32.6708 37.0144C33.3595 36.592 34.1193 36.9236 34.8376 36.815H34.8396Z" fill="#DFD8CD"/>
<path d="M23.4053 45.2477C23.4586 45.8871 23.3876 46.5008 23.0067 47.0435C23.0027 46.414 23.1468 45.818 23.4053 45.2477Z" fill="#FCE662"/>
<path d="M54.146 31.3485C54.1382 31.2696 54.1322 31.1906 54.1243 31.1117C53.9369 30.8552 53.9388 30.6282 54.2289 30.4486C54.3395 30.421 54.4362 30.4447 54.519 30.5216C54.5901 30.5216 54.6611 30.5256 54.7341 30.5276C54.6651 30.8927 54.4342 31.1413 54.1441 31.3485H54.146Z" fill="#BBBBBA"/>
<path d="M20.2399 43.3295C20.382 43.3216 20.524 43.3157 20.6661 43.3078C20.9385 43.1578 21.2128 43.2782 21.4851 43.3038C21.6252 43.3374 21.7515 43.3946 21.8364 43.5189C21.8423 43.5762 21.8482 43.6334 21.8522 43.6906C21.2759 43.738 20.7076 43.7538 20.2399 43.3295V43.3295Z" fill="#FBE05D"/>
<path d="M24.996 0.408494C24.7335 0.684779 24.471 0.686753 24.2086 0.408494C24.471 0.0493224 24.7335 0.307847 24.996 0.408494Z" fill="#F4F5F4"/>
<path d="M10.4297 37.6084C10.7455 37.2867 10.935 37.3814 11.0238 37.7919C10.8047 37.7998 10.5778 37.8314 10.4297 37.6084Z" fill="#DEDCD8"/>
<path d="M34.4449 2.37804C34.4449 2.31292 34.4449 2.24779 34.4449 2.18069C34.6422 2.31094 34.8396 2.43922 35.0369 2.56947C34.7547 2.76681 34.6087 2.54776 34.4449 2.37607V2.37804Z" fill="#DEDFDE"/>
<path d="M30.5098 0.801218C30.573 0.670969 30.6381 0.542694 30.7013 0.412445C30.8651 0.412445 31.0111 0.445994 31.0979 0.605845C30.9558 0.836741 30.7249 0.795298 30.5098 0.801218Z" fill="#EEF0EF"/>
<path d="M30.3105 0.406545C30.2157 0.566396 30.0697 0.649281 29.9079 0.556528C29.7579 0.469696 29.8921 0.331553 29.9138 0.215118C30.0776 0.215118 30.2236 0.248667 30.3124 0.406545H30.3105Z" fill="#F0F1F1"/>
<path d="M23.6184 8.47801C23.1152 10.0173 22.1265 11.2409 21.0589 12.4151C20.1017 12.3993 19.3558 12.5315 19.1505 13.7551C19.0538 14.3274 18.2625 14.4892 17.6369 14.351C16.6541 14.134 15.77 14.4201 14.8563 14.726C13.2676 15.2569 11.6553 15.7009 10.5462 17.1021C10.266 17.4573 10.0765 17.8993 9.64432 18.1223C9.5792 18.1223 9.5121 18.1223 9.44698 18.1223C9.00689 18.1697 8.80955 17.9724 8.85691 17.5323C8.06752 17.0192 8.24711 16.5811 8.776 15.8923C9.94034 14.3708 11.6494 13.9721 13.2972 13.4215C13.9702 13.1966 14.7023 13.1393 15.3536 12.8709C15.8272 12.6775 16.1607 12.796 16.5337 13.0051C17.0685 12.8887 17.3073 13.4077 17.7178 13.5617C17.9408 13.6445 18.1559 13.7235 18.3513 13.5281C18.5506 13.3288 18.4776 13.1157 18.3592 12.9045C18.1559 12.5374 17.8026 12.2611 17.7158 11.825C17.1968 11.154 17.5362 10.9073 18.2092 10.8501C18.3651 10.8363 18.5348 10.8837 18.6848 10.9409C19.3696 11.2053 20.0386 12.0835 20.7885 11.3593C21.9726 10.2147 23.2356 9.05031 23.3422 7.23077C23.3599 6.93278 23.1389 6.62097 23.0304 6.31509C23.5178 6.27364 23.7724 6.56177 23.7369 6.98409C23.6934 7.4814 23.8355 7.99845 23.6204 8.47998L23.6184 8.47801Z" fill="#EAEBEB"/>
<path d="M9.64437 18.1223C10.4416 16.4863 11.6612 15.3694 13.4749 14.953C13.8853 14.8582 14.2781 14.6806 14.6728 14.5287C15.6852 14.1399 16.6679 13.8103 17.8066 14.1419C18.7302 14.4103 19.2611 13.8182 19.1367 12.8631C19.046 12.1585 19.4288 11.827 20.0445 12.1506C20.382 12.3282 20.6918 12.4348 21.0609 12.4151C20.2419 12.9361 19.5295 13.5755 18.8565 14.2741C18.5487 14.5918 18.0474 14.4833 17.6606 14.6115C15.7266 15.2529 13.69 15.6358 11.9691 16.8396C11.2804 17.3211 10.6943 17.8599 10.3726 18.6453C10.1259 19.2452 9.64239 19.6617 9.17073 20.0504C8.49778 20.605 8.43463 21.5878 7.67682 22.0594C7.82286 21.6983 7.95508 21.3332 8.11888 20.9799C8.26491 20.6661 8.33398 20.3721 8.11888 20.0583C7.98468 19.859 7.61169 19.707 7.81496 19.4248C7.98665 19.1841 8.28662 19.3755 8.53922 19.4248C9.43123 19.6005 9.90684 19.0321 9.64437 18.1243V18.1223Z" fill="#E7E8E8"/>
<path d="M17.7138 9.46279C17.3547 9.45884 16.9521 9.38385 17.2205 8.92798C17.9842 7.62549 18.6078 6.23222 19.6301 5.09353C19.7722 4.93565 19.9261 4.69291 20.1945 4.83106C20.5398 5.00867 20.23 5.29482 20.2714 5.52572C19.4702 6.87162 18.8111 8.31028 17.7119 9.46279H17.7138Z" fill="#F0F1F2"/>
<path d="M17.7138 11.8231C18.2092 12.0244 18.3197 12.569 18.6769 12.8966C19.0143 13.2065 18.7677 13.5005 18.5841 13.7551C18.3848 14.0333 18.0671 14.0669 17.7987 13.9011C17.3586 13.6308 16.954 13.3051 16.5337 13.0032C16.6817 12.3638 16.9067 11.8013 17.7138 11.8231V11.8231Z" fill="#EFF0EF"/>
<path d="M8.85691 17.5303C8.98518 17.7948 9.18253 17.9921 9.44698 18.1204C9.43513 18.5328 9.52591 19.0519 8.92006 19.0756C8.39117 19.0973 7.88004 18.8545 7.58402 18.4243C7.3176 18.0375 7.67085 17.7415 8.0024 17.6073C8.25697 17.5047 8.57076 17.5501 8.85888 17.5284L8.85691 17.5303Z" fill="#EFF0EF"/>
<path d="M24.0132 4.14822C24.2776 4.2765 24.475 4.47385 24.6032 4.73829C24.5361 5.06589 24.7848 5.64017 24.1513 5.5632C23.579 5.49413 23.0422 5.18824 22.7738 4.63764C22.6831 4.45016 22.8784 4.19953 23.1429 4.17191C23.431 4.1423 23.7231 4.15414 24.0132 4.14822V4.14822Z" fill="#EFF0EF"/>
<path d="M23.6185 8.47802C23.4942 7.73599 23.9915 6.82622 23.0284 6.31312C22.9949 6.19077 22.9692 6.06446 22.9219 5.94606C22.8488 5.76252 22.5212 5.60267 22.8232 5.39151C22.9988 5.26718 23.1922 5.40927 23.3363 5.54742C23.7803 5.97566 24.2599 6.09209 24.7986 5.72305H24.996C24.321 6.53415 23.7389 7.39063 23.6185 8.47802V8.47802Z" fill="#E8EAEA"/>
<path d="M21.4535 4.34558C21.0273 3.61935 21.7476 3.38451 22.0436 2.9681C22.3949 2.94048 22.7501 3.01744 22.8665 3.35885C22.9988 3.74565 22.5587 3.87393 22.3653 4.11074C22.1265 4.40281 21.7772 4.34164 21.4535 4.34756V4.34558Z" fill="#F1F2F2"/>
<path d="M15.3516 12.2177C15.3417 11.6474 15.5805 11.1994 16.0522 10.8916C16.4666 10.6212 16.5594 10.856 16.5317 11.233C16.1509 11.5764 16.4193 12.6973 15.3516 12.2177Z" fill="#F2F3F2"/>
<path d="M6.29735 29.5369C5.70137 29.8862 5.48823 29.7599 5.55928 29.0376C5.64611 28.1555 6.16316 27.4707 6.48878 26.6971C7.87613 23.4093 10.043 20.7372 12.723 18.3927C13.913 17.3527 15.2569 17.1159 16.66 16.956C18.7065 16.7232 20.2458 15.5391 21.8739 14.4675C23.9915 13.0742 24.8736 10.8047 26.0241 8.73655C26.8372 7.27421 27.6246 5.81187 28.9922 4.7837C30.05 3.98839 30.4447 2.79839 30.9578 1.67154C31.1354 1.27882 31.3071 0.830841 31.8834 1.19791C31.9761 2.62472 31.2262 3.74171 30.352 4.687C28.7752 6.39207 27.5042 8.27674 26.5925 10.3903C25.4913 12.94 23.4803 14.5721 21.3194 16.1647C19.6933 17.3646 17.8895 17.7533 16.0127 17.8599C14.4359 17.9507 13.2815 18.7026 12.2296 19.6913C11.2093 20.6524 10.2502 21.6845 9.44701 22.8449C8.03401 24.5184 7.2387 26.5333 6.32696 28.485C6.15724 28.8482 6.23223 29.1837 6.29735 29.5369V29.5369Z" fill="#E1E3E3"/>
<path d="M7.47944 30.127C7.41431 30.127 7.34919 30.127 7.28209 30.127C7.21697 29.9967 7.14987 29.8645 7.08474 29.7342C6.8874 28.1792 7.53864 26.8964 8.3379 25.6354C9.83181 23.2751 11.4816 21.0628 13.832 19.4643C14.5622 18.967 15.3832 18.7598 16.2298 18.7262C17.4849 18.6769 18.671 18.4125 19.8472 17.9744C20.7806 17.627 21.7437 17.4119 22.6791 16.9935C24.1927 16.3166 25.2979 15.1858 26.5017 14.1735C28.0311 12.8335 28.0134 10.5127 29.1935 8.94179C30.2394 7.46761 30.7525 5.63426 32.2859 4.47781C32.9214 3.99825 32.6214 3.199 32.6727 2.53197C32.73 1.75442 32.8286 1.68535 33.4601 1.98532C33.6101 3.39635 33.2628 4.56069 32.4399 5.81976C31.2163 7.69259 29.7402 9.45686 29.0297 11.6454C27.0977 17.9151 21.3667 18.9275 15.622 19.6064C14.8306 19.6853 14.1063 19.9557 13.4946 20.5103C11.2705 22.5212 9.27135 24.7019 8.04188 27.4904C7.94715 27.7055 7.94123 27.9364 7.88202 28.1555C7.58995 28.7811 7.54653 29.456 7.47746 30.127H7.47944Z" fill="#DEE0DF"/>
<path d="M9.44698 22.8449C10.1574 21.2148 11.529 20.1392 12.7427 18.9354C13.8103 17.8757 15.2016 17.5816 16.6028 17.5599C19.0913 17.5205 20.899 16.1745 22.7699 14.7813C24.7157 13.3347 25.8899 11.4027 26.8727 9.27333C27.67 7.54457 28.7613 6.00921 30.0993 4.63568C31.0269 3.68249 31.5123 2.45894 31.8853 1.19592C31.9504 1.19592 32.0175 1.19592 32.0827 1.19592C32.2208 2.52209 31.8675 3.62921 30.9301 4.64949C29.3474 6.37036 27.9364 8.25107 27.1589 10.491C26.4168 12.6302 24.9209 14.0748 23.1823 15.4148C21.0983 17.0212 18.7973 17.9862 16.1864 18.0908C14.4024 18.1618 13.1985 19.2018 11.9454 20.2399C11.01 21.0135 10.4673 22.1601 9.44501 22.8468L9.44698 22.8449Z" fill="#E1E2E2"/>
<path d="M7.08477 30.717C5.82768 31.7393 5.19814 32.803 3.93512 31.1117C3.96077 30.3401 4.71464 30.4467 5.11723 30.127C5.82373 30.0184 7.17161 29.5053 7.08477 30.717Z" fill="#EBEBE9"/>
<path d="M6.29733 29.5369C5.84935 29.308 5.79607 28.9291 6.01907 28.5482C6.96239 26.924 7.53864 25.1005 8.68128 23.5829C8.89836 23.2948 9.12136 23.0165 9.44698 22.8448C9.40357 23.2553 9.16872 23.5573 8.92204 23.873C7.77348 25.3373 7.21894 27.0898 6.56769 28.7949C6.45718 29.083 6.58348 29.302 6.69005 29.5369H6.29733V29.5369Z" fill="#E1E2E2"/>
<path d="M24.2184 43.9175C24.3645 43.8899 24.5914 43.9077 24.6388 43.8248C24.7256 43.6649 24.5401 43.5801 24.4079 43.511C22.7561 42.6447 22.0752 41.208 21.9943 39.4141C22.022 38.8536 22.2272 38.3622 22.5883 37.934C22.7896 37.7445 22.9337 37.486 23.2258 37.4071C23.4725 37.6005 23.5869 37.8689 23.6106 38.1708C23.7606 40.1048 24.625 41.6954 25.8761 43.1361C26.3754 43.7103 26.8313 44.3537 26.7859 45.224C26.7524 45.8555 27.149 45.9443 27.6167 45.6305C28.047 45.3424 28.4752 45.0306 28.8423 44.6675C30.202 43.3216 31.6821 42.0881 32.807 40.5173C33.2569 39.8897 33.6338 39.2602 33.1128 38.4767C32.8444 38.0721 33.0832 37.9695 33.4602 37.9991C34.2022 39.1516 34.2338 39.8127 33.3181 40.9356C31.1966 43.5327 29.1185 46.1712 26.8214 48.6203C26.4169 49.0505 25.9235 49.3801 25.4617 49.7412C25.0808 50.0392 24.6763 50.0313 24.2776 49.7728C23.879 49.5163 23.8671 49.165 24.0033 48.7427C24.2007 48.1289 24.179 47.4639 24.4079 46.8521C24.4079 46.5896 24.4098 46.3252 24.4118 46.0627C24.8341 45.3128 23.8375 44.6793 24.2224 43.9156L24.2184 43.9175Z" fill="#FCE906"/>
<path d="M24.8006 33.8667C25.8978 33.0556 26.9931 32.2149 28.3824 31.9978C29.31 31.8537 30.2612 31.7886 31.2005 31.7926C32.1715 31.7965 32.6037 32.503 32.1813 33.397C31.6189 34.587 31.4551 35.8954 30.9756 37.1071C30.3401 38.9523 33.4996 38.4491 32.0452 40.4581C30.4605 42.7887 27.7272 42.3743 26.2767 40.9593C24.5322 39.2562 23.875 37.2709 24.5421 34.8889C24.5598 34.8277 24.4552 34.733 24.4079 34.6521C24.2204 34.2298 24.2835 33.9338 24.8006 33.8647V33.8667Z" fill="#FDEE0A"/>
<path d="M24.4059 46.8541C24.5006 47.454 24.2559 48.0145 24.1632 48.5887C24.0921 49.0328 23.9441 49.3762 24.471 49.6544C24.9841 49.9248 25.2348 49.6248 25.5703 49.3426C27.6009 47.6356 29.235 45.5654 30.8828 43.511C32.1794 41.8572 34.4884 40.3712 33.4602 37.9991C33.5253 37.9991 33.5904 37.9991 33.6555 37.9991C34.4351 38.8497 34.514 39.5226 33.8134 40.4877C32.9431 41.6836 32.0176 42.84 31.09 43.9925C30.8631 44.2747 30.6598 44.5589 30.5079 44.8845C28.9172 46.8363 27.3266 48.79 25.7321 50.7398C25.2683 51.3062 24.5993 51.6062 24.027 52.0305C23.8869 52.1351 23.7231 52.1844 23.5751 52.0838C23.4192 51.9792 23.4251 51.7996 23.4961 51.6456C23.6836 51.2391 23.6007 50.8128 23.6185 50.3925C23.7685 49.1867 23.881 47.973 24.4079 46.8521L24.4059 46.8541Z" fill="#FBE607"/>
<path d="M22.8251 37.9972C22.4758 38.3899 22.241 38.8319 22.239 39.3727C21.9864 39.793 22.1068 40.4265 21.5088 40.6515C21.4121 40.6574 21.3273 40.6238 21.2562 40.5587C21.424 40.1759 21.7022 39.8305 21.6489 39.3746C21.8581 38.7885 21.8246 38.1215 22.239 37.6044C23.0679 35.627 23.8632 33.6358 24.7473 31.6821C24.9091 31.3249 25.0611 30.9637 25.3887 30.719C25.4518 30.717 25.5169 30.7151 25.5801 30.7111C25.6492 30.644 25.7163 30.646 25.7834 30.717C25.7163 30.9124 25.6492 31.1078 25.5821 31.3012C25.0453 32.7675 24.4019 34.1903 23.8099 35.6349C23.6106 36.0928 23.4034 36.5486 23.2179 37.0124C23.0402 37.3222 22.9929 37.6834 22.8192 37.9952L22.8251 37.9972Z" fill="#FCE73A"/>
<path d="M25.7853 30.719C25.7182 30.719 25.6511 30.715 25.582 30.7131C25.586 30.6539 25.588 30.5947 25.588 30.5355C25.9215 30.1684 26.3694 30.2513 26.7839 30.2493C28.8442 30.2394 30.9025 30.2394 32.9628 30.2473C33.3082 30.3046 33.7719 30.1546 33.8213 30.7348C31.1433 30.6933 28.4633 30.7269 25.7853 30.721V30.719Z" fill="#FCE94A"/>
<path d="M23.8138 35.6369C24.2125 34.1134 24.8677 32.6964 25.586 31.3031C25.5663 32.2326 24.9308 32.9707 24.8006 33.8667C24.544 34.066 24.4394 34.3423 24.4079 34.6541C24.2085 34.9797 24.1355 35.3823 23.8158 35.6369H23.8138Z" fill="#FCEB0B"/>
<path d="M23.2218 37.0144C23.2277 36.4716 23.4547 36.0256 23.8138 35.6369C23.8138 36.1815 23.5849 36.6276 23.2218 37.0144Z" fill="#FDEE0A"/>
<path d="M22.8252 37.9971C22.8212 37.6143 22.912 37.2689 23.2238 37.0124C23.2238 37.1446 23.2238 37.2768 23.2238 37.4071C23.0896 37.6044 22.9574 37.7998 22.8232 37.9971H22.8252Z" fill="#FDEE0A"/>
<path d="M40.1522 11.6277C40.5271 11.3692 40.8744 11.0554 41.3501 11.4955C41.6066 11.7323 41.9756 11.6336 42.2953 11.6237C43.9866 11.5665 45.3937 12.3125 46.7751 13.1591C47.2488 13.4492 47.4343 13.8577 47.4303 14.3767C47.4244 15.1069 47.3691 15.841 47.6316 16.5475C47.4974 16.6146 47.377 16.5633 47.2547 16.5081C46.6547 16.3127 46.2995 16.4568 46.3488 17.1633C46.337 17.2106 46.3252 17.256 46.3133 17.3034C46.2521 17.3882 46.1712 17.4376 46.0686 17.4573C45.4193 17.3271 44.8056 17.4139 44.1524 17.5639C41.4783 18.1776 40.9297 17.781 40.1541 15.3674C39.8147 14.3116 39.5739 13.2834 38.7194 12.5197C38.7924 12.271 39.0194 12.2414 39.1832 12.3144C39.9232 12.648 40.1147 12.2572 40.1502 11.6277H40.1522Z" fill="#DEDFDF"/>
<path d="M7.67484 28.1594C7.62155 27.2832 8.14649 26.5787 8.54711 25.9215C9.89301 23.7132 11.5843 21.7831 13.5972 20.1294C14.7695 19.1663 16.1805 19.3716 17.4948 19.117C20.8576 18.4618 24.2303 17.9053 26.7977 15.2746C27.7134 14.3372 28.0943 13.1413 28.5581 12.0362C29.2863 10.2995 30.3026 8.77403 31.2538 7.18144C31.8123 6.24799 32.5188 5.41913 33.0181 4.45016C33.4266 3.6588 33.0122 2.75101 33.4582 1.98727C33.6555 2.0524 33.8529 2.1195 34.0502 2.18462C33.991 3.15162 34.1213 4.11862 33.9377 5.08957C33.772 5.95592 34.6719 6.29535 35.035 6.90713C34.6166 7.24657 34.3463 6.65058 33.92 6.7532C33.6536 7.21696 34.5041 7.65507 34.0127 8.13857C33.9792 8.13857 33.9397 8.15239 33.9141 8.13857C32.7043 7.50114 32.732 7.5268 31.688 8.52143C30.8572 9.31279 30.3085 10.2561 29.9277 11.3159C29.7402 11.8408 29.5093 12.348 29.3376 12.8769C27.9818 17.0448 24.7927 18.6493 20.7431 19.1979C18.9374 19.4426 17.1495 19.8254 15.3358 20.0741C13.7906 20.2853 12.7309 21.5029 11.7796 22.6929C10.4969 24.2993 9.0681 25.8031 8.24122 27.7331C8.14649 27.9542 8.02414 28.2344 7.67484 28.1634V28.1594Z" fill="#DEDFDE"/>
<path d="M34.0502 8.08332C34.0245 7.74389 33.8607 7.46365 33.6594 7.20513C33.4522 6.93871 33.3851 6.67229 33.6752 6.43745C34.2239 6.01513 34.4883 6.95055 35.0349 6.90122C36.5644 8.45828 38.3267 9.77064 39.7594 11.4284C39.9015 11.6967 40.2252 11.9296 39.9627 12.2848C39.7022 12.6381 39.4022 12.3697 39.0983 12.3539C38.2142 12.3085 37.6794 11.6474 36.9907 11.2646C35.8776 10.3272 34.6501 9.49435 34.0502 8.08135V8.08332Z" fill="#E6E7E7"/>
<path d="M48.8117 17.3349C48.3006 16.1982 48.8552 15.1148 49.013 14.0195C49.0999 13.4137 49.4334 13.1019 50.0175 13.6821C50.1951 13.8577 50.4833 13.9149 50.5839 14.1873C50.8721 14.5938 50.9273 15.0536 50.7221 15.4858C50.2445 16.4942 49.8676 17.5224 49.8005 18.6473C49.7886 18.8446 49.6663 19.0104 49.5163 19.1446C49.2795 19.3104 49.0229 19.3321 48.7545 19.2453C48.6637 19.2038 48.6026 19.1308 48.571 19.0361C48.796 18.669 49.3742 18.3947 48.8848 17.8401C48.8078 17.6803 48.7052 17.5224 48.8117 17.3349V17.3349Z" fill="#D8D8D8"/>
<path d="M49.4038 19.1051C49.7196 18.2072 49.54 17.2007 49.9998 16.3344C50.357 15.6614 50.7655 15.0043 50.5839 14.1853C50.6491 14.1853 50.7162 14.1853 50.7813 14.1853C51.2668 14.6175 51.8134 14.9904 52.1588 15.5628C51.6101 16.8495 50.5484 17.8046 49.909 19.0341C49.8182 19.2097 49.5972 19.2551 49.4038 19.1051V19.1051Z" fill="#D4D5D4"/>
<path d="M48.8118 17.3349C48.8769 17.4652 48.942 17.5974 49.0091 17.7277C49.3426 18.521 48.9716 18.7558 48.2375 18.7045C47.4224 18.3789 46.6252 18.0276 46.2541 17.1356C46.1831 16.1745 46.7554 16.1844 47.4343 16.3502C47.4994 16.4153 47.5665 16.4804 47.6316 16.5455C48.0243 16.808 48.419 17.0705 48.8118 17.333V17.3349Z" fill="#E6E6E6"/>
<path d="M37.0025 11.0356C37.7386 11.227 38.1234 12.0164 38.8832 12.1546C39.1792 12.2079 39.4693 12.5276 39.7851 12.2414C40.0791 11.975 39.7141 11.7027 39.7594 11.4283C39.8897 11.4935 40.0219 11.5606 40.1522 11.6257C40.3179 11.975 40.5232 12.3717 40.2114 12.6874C39.9449 12.9578 39.6252 12.5966 39.3213 12.5651C39.1358 12.5453 38.9562 12.4644 38.7747 12.4111C38.078 12.6775 37.7722 12.0579 37.3183 11.7717C37.1466 11.5546 36.8742 11.379 37.0045 11.0317L37.0025 11.0356Z" fill="#E2E3E3"/>
<path d="M5.10339 18.9335C5.10339 18.965 5.11326 19.0104 5.0955 19.0282C4.12455 20.0919 4.20744 21.8562 2.73326 22.5883C2.59314 22.6574 2.47473 22.8409 2.30699 22.7363C2.10964 22.612 2.15898 22.391 2.20831 22.2055C2.57538 20.8655 3.33911 19.7327 4.13639 18.6236C4.27059 18.4362 4.45807 18.2941 4.72448 18.4243C4.93762 18.5309 5.1251 18.6513 5.10339 18.9315V18.9335Z" fill="#F1F2F2"/>
<path d="M56.0939 24.025C56.0939 24.6151 56.0939 25.2051 56.0939 25.7972C55.8136 25.9353 55.5689 25.8031 55.3657 25.6511C54.7223 25.1617 54.0869 24.7552 53.2304 25.1775C53.0311 25.2762 52.7488 25.1736 52.5989 24.996C51.8608 24.1257 50.9372 24.3704 50.061 24.6052C48.9341 24.9071 47.7619 25.1282 46.8383 25.9412C46.6686 26.0893 46.4357 26.1564 46.2048 26.1958C45.9364 26.2313 45.6779 26.2156 45.451 26.0478C45.3483 25.9077 45.3306 25.7538 45.372 25.59C45.8891 24.7572 46.7791 24.4138 47.5922 24.0408C49.2854 23.2652 51.0181 22.5745 52.8732 22.2528C53.8027 22.091 54.6059 22.3574 55.3992 22.8074C55.9005 23.0916 55.9419 23.577 56.0978 24.027L56.0939 24.025Z" fill="#C2C2C1"/>
<path d="M56.0939 24.025C55.2808 22.5449 54.002 22.1009 51.8608 22.7265C49.6031 23.3856 47.3869 24.173 45.4648 25.5998C45.2023 25.7952 44.9398 25.8386 44.6774 25.5998C44.8688 24.8756 45.4312 24.4789 46.0272 24.1474C48.1013 22.9948 50.3827 22.2903 52.4864 21.1812C53.2679 20.7688 54.3257 21.1911 55.2315 20.8556C55.4643 20.7688 55.642 21.0312 55.7209 21.3371C55.9518 22.2212 56.1768 23.1014 56.0939 24.027V24.025Z" fill="#C5C5C5"/>
<path d="M46.2541 25.9945C47.7382 24.9387 49.3939 24.4 51.1957 24.1454C51.843 24.0546 52.1942 24.2618 52.5436 24.6467C52.7606 24.8854 53.0488 25.1538 53.2816 24.9664C54.2111 24.2125 54.7617 24.992 55.413 25.4084C55.634 25.5485 55.8669 25.6689 56.0938 25.7992C56.0938 25.9294 56.0938 26.0616 56.0938 26.1919C55.7682 26.8076 55.9419 27.5753 55.5018 28.1575C54.5269 26.3498 51.9653 25.144 49.907 25.5604C49.0189 25.74 48.0973 25.8564 47.3671 26.4859C46.8738 26.6339 46.6527 27.3898 45.968 27.1194C45.745 26.6635 45.9068 26.3063 46.2521 25.9945H46.2541Z" fill="#BEBDBD"/>
<path d="M44.4819 23.4349C44.8056 22.833 45.4075 22.6337 45.9936 22.4502C47.2152 22.0693 48.3223 21.497 49.3426 20.7194C50.6984 19.6873 52.2929 19.0143 53.4612 17.6763C53.9783 17.0843 54.1263 17.9546 54.3236 18.3177C53.5776 19.19 52.8455 20.1017 51.6733 20.4017C51.1266 20.5418 50.6352 20.7411 50.1912 21.0727C48.9124 21.9371 47.4303 22.3732 46.0587 23.0402C45.5437 23.2099 45.1233 23.7586 44.4839 23.4329L44.4819 23.4349Z" fill="#CDCDCC"/>
<path d="M43.8919 25.2071C44.0893 25.3393 44.2846 25.4696 44.482 25.6018C44.4484 26.2886 44.3853 26.9714 44.1366 27.6226C43.7735 27.9246 43.4104 27.9088 43.0433 27.6305C42.7552 27.2694 42.544 26.8767 42.5421 26.3971C42.619 25.9432 42.7374 25.511 43.1815 25.2643C43.4124 25.1736 43.6432 25.0709 43.8939 25.2071H43.8919Z" fill="#CECAC2"/>
<path d="M43.8919 25.2071C43.6945 25.2722 43.4972 25.3393 43.3018 25.4044C42.8538 25.1538 42.8341 24.8164 43.1045 24.4197C43.4242 23.8967 43.8544 23.5277 44.4819 23.4349C45.0069 23.3047 45.5318 23.1725 46.0568 23.0422C45.3483 23.7763 44.3043 24.175 43.8919 25.2071V25.2071Z" fill="#CCCDCB"/>
<path d="M44.0893 27.5674C44.0952 26.8865 44.0281 26.1919 44.482 25.5998C44.8096 25.5998 45.1392 25.5998 45.4668 25.5998V25.9945C45.5181 26.6201 44.9201 27.0207 44.9004 27.6207C44.8392 27.8062 44.7563 27.9739 44.557 28.0489C44.3419 28.0864 44.1801 27.9976 44.0518 27.8318C44.0084 27.7371 44.0222 27.6483 44.0893 27.5693V27.5674Z" fill="#C9C5BF"/>
<path d="M46.0568 23.0422C46.193 22.6219 46.6232 22.5864 46.9271 22.4897C48.0658 22.1285 49.017 21.345 50.1893 21.0747C50.0906 21.203 50.0195 21.3806 49.8893 21.4536C48.6736 22.1305 47.4481 22.7896 46.0568 23.0422Z" fill="#CCCDCB"/>
<path d="M49.4038 19.1051C50.132 18.671 50.3156 17.8263 50.8089 17.2106C51.253 16.6561 51.6516 16.066 52.1588 15.5628C52.5633 15.8154 52.8909 16.143 53.1435 16.5475C52.5989 16.7962 52.214 17.1968 51.8904 17.704C51.3043 18.6236 50.4419 19.2413 49.4985 19.7722C47.5606 20.8635 45.6641 22.0259 43.6216 22.9258C43.071 23.1685 42.6684 23.7033 42.3191 24.2224C42.252 24.3033 42.1671 24.3565 42.0645 24.3861C41.6836 24.4473 41.356 24.3487 41.1014 24.0467C41.5159 22.76 42.546 22.0555 43.6748 21.5503C45.2812 20.83 46.8541 20.0643 48.3362 19.113C48.421 19.0598 48.5217 19.0657 48.6164 19.1032H49.4038V19.1051Z" fill="#D2D2D2"/>
<path d="M42.1197 24.2224C42.1848 24.2224 42.2519 24.2224 42.317 24.2224C42.5795 24.2875 42.842 24.3526 43.1045 24.4197C43.0827 24.7651 43.1143 25.1005 43.3018 25.4045C42.8459 25.5761 42.9367 26.0774 42.7117 26.3892C42.3466 26.5274 42.0506 26.4267 41.8059 26.1327C41.577 25.442 41.5336 24.7808 42.1217 24.2243L42.1197 24.2224Z" fill="#D2CFC9"/>
<path d="M33.8232 30.7328C33.6437 30.4348 33.324 30.5611 33.0713 30.4842C32.9924 30.4269 32.9056 30.3815 32.8128 30.35C32.1241 30.2592 31.4215 30.4111 30.7348 30.2552C30.3045 29.6612 29.7658 29.1442 29.454 28.4633C29.5882 28.1851 29.8506 28.114 30.1131 28.116C32.5425 28.1397 34.7389 28.7041 36.1796 30.8789C37.0518 32.1952 36.8683 33.399 35.6842 34.4666C35.3191 34.7962 34.9481 35.1416 34.4903 35.3211C34.0995 35.4731 33.6042 35.706 33.4325 35.0034C33.7029 34.4765 33.9732 33.9496 34.2436 33.4227C34.5574 32.5958 34.81 31.7669 34.2396 30.942L33.8232 30.7328V30.7328Z" fill="#F8F1C9"/>
<path d="M33.4345 35.0014C33.6733 35.3369 34.0127 35.2955 34.3166 35.1771C36.7243 34.2397 37.1703 31.615 35.1475 29.9711C33.6259 28.7357 31.8123 28.264 29.8566 28.3726C29.7441 28.3785 29.6356 28.489 29.525 28.5502C29.4145 28.6666 29.2803 28.7002 29.1264 28.6745C28.9764 28.6212 28.8817 28.5245 28.8718 28.3587C29.0475 27.9147 29.1442 27.4253 29.5862 27.1352C32.0649 27.4115 34.4745 27.9068 36.5861 29.3494C36.9019 29.8448 37.2216 30.3381 37.4623 30.8749C38.8773 33.8193 36.371 35.8777 33.5549 35.9803C33.32 35.998 32.9885 36.0355 33.0536 35.6033C33.1069 35.3547 33.2411 35.1554 33.4384 34.9975L33.4345 35.0014Z" fill="#F6EEC9"/>
<path d="M33.0497 35.6073C34.5752 35.9309 35.8283 35.3428 36.896 34.3482C37.7584 33.547 37.7268 32.5188 37.4209 31.4413C37.2018 30.6736 36.5407 30.1368 36.4124 29.3395C36.519 29.0238 36.7736 28.9113 37.0716 28.8541C37.3321 28.862 37.559 28.9587 37.7662 29.1126C38.7175 30.1822 39.1141 31.4867 39.1871 32.8681C39.2641 34.3008 38.086 35.4474 36.2289 35.8737C35.7 35.9941 35.1692 36.1085 34.6403 36.2269C33.914 36.1145 33.2253 36.4065 32.5129 36.4223C32.6925 36.15 32.8701 35.8776 33.0497 35.6073V35.6073Z" fill="#F3EAC8"/>
<path d="M34.2397 30.942C35.0981 31.6465 35.0981 32.2405 34.2436 33.4226C34.2436 32.5958 34.2417 31.7689 34.2397 30.942Z" fill="#F7E30E"/>
<path d="M10.2344 35.8342C9.81602 36.152 9.34436 36.4243 9.25161 37.0144C9.03058 36.9808 8.7385 36.9828 8.79573 36.6572C9.07597 35.035 9.56933 33.4621 9.70156 31.8005C9.76471 31.0071 10.2423 30.2395 10.5719 29.4777C10.7297 29.1126 10.8639 28.7594 10.8245 28.3568C10.637 27.8831 10.9093 27.5555 11.1876 27.2319C12.2236 26.0241 13.3031 24.8657 14.8089 24.2204C15.6693 24.2204 16.5633 23.9816 17.3409 24.5717C17.3665 25.3907 16.6857 25.4005 16.1686 25.6018C14.3274 25.9413 13.0012 26.9023 12.0263 28.5561C10.9942 30.3085 10.9133 32.3017 10.2699 34.143C10.0765 34.6956 10.7199 35.2797 10.2344 35.8342V35.8342Z" fill="#D7D2CD"/>
<path d="M14.7616 24.4197C13.4275 25.215 12.3164 26.2609 11.2942 27.4213C11.0396 27.7095 11.0297 28.0706 10.8245 28.3548C10.1141 28.7475 10.0114 29.4718 9.84566 30.1585C9.59503 31.1907 9.20428 32.1655 8.65961 33.0793C8.26886 32.8069 8.27675 32.4418 8.45831 32.0669C8.67342 31.6209 8.70302 31.1532 8.69118 30.6736C9.91868 27.3523 12.3145 23.6185 16.0285 22.8863C16.2594 22.8429 16.4824 22.833 16.6896 22.9672C16.8988 23.4428 16.4528 23.4941 16.218 23.6461C15.7562 23.9441 15.2352 24.1394 14.7616 24.4177V24.4197Z" fill="#D7D5D3"/>
<path d="M8.85693 30.717C8.97929 31.1966 8.99507 31.7077 8.70497 32.0906C8.42474 32.4596 8.63788 32.7517 8.65958 33.0793C8.6655 34.3324 7.71232 35.1652 7.2821 36.2289C6.32497 36.0928 6.34273 35.5283 6.77295 34.9087C7.61759 33.6891 8.2195 32.3826 8.46224 30.9144C8.57275 30.8058 8.63195 30.5986 8.85496 30.717H8.85693Z" fill="#D9D8D4"/>
<path d="M14.5642 34.6541C14.6708 36.2112 15.6397 37.1939 17.2895 37.4051C17.5125 37.4347 17.7533 37.3834 17.9092 37.6064C14.8622 37.9202 12.9874 36.5565 12.7131 33.9673C12.8808 33.47 13.0505 32.9747 13.7116 32.9747C14.2563 33.2924 14.3688 33.8923 14.6392 34.3916C14.655 34.4903 14.6293 34.5791 14.5642 34.6541V34.6541Z" fill="#E4D7C2"/>
<path d="M12.794 33.8667C13.9485 36.594 14.874 37.6735 17.9112 37.6064C18.1145 37.6182 18.3158 37.6281 18.5486 37.6419C18.4184 37.861 18.2487 37.7781 18.1086 37.8037C17.0468 37.9281 16.0147 37.5945 14.9589 37.6064C12.8216 37.1406 10.9942 35.4001 12.0066 33.0753C12.4881 33.0378 12.4684 33.5529 12.7407 33.7443C12.7585 33.7838 12.7763 33.8252 12.794 33.8667V33.8667Z" fill="#DFD4C4"/>
<path d="M21.868 36.8229C21.8048 36.9532 21.7436 37.0834 21.6825 37.2137C20.6582 37.6044 19.6893 37.1268 18.6986 37.0144C18.2269 36.6927 17.6527 36.5111 17.3132 36.0099C17.0961 35.6882 16.8731 35.3665 17.0882 34.9521C17.3704 34.6383 17.7079 34.5929 18.0868 34.7449C19.0597 35.9586 20.4096 36.4894 21.866 36.8249L21.868 36.8229Z" fill="#F1E5C1"/>
<path d="M17.1238 35.0468C17.185 36.075 18.2447 36.3019 18.6986 37.0144C17.5205 36.9709 16.6107 36.3533 15.7463 35.6369C15.3773 35.0192 15.5134 34.4765 15.993 33.9831C16.145 33.9081 16.3028 33.8943 16.4666 33.9318C16.9166 34.1666 17.2383 34.4785 17.1238 35.0468V35.0468Z" fill="#EDE1BF"/>
<path d="M16.139 34.0621C15.7561 34.5239 15.7285 35.0744 15.7463 35.6369C15.172 35.5264 14.9964 34.9363 14.5661 34.6541C14.5661 34.589 14.5661 34.5219 14.5661 34.4568C14.2839 33.914 14.4359 33.4463 14.8108 33.0141C15.1246 32.7339 15.4542 32.4892 15.916 32.5918C16.3738 33.022 16.3462 33.5292 16.141 34.0621H16.139Z" fill="#EBDDBC"/>
<path d="M21.4595 40.5607C21.72 40.164 21.9785 39.7693 22.239 39.3727C22.3278 40.6613 22.5942 41.8632 23.6974 42.7177C23.9737 42.9308 24.171 43.2446 24.4059 43.511C23.8158 43.511 23.2257 43.511 22.6337 43.511C22.5311 43.4202 22.4028 43.4044 22.2745 43.3788C21.0451 43.1301 20.9701 43.0315 21.051 41.7724C21.1635 41.3619 21.2562 40.9435 21.4555 40.5607H21.4595Z" fill="#FBE307"/>
<path d="M21.2543 41.7369C20.8655 42.9881 21.9923 43.0611 22.6337 43.511C22.3673 43.515 22.1009 43.5169 21.8345 43.5209C21.7082 43.515 21.5819 43.5091 21.4575 43.5031C20.4846 42.8578 20.4313 42.398 21.2543 41.7388V41.7369Z" fill="#FADA10"/>
<path d="M24.2184 43.9175C24.3309 44.63 24.844 45.3049 24.4079 46.0647C24.4454 45.5891 24.2934 45.1806 24.025 44.7878C23.802 44.4622 23.5593 44.0734 24.2184 43.9175Z" fill="#FADA10"/>
<path d="M8.06952 30.3243V29.1442C8.37343 28.787 8.54118 28.3449 8.68524 27.9246C9.36609 25.9373 10.8284 24.5144 12.1862 23.0225C13.686 21.3746 15.4838 20.4451 17.8224 20.6109C19.3755 20.7214 20.9464 20.8398 22.5133 20.6721C22.7778 20.6445 23.0363 20.6642 23.2672 20.8221C23.4507 21.0451 23.5869 21.276 23.4014 21.5641C22.6377 22.0989 21.7417 22.0575 20.8754 22.1324C20.3919 22.1739 19.9005 22.1186 19.4189 22.2193C19.1644 22.2785 18.8999 22.3258 18.6434 22.2844C14.7122 21.6529 12.425 23.9323 10.5383 26.8806C9.9601 27.7825 9.58909 28.8107 8.9635 29.6908C8.88653 29.7994 8.77997 29.8763 8.65959 29.9296C8.3537 29.898 8.27279 30.2039 8.06952 30.3223V30.3243Z" fill="#DADAD9"/>
<path d="M8.65961 29.9296C9.97591 27.4055 11.085 24.7137 13.6249 23.1014C15.0379 22.2035 16.5535 21.5542 18.3138 22.016C18.6217 22.0969 18.9631 22.0476 19.2887 22.0594C20.0722 22.5666 20.0899 22.5982 19.936 23.1567C18.8684 23.0817 17.7928 23.2297 16.7291 23.0442C12.6282 23.4231 10.3746 27.3286 8.85695 30.719C8.7267 30.7841 8.59448 30.8492 8.46423 30.9163C8.52936 30.5888 8.59448 30.2612 8.66158 29.9316L8.65961 29.9296Z" fill="#D8D8D6"/>
<path d="M37.0025 11.0356C37.1327 11.233 37.265 11.4284 37.3952 11.6257C37.3222 11.6889 37.2373 11.7244 37.1406 11.7283C36.2447 11.3613 35.775 10.4988 35.0567 9.92654C34.8001 9.67394 34.5554 9.40752 34.2909 9.16281C33.9298 8.82732 33.5331 8.30435 33.3496 9.29503C33.3161 9.48054 33.1444 9.58119 32.9786 9.54369C32.0688 9.34042 31.7491 10.041 31.4235 10.6153C30.496 12.2533 29.9927 14.0531 29.5566 15.8726C29.4125 16.4745 29.4125 17.1139 29.079 17.6665C27.8259 18.7874 26.3418 19.4623 24.7394 19.9123C21.8246 19.9853 18.9295 20.3326 16.0285 20.5833C14.5405 20.7115 13.2637 21.4832 12.3618 22.6594C11.1165 24.2835 9.51012 25.661 8.80756 27.6779C8.71678 27.9384 8.55891 28.2186 8.26486 28.3528C7.70834 28.7337 7.72018 29.3277 7.67085 29.904C7.64124 30.2454 7.79912 30.6262 7.47745 30.9104C7.47745 30.648 7.47745 30.3855 7.47745 30.123C7.27023 29.4402 7.43206 28.7929 7.67479 28.1555C8.50168 26.9102 9.01083 25.4597 10.0666 24.3664C11.2606 23.129 12.1329 21.6114 13.5676 20.5754C14.6175 19.8176 15.7857 19.5788 16.9757 19.6064C17.6586 19.6222 18.2526 19.4979 18.8565 19.2946C20.1629 18.8565 21.5621 18.9532 22.8744 18.5269C25.3946 17.7079 27.6226 16.5969 28.6192 13.8794C28.9784 12.9006 29.4678 11.9691 29.7638 10.9646C30.2217 9.41344 31.5024 8.46223 32.4576 7.27618C32.7181 6.9545 33.1325 7.02752 33.3832 7.38472C33.5726 7.65508 33.7344 7.93729 34.0482 8.08333C34.9659 9.13321 35.925 10.1436 37.0005 11.0356H37.0025Z" fill="#DDDEDD"/>
<path d="M8.26685 28.3548C8.88454 26.3024 10.4179 24.84 11.5941 23.1409C12.3223 22.089 13.2755 21.343 14.3964 20.7865C14.801 20.5852 15.2371 20.3346 15.6693 20.3188C18.7203 20.1965 21.7397 19.638 24.8025 19.6952C24.5065 20.3938 23.8829 20.6563 23.2277 20.8753C18.594 21.5384 15.4582 19.2729 12.0066 23.6362C11.9039 23.7625 11.827 23.9165 11.7086 24.023C10.5482 25.0611 9.6167 26.2313 9.09965 27.747C8.92598 28.2561 8.59049 28.8067 8.07147 29.1422L8.26882 28.3548H8.26685Z" fill="#DBDCDB"/>
<path d="M4.52711 34.4567C3.54432 33.6753 3.5088 33.1306 4.67117 32.5129C5.54147 32.0511 6.42361 31.5992 7.28207 31.1097C6.36441 32.2248 5.44477 33.3398 4.52711 34.4548V34.4567Z" fill="#E0E0DE"/>
<path d="M33.0654 30.3243C33.0654 30.3776 33.0674 30.4309 33.0694 30.4842C30.5749 30.5019 28.0824 30.5177 25.588 30.5355C23.7586 30.1822 23.9322 32.6944 23.0461 33.697C22.5054 33.9279 21.9213 34.0048 21.3569 34.1568C20.897 34.2811 20.5398 34.0581 20.2418 33.7226C20.1155 33.0852 20.5398 32.6767 20.9148 32.2997C22.0061 31.1946 23.2277 30.2296 24.398 29.2093C24.844 29.0475 25.2742 28.7988 25.7794 28.8995C25.9925 29.2803 26.0813 29.6908 26.0577 30.123C27.5891 30.046 29.1185 29.9257 30.64 30.1842C31.4452 30.3204 32.2682 30.0895 33.0654 30.3223V30.3243Z" fill="#F9F2BC"/>
<path d="M20.2735 33.6693C20.8596 33.9989 21.426 33.989 22.0575 33.7246C22.3259 33.6121 22.7146 33.4917 23.0482 33.697C22.7521 34.5534 22.5351 35.4395 22.0851 36.2388C21.5069 36.892 21.0115 36.2921 20.5261 36.0967C19.934 35.8599 19.5038 35.4139 19.3617 34.7528C19.3538 34.3837 19.5709 34.1114 19.7683 33.8311C19.9103 33.695 20.0544 33.5628 20.2735 33.6693V33.6693Z" fill="#F7EFC0"/>
<path d="M19.486 34.6541C20.0938 35.779 21.1121 36.3986 22.0851 36.2388C22.0495 36.448 22.0673 36.6749 21.868 36.8229C20.2339 36.892 18.9216 36.3454 18.1065 34.8514C18.0473 34.7646 18.0454 34.6797 18.1125 34.5949C18.5782 34.3877 19.0361 34.4232 19.484 34.6541H19.486Z" fill="#F5EBC0"/>
<path d="M25.3906 30.721C24.473 32.8444 23.5514 34.9679 22.6475 37.0973C22.5528 37.3183 22.466 37.5077 22.241 37.6064C22.1068 36.4125 22.9435 35.552 23.3126 34.5337C23.7053 33.4444 24.2125 32.3945 24.7177 31.3505C24.844 31.09 24.9841 30.7289 25.3926 30.721H25.3906Z" fill="#FCE94A"/>
<path d="M34.6403 36.2269C35.3428 35.8086 36.1697 35.7632 36.9117 35.4158C39.3036 34.2949 39.1575 33.0418 38.6563 31.3268C38.4313 30.5552 38.1195 29.7855 37.5926 29.1422C37.5866 28.7909 37.7208 28.5048 38.007 28.2975C38.378 28.2541 38.6503 28.4554 38.9187 28.6705C39.8798 30.0618 41.9204 33.9121 39.5601 34.8514C38.0524 35.7829 36.3809 36.1283 34.6403 36.2289V36.2269Z" fill="#F0E6C6"/>
<path d="M39.5621 34.8495C41.1784 33.3812 40.1897 31.8518 39.641 30.3559C39.4338 29.7915 39.0687 29.2823 38.7767 28.7495C38.9267 28.491 39.1457 28.3351 39.4417 28.2936C40.0634 28.5659 40.1699 29.2547 40.5804 29.6967C41.3284 30.9696 42.1395 32.2425 41.7211 33.8173C41.5395 34.5041 41.2494 35.1968 40.3495 35.2422C40.0772 35.1317 39.9055 34.8199 39.5621 34.8495V34.8495Z" fill="#ECE1C4"/>
<path d="M40.3495 35.2442C41.6757 34.1884 41.9085 33.4306 41.3402 31.8498C41.0757 31.1157 40.8488 30.3598 40.3495 29.7342C40.2982 29.4185 40.2824 29.1146 40.5843 28.8995C40.8843 28.8955 41.0678 29.0889 41.2119 29.308C42.0467 30.5828 42.5598 31.9801 42.7295 33.4957C42.767 33.8272 42.6644 34.141 42.4986 34.4311C41.9796 35.0449 41.4961 35.7198 40.5469 35.6389H40.1522C40.2173 35.5086 40.2844 35.3764 40.3495 35.2461V35.2442Z" fill="#E8DDC3"/>
<path d="M10.2344 35.8342C9.83578 32.953 10.7396 30.3342 12.1033 27.9088C12.9262 26.4464 14.3412 25.509 16.139 25.4025C16.214 25.7794 15.9417 26.0103 15.772 26.2846C13.1374 27.9522 11.7639 30.3914 11.3435 33.4365C11.1383 34.9304 11.7047 36.0572 13.1295 36.7775C13.6229 37.0282 14.136 37.2413 14.5642 37.6044C14.1498 37.9814 13.6446 37.7248 13.1867 37.7998C12.0441 37.3814 10.9784 36.8486 10.2344 35.8322V35.8342Z" fill="#D8D1C9"/>
<path d="M44.482 27.9621C44.6398 27.8772 44.6754 27.7292 44.6793 27.5674C45.0661 27.4667 45.2358 27.7312 45.4095 27.9956C45.6897 29.31 46.3212 30.4743 46.9567 31.6406C47.1955 32.0787 47.5428 32.5228 47.2389 33.0793C47.4264 33.3832 47.456 33.7187 47.4363 34.064C47.2389 33.9989 47.0435 33.9338 46.8462 33.8667C46.1436 32.2563 45.2437 30.7407 44.6339 29.0909C44.5017 28.7357 44.2984 28.3686 44.4839 27.964L44.482 27.9621Z" fill="#CAC3B7"/>
<path d="M48.2217 32.2918C48.1526 32.7082 48.3539 33.0793 48.419 33.472C48.0737 33.3871 48.0559 32.8622 47.6316 32.8819C46.9468 31.8557 46.5778 30.6677 45.9305 29.6138C45.5812 29.0455 45.4628 28.3173 45.7509 27.6206C45.8121 27.5318 45.8969 27.4786 46.0015 27.4588C46.3548 27.4568 46.5699 27.6542 46.7179 27.9482C46.7376 28.9547 47.1086 29.8428 47.6198 30.6933C47.9158 31.1867 48.2927 31.6564 48.2197 32.2918H48.2217Z" fill="#C2BCB3"/>
<path d="M45.8594 27.5693C45.8713 28.4988 46.0568 29.3001 46.5422 30.1862C46.9784 30.9815 47.7342 31.8103 47.6296 32.8839C47.5448 33.0418 47.3987 33.0773 47.2369 33.0812C47.0455 32.0353 46.4021 31.1966 45.9344 30.2789C45.5594 29.5428 45.2911 28.7949 45.2693 27.964C45.3621 27.6779 45.5101 27.4746 45.8594 27.5713V27.5693Z" fill="#C6BFB5"/>
<path d="M44.0892 27.5674C44.0892 27.6325 44.0892 27.6996 44.0892 27.7647C44.5924 29.4738 45.4805 31.0091 46.2778 32.5859C46.4337 32.8918 46.5363 33.1839 46.2541 33.472C46.2502 33.6338 46.2166 33.7818 46.0568 33.8667C45.6779 33.6457 45.5318 33.2273 45.2516 32.9234C44.4918 31.2637 43.3906 29.7639 42.9189 27.968C42.9308 27.8121 42.9821 27.6739 43.1064 27.5694C43.434 27.6621 43.7616 27.6621 44.0892 27.5694V27.5674Z" fill="#D3CABA"/>
<path d="M46.2541 33.472C45.9956 32.2544 45.3187 31.2242 44.7681 30.1368C44.3912 29.3928 43.9373 28.6646 44.0873 27.7667C44.2195 27.8318 44.3497 27.8969 44.482 27.964C44.9655 29.6533 45.8693 31.1571 46.5857 32.7438C46.7514 33.1089 46.8817 33.4641 46.8442 33.8667C46.6469 33.7364 46.4515 33.6042 46.2541 33.474V33.472Z" fill="#CFC6B7"/>
<path d="M45.4668 32.8819C45.7233 33.174 46.0134 33.4463 46.0568 33.8667C45.7608 34.6363 45.6069 35.5066 44.6793 35.8342C44.6793 35.6369 44.6793 35.4415 44.6793 35.2442C44.3636 34.6817 44.8175 34.2081 44.8609 33.6871C44.9813 33.3595 45.0819 33.0122 45.4668 32.8819Z" fill="#D5CDBF"/>
<path d="M53.9289 31.1117C53.6665 31.4393 53.404 31.7669 53.1415 32.0945C52.8889 31.8755 52.9442 31.5597 52.8771 31.2814C52.7054 30.573 51.7246 30.0164 51.0378 30.2256C50.7655 30.3085 50.5701 30.4782 50.5247 30.7585C50.4221 31.4077 50.9095 31.7531 51.2825 32.1517C51.6022 32.4951 51.9318 32.5346 52.3048 32.2169C52.5238 32.0294 52.7685 31.9564 52.9442 32.2938C52.8139 32.4912 52.6817 32.6885 52.5515 32.8839L51.764 33.474C50.6747 33.92 50.0905 33.0891 49.5853 32.4497C49.0328 31.7531 48.5473 30.9519 48.3716 30.0283C48.1447 27.0661 54.2546 28.935 53.9289 31.1137V31.1117Z" fill="#B1B1AF"/>
<path d="M48.6144 30.127C49.1157 31.3446 49.7235 32.4734 50.7971 33.322C51.1523 33.6022 51.5056 33.0872 51.7641 33.472C50.7339 34.2673 50.282 34.2673 49.5992 33.472C48.2138 32.2662 47.529 30.6756 47.1185 28.9389C47.0258 28.5482 47.1501 28.1634 47.304 27.7963C47.4185 27.6049 47.5862 27.4943 47.8112 27.4746C48.1388 27.5082 48.423 27.6147 48.5651 27.9443C48.7013 28.6686 48.2533 29.4047 48.6144 30.125V30.127Z" fill="#B7B5B1"/>
<path d="M47.4342 27.7647C47.1126 30.0618 48.4526 31.7314 49.5991 33.472C48.8926 33.3654 48.6637 32.7043 48.2217 32.2918C47.6415 31.1966 46.9626 30.1546 46.5541 28.9725C46.4238 28.5955 46.4732 28.2857 46.6468 27.9621C46.5876 27.5239 46.8619 27.4411 47.2093 27.4391C47.3652 27.4924 47.4856 27.5713 47.4342 27.7667V27.7647Z" fill="#BCB8B2"/>
<path d="M40.5449 35.6369C41.2336 35.3902 41.7605 34.9008 42.317 34.4568C42.4927 34.3009 42.6841 34.2791 42.8933 34.3897C43.2308 35.1889 42.6703 35.5106 42.1217 35.8342C41.0737 36.4085 39.9311 36.45 38.7747 36.4243C39.3075 36.0316 40.0791 36.1776 40.5468 35.6369H40.5449Z" fill="#E3D9C6"/>
<path d="M14.5642 37.6064C13.5794 37.2847 12.6499 36.8328 11.8329 36.2072C10.9843 35.5579 10.9508 34.4962 11.0731 33.62C11.3435 31.6623 11.8231 29.7046 13.2025 28.187C13.9208 27.3957 14.6372 26.5234 15.7463 26.1919C16.1252 26.0932 16.2831 26.33 16.4035 26.6241C16.1982 27.3661 15.4424 27.5417 14.951 27.9779C13.4985 29.2626 12.6835 30.8552 12.3519 32.7319C12.3283 32.8622 12.2987 32.9845 12.2039 33.0812C11.6218 34.293 12.0046 36.0454 13.6051 36.8387C14.0689 37.0677 14.5859 37.2157 14.9589 37.6084H14.5642V37.6064Z" fill="#DBD1C5"/>
<path d="M42.1197 35.8342C42.392 35.3803 42.8834 35.0527 42.9071 34.4567C43.4202 32.7043 42.4335 31.3249 41.7369 29.8882C41.427 29.2488 41.0422 28.6469 40.7856 27.9779C40.762 27.7035 40.8527 27.4786 41.0757 27.3128C41.2218 27.2378 41.3737 27.2299 41.5316 27.2753C41.7783 27.3878 41.952 27.5772 42.0822 27.8121C42.617 29.4461 43.3709 30.9913 44.0557 32.5622C44.2432 32.9905 44.3556 33.4128 44.3458 33.8746C44.1642 35.1336 43.4696 35.8027 42.317 35.8382C42.2519 35.8382 42.1848 35.8382 42.1197 35.8382V35.8342Z" fill="#E0D6C1"/>
<path d="M42.3171 35.8342C43.1874 35.4317 44.109 35.0725 44.0873 33.8667C44.3123 33.5924 44.1583 33.0556 44.6892 32.9905C45.1056 33.0536 44.9517 33.4385 45.072 33.6694C44.9418 34.1943 44.8096 34.7192 44.6793 35.2442C43.8682 35.4356 43.2505 36.2033 42.3171 36.0316C42.3171 35.9665 42.3171 35.8994 42.3171 35.8342Z" fill="#DAD1C1"/>
<path d="M21.2543 41.7369C20.6563 42.4019 20.9385 42.9663 21.4575 43.5011C21.1674 43.5406 20.9109 43.4439 20.6642 43.3077C20.3504 42.7769 20.4155 42.2579 20.7609 41.7823C21.0332 41.4093 21.1556 40.9909 21.2543 40.5567C21.3214 40.5567 21.3885 40.5567 21.4556 40.5587C21.3885 40.9514 21.3194 41.3422 21.2523 41.7349L21.2543 41.7369Z" fill="#FADD38"/>
<path d="M47.2369 26.3872C48.496 25.1499 51.4562 24.8006 52.9462 25.7301C53.2797 25.9373 53.6033 26.1149 53.9961 26.2077C55.0341 26.4563 55.4821 27.072 55.5018 28.1555C55.1288 28.5403 55.4426 29.2172 54.9137 29.5369C54.7243 28.2423 53.8421 27.6799 52.7449 27.0918C51.178 26.253 49.6801 26.1859 48.0638 26.6931C47.7619 26.6596 47.456 26.6398 47.2369 26.3853V26.3872Z" fill="#BBBBBA"/>
<path d="M48.0243 26.5846C49.4235 25.882 50.8168 25.8051 52.212 26.6043C52.5515 26.7997 52.9086 26.9734 53.2698 27.1253C54.3631 27.5845 54.9111 28.3883 54.9137 29.5369C54.9097 29.6987 54.8742 29.8448 54.7163 29.9296C52.8692 27.8318 50.6727 26.7504 47.827 27.5674C47.6967 27.6325 47.5645 27.6976 47.4343 27.7647C47.3691 27.6996 47.304 27.6345 47.2369 27.5674C47.0317 26.8648 47.4145 26.6339 48.0243 26.5826V26.5846Z" fill="#B8B8B7"/>
<path d="M47.829 27.5674C49.8518 25.9906 52.1015 27.7351 54.0119 28.6054C54.5427 28.8659 54.5901 29.4323 54.7203 29.9316C54.6552 30.127 54.5901 30.3243 54.525 30.5197C54.4598 30.5197 54.3927 30.5197 54.3276 30.5197C53.4869 29.0416 51.8509 28.8363 50.5149 28.1515C50.1596 27.97 49.7492 28.0134 49.3564 28.0568C49.0387 28.0923 48.7091 28.2245 48.423 27.9601C48.2256 27.8299 48.0303 27.6976 47.8329 27.5674H47.829Z" fill="#B5B5B4"/>
<path d="M52.9462 32.2918C52.8238 32.2682 52.6561 32.1813 52.585 32.2307C52.2673 32.4497 52.0562 33.0793 51.5865 32.7359C51.0004 32.3057 50.3254 31.8281 50.2287 31.0288C50.1577 30.4427 50.4004 29.9612 51.1424 29.9257C52.4627 29.8605 53.1416 30.5789 53.1416 32.0965C53.0764 32.1616 53.0093 32.2287 52.9442 32.2938L52.9462 32.2918Z" fill="#AFAEAD"/>
<path d="M48.419 27.9621C50.4754 27.4075 52.0976 28.4436 53.7158 29.4382C54.0789 29.6612 54.2763 30.0717 54.3236 30.5197C54.0927 30.6618 54.1322 30.8946 54.1263 31.1098C54.0612 31.1098 53.996 31.1098 53.9309 31.1098C53.2086 29.3514 51.7068 28.8442 50.0077 28.7653C48.8867 28.712 48.642 29.0218 48.6164 30.125C48.1269 29.4422 48.269 28.7021 48.419 27.9601V27.9621Z" fill="#B3B3B2"/>
<path d="M29.0001 32.8819C29.5349 32.805 30.0915 33.0418 30.6914 32.9194C31.2104 32.8128 31.2578 33.2825 31.3012 33.7068C31.4295 34.9541 30.7368 36.0257 30.569 37.2117C30.5177 37.5689 30.4447 37.8866 30.5434 38.2438C30.9203 39.6114 29.8882 40.7324 28.4397 40.5429C24.1908 39.9173 24.4 32.8326 29.0021 32.8819H29.0001Z" fill="#FDF00C"/>
<path d="M37.1999 11.6277C37.265 11.6277 37.3321 11.6277 37.3972 11.6277C37.8689 11.8684 38.2182 12.3243 38.7747 12.4151C39.7753 12.9914 40.0279 13.9149 40.3239 14.9964C41.0935 17.8027 41.6757 18.0316 44.5866 17.1317C45.2793 16.9166 45.7016 17.2836 46.2542 17.335C46.5383 17.6685 47.2231 17.7415 46.9686 18.4283C45.4312 18.9512 43.9195 19.5373 42.4454 20.2202C41.881 20.4807 41.3323 20.7668 40.685 20.751C38.0406 20.8517 36.6 20.5497 35.8145 17.7099C36.4973 16.0423 36.1678 14.1794 36.8269 12.5059C36.9433 12.2099 36.9433 11.8645 37.1999 11.6277V11.6277Z" fill="#DBDCDC"/>
<path d="M47.0416 18.3177C46.7791 17.9901 46.5166 17.6625 46.2542 17.335C46.2542 17.2698 46.2542 17.2027 46.2542 17.1376C46.8442 17.5974 47.4363 18.0553 48.0263 18.5151C47.9908 18.5467 47.9553 18.5802 47.9217 18.6118C47.5547 18.7341 47.2665 18.6256 47.0435 18.3177H47.0416Z" fill="#E1E1E1"/>
<path d="M47.4343 16.3502C46.8422 16.3147 46.3528 16.4331 46.2541 17.1356C45.9877 16.8988 45.968 16.5988 46.2285 16.4015C46.5896 16.1311 47.0159 15.9713 47.4343 16.3482V16.3502Z" fill="#E1E1E1"/>
<path d="M48.6164 19.1051C47.5922 19.8097 46.6252 20.5852 45.4233 21.0174C43.734 21.6252 42.1928 22.4916 41.137 24.025C41.0482 24.2381 40.8903 24.323 40.6633 24.2855C40.243 24.1375 39.9726 23.875 39.9923 23.3954C40.2469 22.3436 40.8449 21.6233 41.8908 21.2246C42.8914 20.8418 43.8327 20.3149 44.8787 20.0346C45.3483 19.9103 45.7983 19.7031 46.1654 19.3597C46.8403 18.7302 47.6257 18.5526 48.5118 18.8012C48.5473 18.8367 48.5829 18.8723 48.6164 18.9078C48.6164 18.9729 48.6164 19.04 48.6164 19.1051V19.1051Z" fill="#D5D6D5"/>
<path d="M48.0263 18.5151C48.5927 18.5506 49.1374 18.5605 49.0091 17.7296C49.5775 18.6019 49.5439 18.7026 48.6164 18.9098C48.5019 18.6552 47.9671 19.0321 48.0244 18.5171L48.0263 18.5151Z" fill="#E1E1E1"/>
<path d="M45.8595 27.5694C45.6621 27.6996 45.4667 27.8318 45.2694 27.9621C45.072 27.8299 44.8767 27.6996 44.6793 27.5674C44.7405 26.9418 45.0878 26.4603 45.4667 25.9926C45.7292 25.9926 45.9917 25.9926 46.2542 25.9926C46.189 26.3853 45.9877 26.7563 46.0568 27.1727C46.1772 27.3049 46.1772 27.4352 46.0568 27.5674C45.9917 27.5674 45.9246 27.5674 45.8595 27.5674V27.5694Z" fill="#C4C1BB"/>
<path d="M46.0568 27.5674C46.0568 27.4351 46.0568 27.3049 46.0568 27.1727C46.5068 26.9951 46.6765 26.3971 47.237 26.3853C47.5093 26.4129 47.8172 26.2945 48.0244 26.5826C47.6593 26.8273 47.2843 27.0681 47.237 27.5674C46.9528 27.5674 46.7574 27.6996 46.6469 27.9601C46.4495 27.8298 46.2542 27.6976 46.0568 27.5674V27.5674Z" fill="#BCBBB8"/>
<path d="M41.9244 27.7647C41.7369 27.6897 41.6047 27.5595 41.5297 27.37C41.3363 27.1668 41.3106 26.928 41.3836 26.6675C41.4823 26.4169 41.6501 26.2412 41.9244 26.1879C42.2105 26.1583 42.4671 26.2511 42.7118 26.3853C42.844 26.778 42.9743 27.1727 43.1065 27.5654C43.1065 27.6976 43.1065 27.8279 43.1065 27.9601C42.915 28.1417 42.9644 28.4831 42.6822 28.6054C42.1375 28.5877 42.1849 28.039 41.9263 27.7628L41.9244 27.7647Z" fill="#D7D0C3"/>
<path d="M41.9243 26.1899C41.8493 26.3774 41.7191 26.5096 41.5316 26.5826C41.06 26.2471 40.7245 25.7912 40.3989 25.3235C40.3002 24.8894 40.3456 24.4986 40.7442 24.2204C40.8764 24.1552 41.0067 24.0881 41.1389 24.023C41.4665 24.0881 41.7941 24.1552 42.1237 24.2204C41.8888 24.8598 41.9184 25.5248 41.9263 26.1879L41.9243 26.1899Z" fill="#D7D3CB"/>
<path d="M29.1303 28.5521C29.2606 28.5521 29.3928 28.5521 29.5231 28.5521C30.1644 28.8916 30.5848 29.3948 30.7032 30.127C29.6612 30.3421 28.6054 30.1644 27.5595 30.2237C27.2121 29.752 27.2338 29.5329 27.7529 29.2527C28.2048 29.008 28.6981 28.8422 29.1284 28.5541L29.1303 28.5521Z" fill="#FAF3C4"/>
<path d="M27.3582 30.127C28.4732 30.127 29.5882 30.127 30.7052 30.127C31.4887 30.2276 32.3077 29.9138 33.0675 30.3243H25.3926C25.5367 29.9967 25.7952 30.1881 25.9807 30.127C26.4405 29.7816 26.8984 29.7816 27.3582 30.127Z" fill="#FBF7CB"/>
<path d="M37.0025 28.9468C36.8052 29.0771 36.6098 29.2093 36.4124 29.3395C34.6797 28.4554 32.8089 27.9857 30.9479 27.4766C30.4743 27.3463 29.9 27.7213 29.5231 27.1746C29.5093 27.1253 29.4954 27.076 29.4816 27.0286C29.5329 26.7582 29.7027 26.5787 29.9257 26.4366C31.2676 26.178 32.5701 26.5412 33.8844 26.701C35.0863 26.8372 35.9211 27.6187 36.7795 28.3548C36.9492 28.5008 37.0992 28.6843 37.0005 28.9448L37.0025 28.9468Z" fill="#F3EBCC"/>
<path d="M27.3582 30.127C26.8984 30.127 26.4406 30.127 25.9807 30.127C25.7913 29.754 25.5367 29.3928 25.7834 28.9468C26.2254 28.5502 26.7504 28.3094 27.3069 28.1259C27.8634 28.0943 28.4397 27.9384 28.933 28.3568C28.9982 28.4219 29.0633 28.489 29.1304 28.5541C29.0041 29.7086 27.4825 28.9152 27.3582 30.1289V30.127Z" fill="#F9F1C0"/>
<path d="M28.933 28.3548H27.1608C26.8411 28.264 26.4425 28.341 26.2629 27.9404C26.1485 27.6068 26.2412 27.3246 26.4721 27.076C26.6754 26.8846 26.9142 26.7938 27.1924 26.8036C27.7095 26.8806 28.2285 26.9378 28.7554 26.9023C29.0416 26.8826 29.3593 26.8253 29.5211 27.1747C29.381 27.597 29.4106 28.1042 28.931 28.3548H28.933Z" fill="#F4EBC4"/>
<path d="M37.0025 28.9468C36.0947 28.0647 35.2362 27.1016 33.8528 26.9793C33.8765 26.4642 34.2811 26.5806 34.5672 26.5905C34.8889 26.6023 35.2086 26.6221 35.5283 26.5747C35.627 26.5688 35.7257 26.5747 35.8224 26.5905C36.4006 26.703 36.8979 27.0109 37.4228 27.2536C37.7702 27.5397 38.1353 27.818 37.9873 28.3568C37.9557 28.6686 37.8491 28.9449 37.5945 29.1442C37.3972 29.079 37.2018 29.0139 37.0045 28.9468H37.0025Z" fill="#EFE7CC"/>
<path d="M16.7291 23.0422C17.8441 22.6929 18.9591 22.7797 20.0741 23.0422C20.2083 22.9179 20.3504 22.9317 20.4945 23.0244C20.5813 23.6125 20.2971 24.023 19.8511 24.3526C19.2176 24.5657 18.5486 24.6289 17.9013 24.7828C17.6843 24.8104 17.483 24.7789 17.3192 24.617C16.4765 24.4217 15.618 24.4177 14.7596 24.4197C15.174 23.6165 16.1667 23.6362 16.7271 23.0422H16.7291Z" fill="#D9D6D1"/>
<path d="M17.3192 24.617H17.9092C18.6118 24.6032 19.2097 24.7414 19.338 25.5801C18.8012 26.0458 18.15 26.3221 17.5422 26.6694C17.1337 26.7346 16.7291 26.7306 16.3344 26.5846C16.137 26.4524 15.9417 26.3221 15.7443 26.1899C15.6634 25.8208 15.9259 25.6255 16.137 25.4025C16.5613 25.1854 17.1119 25.1578 17.3172 24.6151L17.3192 24.617Z" fill="#DDD4C9"/>
<path d="M14.9589 33.0793C14.7339 33.5115 14.4892 33.9377 14.5642 34.4568C14.1379 34.0917 13.984 33.5707 13.7768 33.0793C13.4709 32.7319 13.5715 32.3688 13.7097 31.984C14.2701 30.4131 15.1029 29.0554 16.6166 28.2245C16.8396 28.0825 17.0665 27.9719 17.333 28.114C17.6152 28.7376 16.9975 29.1047 16.9047 29.6237C15.7345 30.4822 15.4266 31.8261 14.9589 33.0793V33.0793Z" fill="#E6D7BB"/>
<path d="M16.7291 28.3548C16.3245 28.8738 15.6279 29.081 15.2529 29.5803C14.4793 30.6085 13.9031 31.759 13.7768 33.0793C13.2064 33.0378 13.2202 33.7285 12.792 33.8667C12.7486 33.8154 12.6894 33.7581 12.6953 33.7009C12.942 31.1413 13.8932 28.9745 16.1627 27.5555C16.2771 27.4845 16.4133 27.4924 16.5455 27.524C16.8001 27.7588 16.9501 28.0173 16.7291 28.3568V28.3548Z" fill="#E2D4BE"/>
<path d="M16.5337 27.5674C14.1853 28.935 13.2281 31.313 12.794 33.8647C12.2848 33.8371 12.1842 33.5016 12.2039 33.0773C11.9868 31.7136 12.7269 30.6421 13.3012 29.5251C13.98 28.2048 15.2687 27.5062 16.3383 26.5826C16.731 26.259 17.1257 26.5175 17.5185 26.5826C17.5323 26.63 17.5461 26.6754 17.5619 26.7227C17.3705 27.1865 17.1455 27.6108 16.5357 27.5674H16.5337Z" fill="#DFD2C1"/>
<path d="M18.1085 34.6541C18.1085 34.7192 18.1085 34.7863 18.1085 34.8514C17.7632 34.8297 17.4277 34.8613 17.1237 35.0488C16.9264 34.7212 16.731 34.3936 16.5337 34.064C16.3699 33.5568 16.583 33.1641 16.9146 32.805C17.2422 32.6471 17.5224 32.7359 17.773 32.9727C18 33.2589 18.15 33.5845 18.2684 33.9279C18.3335 34.1943 18.3059 34.4429 18.1105 34.6521L18.1085 34.6541Z" fill="#F1E5BB"/>
<path d="M16.9264 32.8819L16.5318 34.0621H16.1371C15.9002 33.6279 16.0897 33.1325 15.9397 32.6846C15.5529 32.1359 16.0226 31.759 16.2377 31.3604C16.9166 30.1033 17.8875 29.1106 19.1071 28.3627C19.4189 28.2956 19.7248 28.2995 20.0248 28.4199C20.2162 28.5245 20.3307 28.6804 20.3366 28.9054C20.0761 29.4797 19.4564 29.6454 19.0321 30.0382C18.3158 30.7012 17.554 31.315 17.3132 32.3333C17.26 32.5622 17.0863 32.7221 16.9225 32.8819H16.9264Z" fill="#EEE0B8"/>
<path d="M19.0913 28.5521C17.7691 29.7224 16.3798 30.8413 15.9417 32.6846C15.6141 32.8148 15.2865 32.947 14.9569 33.0773C14.9648 31.6051 15.4976 30.3953 16.7291 29.5349C17.3034 28.7357 17.9368 28.0469 19.0676 28.2877C19.1525 28.3686 19.1604 28.4554 19.0913 28.5501V28.5521Z" fill="#EADBB9"/>
<path d="M23.2258 20.8773C23.652 20.3524 24.2875 20.1076 24.8006 19.6972C26.2846 19.1781 27.7075 18.5407 28.935 17.5323C29.1955 17.4316 29.4225 17.5204 29.6435 17.6546C29.752 17.7276 29.8724 17.7967 29.9395 17.9053C30.9854 19.6064 32.6017 20.2478 34.4943 20.5063C35.5126 20.6444 36.5447 20.9227 37.2907 21.7555C37.6045 22.389 38.2478 22.8725 38.1669 23.6855C37.2986 23.8592 36.6434 23.3264 35.931 22.9968C35.556 22.8231 35.2462 22.5133 34.8021 22.4955C34.2752 22.3771 33.7661 22.2015 33.2569 22.0239C32.1301 21.4733 30.9519 21.0707 29.7323 20.7786C28.118 21.0904 26.7405 21.9903 25.2328 22.5725C25.0867 22.608 24.9427 22.6061 24.8006 22.5626C24.3822 22.1482 23.6461 22.1305 23.4231 21.4693C23.358 21.272 23.2929 21.0766 23.2258 20.8793V20.8773Z" fill="#DEDDD8"/>
<path d="M23.4211 21.4674C23.873 21.8068 24.544 21.8384 24.7986 22.4521C24.6782 22.762 24.4098 22.8488 24.1217 22.908C23.2356 23.0225 21.1556 23.7132 20.4688 23.0422C20.3366 23.0422 20.2063 23.0422 20.0741 23.0422C19.8748 22.6633 19.3834 22.5192 19.2867 22.0574C20.2438 21.5878 21.3174 22.0713 22.2942 21.6805C22.6416 21.5404 23.0422 21.5345 23.4191 21.4674H23.4211Z" fill="#DBD9D6"/>
<path d="M37.1999 11.6277C36.6552 13.6327 36.8032 15.77 36.0197 17.7277C35.6566 18.5861 35.0389 18.7559 34.1311 18.6473C32.2346 18.4164 31.384 17.1337 30.7269 15.5825C30.6953 15.4187 30.6598 15.2312 30.7407 15.099C31.688 13.5321 31.9563 11.6356 33.1444 10.1851C33.839 9.33847 34.2693 9.25953 35.2323 9.85749C35.8875 10.4476 36.5447 11.0376 37.1999 11.6297V11.6277Z" fill="#D8D9D8"/>
<path d="M35.2323 9.85548C33.9081 9.50421 33.8075 9.49829 32.9253 10.9685C32.0629 12.4072 31.5735 14.0294 30.9025 15.5628C30.6953 16.4449 30.5019 17.3349 29.5251 17.7276C29.3277 17.6625 29.1304 17.5974 28.935 17.5303C29.3376 15.6555 29.8033 13.8004 30.4802 11.9987C30.7822 11.1955 31.165 10.4416 31.6959 9.77655C32.0452 9.33844 32.4182 8.69509 33.0951 9.50223C33.2727 9.0582 32.8602 8.58654 33.4385 8.38722C33.922 8.22145 34.0739 8.62207 34.3127 8.84507C34.6442 9.1549 34.9304 9.51407 35.2343 9.85154L35.2323 9.85548Z" fill="#DADCDB"/>
<path d="M20.2734 33.6693C20.1412 33.7345 20.0109 33.8016 19.8787 33.8667C19.5748 33.5608 19.6261 33.1937 19.6991 32.8227C20.5911 31.3663 21.8088 30.2316 23.2178 29.2843C23.6224 29.1284 24.025 28.9942 24.4059 29.3395C23.6323 30.498 22.3692 31.1393 21.4299 32.1359C20.976 32.6175 20.5872 33.1029 20.2714 33.6693H20.2734Z" fill="#F8F0B9"/>
<path d="M24.4059 29.3395C24.0013 29.3356 23.5908 29.302 23.2257 29.5369C23.0718 29.4086 22.9514 29.2626 22.9554 29.0475C23.0146 28.7791 23.204 28.6232 23.425 28.4909C24.3447 27.9601 25.3176 27.7213 26.3754 27.9621C26.6378 28.0923 26.9003 28.2245 27.1628 28.3548C26.7326 28.6192 26.3537 29.0041 25.7853 28.9448C25.3413 29.1264 24.9051 29.3415 24.4078 29.3376L24.4059 29.3395Z" fill="#F6EDBD"/>
<path d="M19.8787 32.6846V33.8647C19.9083 34.2061 19.5965 34.3798 19.486 34.6521C19.0262 34.8238 18.5684 34.6107 18.1085 34.6521C18.0612 33.397 18.1381 33.022 19.2591 32.4063C19.5196 32.3787 19.7307 32.4596 19.8787 32.6846Z" fill="#F5ECBA"/>
<path d="M37.9872 28.3548C37.7899 28.0272 37.5945 27.6996 37.3972 27.37C37.2531 26.9181 37.5018 26.6201 37.7978 26.3399C38.5852 26.2452 38.7964 26.9931 39.2739 27.3523C39.4002 27.6779 39.5325 28.0035 39.3647 28.3548C39.2542 28.6153 39.0588 28.7475 38.7747 28.7475C38.5122 28.6173 38.2497 28.485 37.9872 28.3548V28.3548Z" fill="#EAE1CA"/>
<path d="M39.3647 28.3548C39.1773 28.0509 39.1457 27.7154 39.1674 27.37C39.2424 27.1589 39.3983 27.0701 39.6173 27.078C40.1147 27.3365 40.4205 27.7726 40.6949 28.2384C40.7639 28.4989 40.7501 28.7416 40.5449 28.9429C40.5764 29.229 40.4817 29.4856 40.3475 29.7303C40.0199 29.2705 39.6923 28.8126 39.3628 28.3528L39.3647 28.3548Z" fill="#E7DEC6"/>
<path d="M40.5449 28.9468V28.1594C40.6218 27.9857 40.7225 27.8575 40.9376 27.9621C41.875 29.525 42.7729 31.1078 43.2683 32.878C43.4301 33.4562 43.5011 34.0384 42.9051 34.4567H42.3151C42.6861 32.3116 41.8533 30.5512 40.5429 28.9468H40.5449Z" fill="#E4DAC2"/>
<path d="M42.7117 28.5521C42.7117 28.268 42.844 28.0726 43.1045 27.9621C43.7083 29.6908 44.7503 31.2084 45.4667 32.8819C45.3364 33.1444 45.2042 33.4069 45.074 33.6693C44.9437 33.472 44.8115 33.2766 44.6813 33.0793C43.8978 31.6268 42.8282 30.2967 42.7137 28.5521H42.7117Z" fill="#D9CFBC"/>
<path d="M42.7118 28.5521C43.2012 30.1329 44.2649 31.465 44.6793 33.0793C44.482 33.3417 44.2866 33.6042 44.0893 33.8667C44.1366 32.7793 43.4183 31.9583 43.0867 31.0032C42.7098 29.9197 42.0191 28.9508 41.9244 27.7667C42.1868 28.0292 42.4493 28.2916 42.7118 28.5541V28.5521Z" fill="#DDD3BE"/>
<path d="M40.9396 27.9621C40.8093 28.0272 40.6771 28.0923 40.5469 28.1594C40.0949 27.9542 39.8956 27.4983 39.5621 27.1747C39.4614 26.701 39.0332 26.2787 39.3411 25.7419C39.5147 25.6215 39.7022 25.6176 39.8956 25.6827C40.3771 26.1958 40.91 26.6695 41.1369 27.37C41.0718 27.5674 41.0067 27.7647 40.9396 27.9601V27.9621Z" fill="#E2D9C8"/>
<path d="M41.135 27.372C40.6436 26.9201 40.1305 26.4859 39.9548 25.7972C40.0535 25.5189 40.1838 25.288 40.5449 25.4025C41.056 25.6432 41.3777 26.0419 41.5297 26.5826V27.37C41.3974 27.37 41.2672 27.37 41.135 27.37V27.372Z" fill="#DCD6C9"/>
<path d="M30.3204 35.408C30.2414 36.4105 29.9553 37.4387 29.5862 38.4471C29.4481 38.824 29.1896 39.0648 28.7613 38.9523C27.9127 38.7313 27.1826 38.3465 26.8846 37.4327C26.5984 36.5585 26.6892 35.6783 27.3286 35.0606C27.9877 34.4232 28.8778 34.0838 29.8487 34.291C30.4388 34.4173 30.277 34.9304 30.3204 35.406V35.408Z" fill="#FDF20F"/>
<path d="M29.5231 17.7277C30.1723 17.1277 30.3953 16.2535 30.9006 15.5628C31.1946 16.0305 31.4886 16.4982 31.7827 16.9639C32.7517 18.4934 34.6265 18.8308 36.0178 17.7277C37.6834 20.7096 37.3104 20.5043 40.7422 20.4826C40.4738 21.1437 39.7654 21.4852 39.5226 22.164C38.7076 22.3752 37.8728 22.7205 37.1999 21.8601C34.1824 19.5886 32.3412 21.9608 29.5231 17.7277V17.7277Z" fill="#DBDBD8"/>
<path d="M39.5621 22.0574C39.3667 21.0904 40.2429 20.9286 40.7422 20.4826C41.1113 20.5102 41.4704 20.4668 41.7803 20.2576C43.0137 19.4268 44.5629 19.3084 45.7904 18.4638C46.1653 18.2052 46.6212 18.3453 47.0415 18.3177C47.3691 18.3828 47.6967 18.4499 48.0243 18.5151C48.2217 18.6453 48.419 18.7775 48.6164 18.9078C47.5803 18.7637 46.8146 19.2196 45.966 19.7998C44.1425 21.0628 40.8685 20.8852 40.1541 23.4349C39.9686 23.5908 39.7673 23.6125 39.5522 23.502C39.1694 23.0185 39.0648 22.535 39.5641 22.0574H39.5621Z" fill="#D8D9D8"/>
<path d="M39.5621 23.4349C39.7594 23.4349 39.9548 23.4349 40.1522 23.4349C40.1107 23.875 40.5488 23.9579 40.7422 24.2223C40.6771 24.617 40.4758 24.9861 40.5449 25.4025C40.3475 25.5347 40.1522 25.665 39.9548 25.7972C39.7575 25.7972 39.5621 25.7972 39.3648 25.7972C39.047 25.7301 38.899 25.4972 38.7944 25.2209C38.7194 24.9052 38.5951 24.5973 38.6642 24.2618C38.8615 23.877 39.122 23.5593 39.5621 23.4369V23.4349Z" fill="#DCD8CF"/>
<path d="M35.6251 26.7819C35.0685 27.149 34.3956 26.476 33.8529 26.9793C32.5524 26.7247 31.244 26.553 29.9158 26.5865C29.5843 26.5293 29.2685 26.4425 29.0712 26.1326C29.0929 25.7873 29.304 25.5899 29.5941 25.4498C31.5775 24.8598 33.3635 25.7024 35.1909 26.2274C35.4198 26.2925 35.6862 26.4366 35.6231 26.7819H35.6251Z" fill="#EFE6D0"/>
<path d="M29.1304 26.1899C29.4678 26.1721 29.7698 26.2254 29.9178 26.5846L29.5251 27.1746C28.7475 26.999 27.9187 27.4213 27.1628 26.9773C26.999 26.7701 26.9832 26.5569 27.1372 26.3359C27.7845 26.0498 28.4436 25.9432 29.1304 26.1899Z" fill="#F1E7C8"/>
<path d="M26.3734 27.9621C25.3985 28.2581 24.3052 28.114 23.4211 28.7495C23.1843 28.5186 23.0816 28.2502 23.1862 27.9226C23.425 27.6305 23.7408 27.4569 24.0921 27.3345C24.915 27.2358 25.7083 26.6596 26.5707 27.1747C26.4365 27.4194 26.3438 27.6759 26.3734 27.9621V27.9621Z" fill="#F3E8BF"/>
<path d="M26.5708 27.1746C25.6906 27.1233 24.8736 27.4963 24.0132 27.5674C23.6086 27.4351 23.0146 27.891 22.7995 27.1766C23.8158 26.8451 24.8322 26.5076 25.8722 26.253C26.3083 26.2293 26.7445 26.2254 27.1628 26.3872C27.1628 26.5846 27.1628 26.7799 27.1628 26.9773C26.9655 27.0424 26.7681 27.1095 26.5728 27.1746H26.5708Z" fill="#F0E4C4"/>
<path d="M35.6251 26.7819C34.0266 26.0518 32.4123 25.4045 30.5947 25.5821C30.2395 25.6176 29.8803 25.5959 29.5231 25.6018C29.0435 25.59 28.7732 25.4183 28.9824 24.8854C29.9375 24.2737 31.015 24.4907 32.0156 24.5776C33.3575 24.694 34.6956 25.0038 35.8737 25.7518C36.1401 26.109 36.1934 26.4583 35.8224 26.7839C35.7573 26.7839 35.6922 26.7839 35.6251 26.7839V26.7819Z" fill="#ECE4D1"/>
<path d="M35.8224 26.78C35.8303 26.5175 36.0138 26.255 35.8224 25.9926C36.5032 25.7479 37.1111 25.9866 37.709 26.2807C37.7367 26.3162 37.7643 26.3517 37.7899 26.3873C37.6597 26.7148 37.5275 27.0424 37.3972 27.372C36.7914 27.3898 36.3769 26.8984 35.8224 26.7819V26.78Z" fill="#EBE3CF"/>
<path d="M19.2887 25.5998C19.0203 25.0039 18.4322 24.8558 17.9112 24.6151C18.5348 24.321 19.1939 24.2085 19.8787 24.2204C20.4471 23.8652 21.0648 23.731 21.718 23.8671C22.2647 23.9796 22.8014 23.8375 23.3441 23.8671C23.5099 23.9066 23.6382 23.9934 23.6954 24.1632C23.3599 25.0295 22.4995 25.1025 21.797 25.4183C20.9543 25.3847 20.1353 25.6985 19.2887 25.5979V25.5998Z" fill="#DFD7CD"/>
<path d="M23.4211 24.025C22.2607 24.4651 21.045 23.8947 19.8787 24.2223C20.0761 23.8296 20.2714 23.4349 20.4688 23.0422C21.7436 23.1882 22.9613 22.7699 24.2085 22.6495C24.5775 23.4704 23.9737 23.7329 23.4211 24.027V24.025Z" fill="#DDD8D2"/>
<path d="M19.2887 25.5998C20.0919 25.1499 20.9721 25.1874 21.8483 25.2071C22.239 25.438 22.1048 25.7123 21.9134 25.9925C21.0628 26.5017 20.0307 26.2905 19.1506 26.6852C18.6 26.7661 18.0395 27.001 17.5185 26.5846C18.0158 26.0892 18.5546 25.6669 19.2907 25.5998H19.2887Z" fill="#E2D7C8"/>
<path d="M17.5165 26.5846C18.0414 26.6813 18.5664 26.4109 19.0913 26.5846C19.3439 26.9872 19.0341 27.2141 18.815 27.4707C18.3256 27.7174 17.9349 28.1851 17.3192 28.1594C17.1218 28.2245 16.9264 28.2897 16.7291 28.3568C16.664 28.0943 16.5969 27.8318 16.5317 27.5693C16.9363 27.3187 17.2639 26.9891 17.5165 26.5846Z" fill="#E4D7C1"/>
<path d="M17.3211 28.1594C17.7356 27.818 18.1757 27.522 18.6986 27.372C19.0835 27.1154 19.417 27.226 19.7248 27.52C19.8689 28.0667 19.6696 28.3548 19.0933 28.3568C18.1125 28.3646 17.4514 29.01 16.7311 29.5369C16.7192 28.9883 17.2777 28.6843 17.3211 28.1594Z" fill="#E8D9BD"/>
<path d="M19.2887 32.4892C18.896 32.949 18.5013 33.4069 18.1085 33.8667C17.852 33.6674 17.7474 33.3911 17.7158 33.0793C17.9586 31.3722 19.0617 30.2987 20.4175 29.4086C20.83 29.4362 21.2582 29.2527 21.6568 29.4955C21.718 29.6296 21.6963 29.7619 21.5917 29.8487C20.6859 30.6065 20.0208 31.5775 19.2906 32.4892H19.2887Z" fill="#F3E8B6"/>
<path d="M20.4688 29.5369C19.2078 30.4506 18.3355 31.6682 17.7139 33.0793C17.4692 32.9451 17.2126 32.8523 16.9265 32.8819C17.26 30.9065 18.6769 29.8507 20.2715 28.9449C20.4353 28.7811 20.6208 28.7732 20.8181 28.8718C21.0569 29.2803 20.7195 29.3849 20.4669 29.5349L20.4688 29.5369Z" fill="#F1E4B6"/>
<path d="M20.8635 28.9468H20.2735C20.2083 28.8166 20.1432 28.6844 20.0761 28.5541C20.7964 27.8595 21.6391 27.3681 22.5824 27.0405C22.6791 27.0602 22.762 27.1056 22.8311 27.1766C23.131 27.5911 23.7132 27.1549 24.0132 27.5694C23.7408 27.6799 23.5672 27.9917 23.2258 27.964C22.6199 28.8422 21.793 29.1876 20.8635 28.9488V28.9468Z" fill="#F0E4BC"/>
<path d="M22.6337 27.1746C21.7397 27.5595 21.0155 28.2561 20.0741 28.5521H19.0894C19.0894 28.487 19.0894 28.4219 19.0894 28.3548C19.4051 28.1811 19.6656 27.966 19.6794 27.5674C20.0662 26.9102 20.7589 26.853 21.3983 26.6872C21.7397 27.0247 22.4383 26.4602 22.6317 27.1727L22.6337 27.1746Z" fill="#ECDFBF"/>
<path d="M33.2628 21.8601C33.7878 21.9904 34.3127 22.1226 34.8376 22.2528C35.4238 22.5449 35.9546 22.9218 36.3927 23.4034C36.6098 23.6422 36.9473 23.9323 36.5131 24.2914C35.5639 24.2737 34.7883 23.7191 33.9219 23.4448C31.759 22.76 29.5941 22.5153 27.3957 23.2692C26.628 23.0876 25.8899 22.8232 25.1933 22.4502C26.6122 21.5858 28.12 20.9267 29.7204 20.4826C30.719 21.4102 32.0353 21.5207 33.2628 21.8601V21.8601Z" fill="#E2DDD6"/>
<path d="M25.1933 22.4502C26.0222 22.2568 26.6182 22.9139 27.3582 23.0402C27.4648 23.2632 27.3365 23.4191 27.2063 23.575C26.6478 24.0072 26.034 24.323 25.3354 24.4611C24.7493 24.4828 24.1119 24.8558 23.6185 24.2204C23.5534 24.1552 23.4863 24.0881 23.4211 24.023C23.6382 23.5375 24.321 23.3185 24.2086 22.6455C24.4059 22.5804 24.6033 22.5133 24.7986 22.4482C24.9308 22.4482 25.0611 22.4482 25.1933 22.4482V22.4502Z" fill="#E1DBD2"/>
<path d="M36.6098 24.2223C36.3493 23.2692 35.3922 22.9435 34.8376 22.2548C35.7119 22.3199 36.2605 23.0975 37.0835 23.283C37.4564 23.3659 37.8176 23.5139 38.1827 23.6323C38.5379 23.6717 38.8379 23.7645 38.7727 24.2223C38.8379 24.5499 38.903 24.8775 38.9701 25.2071C38.6524 25.5229 38.2952 25.5485 37.9064 25.3551C37.4781 24.9723 36.6611 25.0354 36.6078 24.2243L36.6098 24.2223Z" fill="#E1DDD5"/>
<path d="M38.7747 24.2223C38.5774 24.025 38.38 23.8296 38.1847 23.6323C37.8393 23.0521 37.4051 22.5192 37.1999 21.8621C37.9478 22.3909 38.7747 21.9864 39.5621 22.0594C39.3233 22.5192 39.5444 22.9771 39.5621 23.4369C39.3727 23.7724 39.1122 24.0348 38.7747 24.2243V24.2223Z" fill="#DBDBD7"/>
<path d="M33.2628 21.8601C31.9939 22.1443 30.9736 21.42 29.8763 21.0135C29.6829 20.9425 29.7263 20.6741 29.7184 20.4826C30.9124 20.9089 32.207 21.0747 33.2608 21.8601H33.2628Z" fill="#E1DDD5"/>
<path d="M19.2887 32.4892C19.6498 31.163 20.6978 30.3894 21.6509 29.5369C21.9963 29.01 22.4423 28.8304 23.0284 29.1442C23.1863 29.229 23.2218 29.3751 23.2258 29.5369C21.9252 30.3894 20.9484 31.5873 19.8788 32.6866C19.6814 32.6214 19.486 32.5563 19.2887 32.4892Z" fill="#F6ECB7"/>
<path d="M23.0284 29.1422C22.5311 29.1402 22.0949 29.3534 21.6509 29.5349C21.2582 29.4658 20.8635 29.8526 20.4708 29.5349C20.603 29.3376 20.7332 29.1422 20.8655 28.9448C21.7634 28.8817 22.5094 28.4574 23.2277 27.9601C23.3619 28.2048 23.4546 28.4613 23.425 28.7475C23.2376 28.8225 23.1053 28.9527 23.0304 29.1422H23.0284Z" fill="#F3E8B9"/>
<path d="M37.9873 25.2071C38.3149 25.4242 38.6425 25.144 38.972 25.2071C39.1043 25.4045 39.2345 25.6018 39.3667 25.7972C39.2819 26.2787 39.8483 26.6655 39.5641 27.1747C39.4338 27.2398 39.3016 27.3049 39.1714 27.372C38.5241 27.3069 38.4412 26.4524 37.7939 26.3872C37.6242 26.2313 37.49 26.0577 37.5136 25.809C37.5867 25.5406 37.6913 25.2959 37.9912 25.2071H37.9873Z" fill="#E4DDCD"/>
<path d="M28.933 25.0098C29.0613 25.2762 29.2586 25.4716 29.5231 25.5998C29.3908 25.7972 29.2606 25.9926 29.1284 26.1899C28.489 26.4247 27.8239 26.3951 27.1608 26.3872C26.7681 26.7109 26.3734 26.4524 25.9807 26.3872C25.8287 26.3478 25.736 26.253 25.7162 26.0952C25.8485 25.5939 26.2155 25.3038 26.6379 25.0611C27.2023 24.9762 27.7173 24.6802 28.3015 24.6782C28.5442 24.7295 28.7791 24.7966 28.935 25.0098H28.933Z" fill="#ECE2CB"/>
<path d="M25.7833 26.1899C25.8485 26.255 25.9156 26.3221 25.9807 26.3872C24.9525 26.7365 23.9934 27.3601 22.831 27.1746C22.7659 27.1746 22.7008 27.1746 22.6337 27.1746C22.3554 26.6951 21.6509 27.4963 21.4536 26.7819C21.5128 26.6911 21.5897 26.6201 21.6844 26.5668C22.6988 26.2136 23.7526 26.0557 24.8104 25.9156C25.1656 25.8682 25.5288 25.8524 25.7833 26.1918V26.1899Z" fill="#ECE0C5"/>
<path d="M28.933 25.0098C28.7159 25.0038 28.4831 25.0453 28.3429 24.8124C28.337 24.2145 28.8225 23.9875 29.1994 23.6796C31.5321 23.21 33.7147 23.8079 35.848 24.6585C36.4894 24.915 37.2512 25.0552 37.5946 25.7972C37.6597 25.9945 37.7248 26.1899 37.7919 26.3872C37.1367 26.257 36.4796 26.1248 35.8244 25.9945C33.6417 24.8696 31.3525 24.4967 28.935 25.0098H28.933Z" fill="#E9E2D2"/>
<path d="M23.6185 24.2224C24.2085 24.5401 24.7986 24.1908 25.3906 24.2224C25.6669 24.7157 25.3275 25.0256 25.0571 25.3591C24.2658 25.8978 23.3501 25.959 22.4403 26.0478C22.2134 26.034 22.0081 25.9689 21.8483 25.7972C21.9706 25.5998 21.9706 25.4045 21.8483 25.2071C22.4304 24.8637 23.1073 24.692 23.6204 24.2224H23.6185Z" fill="#E4DBCC"/>
<path d="M21.8463 25.7972C22.0436 25.7972 22.241 25.7972 22.4363 25.7972C22.5469 26.4228 21.9272 26.4662 21.6489 26.7819C21.5838 26.7819 21.5167 26.7819 21.4516 26.7819C20.8615 27.0444 20.2714 27.3069 19.6794 27.5694C19.3518 27.5042 19.0242 27.4391 18.6946 27.372C18.8052 27.0997 19.117 26.928 19.0874 26.5846C19.6163 25.8584 20.4865 26.3399 21.1378 26.0103C21.345 25.9057 21.6568 26.0478 21.8443 25.7972H21.8463Z" fill="#E7DAC4"/>
<path d="M37.5926 25.7972C34.9679 24.2973 32.1734 23.5296 29.1284 23.8296C28.3765 24.1769 27.7746 23.7803 27.1608 23.4369C27.226 23.3066 27.2911 23.1744 27.3582 23.0442C27.8476 23.1113 28.2068 22.7482 28.6508 22.6574C31.4393 22.1107 34.0956 23.1527 36.6078 24.2243C36.892 24.7966 37.6242 24.7433 37.9853 25.2091C37.855 25.4064 37.7228 25.6018 37.5926 25.7991V25.7972Z" fill="#E5DFD4"/>
<path d="M27.1608 23.4349C27.8634 23.3363 28.4436 23.8474 29.1284 23.8277C29.0317 24.2894 28.5403 24.4335 28.341 24.8124C27.7509 24.9407 27.22 25.3433 26.5688 25.2071C26.0438 25.5347 25.5189 25.9669 24.994 25.2071C25.1242 24.8795 25.2564 24.5519 25.3867 24.2223C26.0399 24.102 26.5609 23.6836 27.1589 23.4349H27.1608Z" fill="#E6DED0"/>
<path d="M24.996 25.2071C25.5209 25.4952 26.0459 25.3768 26.5708 25.2071C26.3083 25.5347 26.0459 25.8623 25.7834 26.1919C24.3526 26.0221 23.0225 26.5471 21.6509 26.7819C21.9134 26.4543 22.1759 26.1267 22.4384 25.7972C23.3185 25.7162 24.1829 25.5722 24.9979 25.2071H24.996Z" fill="#E9DEC8"/>
</g>
<defs>
<clipPath id="clip0_24_218">
<rect width="56.4964" height="54" fill="white"/>
</clipPath>
</defs>
</svg>
